<svg xmlns="http://www.w3.org/2000/svg" viewBox="0 0 280 280" fill="none" shape-rendering="auto"><metadata xmlns:rdf="http://www.w3.org/1999/02/22-rdf-syntax-ns#" xmlns:xsi="http://www.w3.org/2001/XMLSchema-instance" xmlns:dc="http://purl.org/dc/elements/1.1/" xmlns:dcterms="http://purl.org/dc/terms/"><rdf:RDF><rdf:Description><dc:title>Avataaars</dc:title><dc:creator>Pablo Stanley</dc:creator><dc:source xsi:type="dcterms:URI">https://avataaars.com/</dc:source><dcterms:license xsi:type="dcterms:URI">https://avataaars.com/</dcterms:license><dc:rights>Remix of „Avataaars” (https://avataaars.com/) by „Pablo Stanley”, licensed under „Free for personal and commercial use” (https://avataaars.com/)</dc:rights></rdf:Description></rdf:RDF></metadata><mask id="viewboxMask"><rect width="280" height="280" rx="0" ry="0" x="0" y="0" fill="#fff" /></mask><g mask="url(#viewboxMask)"><g transform="translate(8)"><path d="M132 36a56 56 0 0 0-56 56v6.17A12 12 0 0 0 66 110v14a12 12 0 0 0 10.3 11.88 56.04 56.04 0 0 0 31.7 44.73v18.4h-4a72 72 0 0 0-72 72v9h200v-9a72 72 0 0 0-72-72h-4v-18.39a56.04 56.04 0 0 0 31.7-44.73A12 12 0 0 0 198 124v-14a12 12 0 0 0-10-11.83V92a56 56 0 0 0-56-56Z" fill="#edb98a"/><path d="M108 180.61v8a55.79 55.79 0 0 0 24 5.39c8.59 0 16.73-1.93 24-5.39v-8a55.79 55.79 0 0 1-24 5.39 55.79 55.79 0 0 1-24-5.39Z" fill="#000" fill-opacity=".1"/><g transform="translate(0 170)"><path d="M92.68 29.94A72.02 72.02 0 0 0 32 101.05V110h200v-8.95a72.02 72.02 0 0 0-60.68-71.11 23.87 23.87 0 0 1-7.56 13.6l-29.08 26.23a4 4 0 0 1-5.36 0l-29.08-26.23a23.87 23.87 0 0 1-7.56-13.6Z" fill="#ffffff"/></g><g transform="translate(78 134)"><path fill-rule="evenodd" clip-rule="evenodd" d="M29 15.6C30.41 25.24 41.06 33 54 33c12.97 0 23.65-7.82 25-18.26.1-.4-.22-1.74-2.17-1.74H31.17c-1.79 0-2.3 1.24-2.17 2.6Z" fill="#000" fill-opacity=".7"/><path d="M70 13H39a5 5 0 0 0 5 5h21a5 5 0 0 0 5-5Z" fill="#fff"/><path d="M43 23.5a1.88 1.88 0 0 0 0 .13v8.87a11.5 11.5 0 1 0 23 0v-8.87a1.62 1.62 0 0 0 0-.13c0-1.93-2.91-3.5-6.5-3.5-2.01 0-3.8.5-5 1.26a9.45 9.45 0 0 0-5-1.26c-3.59 0-6.5 1.57-6.5 3.5Z" fill="#FF4F6D"/></g><g transform="translate(104 122)"><path fill-rule="evenodd" clip-rule="evenodd" d="M16 8c0 4.42 5.37 8 12 8s12-3.58 12-8" fill="#000" fill-opacity=".16"/></g><g transform="translate(76 90)"><path d="M44 22a14 14 0 1 1-28 0 14 14 0 0 1 28 0ZM96 22a14 14 0 1 1-28 0 14 14 0 0 1 28 0Z" fill="#fff"/><path d="M36 14a6 6 0 1 1-12 0 6 6 0 0 1 12 0ZM88 14a6 6 0 1 1-12 0 6 6 0 0 1 12 0Z" fill="#000" fill-opacity=".7"/></g><g transform="translate(76 82)"><path d="M15.6 14.16c4.49-6.32 14-9.5 23.75-6.36a2 2 0 1 0 1.23-3.81c-11.41-3.68-22.74.1-28.25 7.85a2 2 0 1 0 3.26 2.32ZM96.38 21.16c-3.92-5.51-14.65-8.6-23.9-6.33a2 2 0 0 1-.95-3.88c10.74-2.64 23.17.94 28.1 7.9a2 2 0 1 1-3.25 2.3Z" fill="#000" fill-opacity=".6"/></g><g transform="translate(-1)"><path d="M67 113c10.86-22.7 34.67-31.6 55.44-39.36 13.32-4.97 25.39-9.48 32-16.86 2.22 2.02 4.75 4.05 7.41 6.2C172.06 71.16 184.21 80.91 189 98v.17a12 12 0 0 1 9.81 9.72V86.04c0-1.3-.05-2.57-.15-3.84 4.54-17-3.1-37.78-12.66-47.2-9.48-8.82-22.3-12.32-30.95-8.48C143.45 8.98 109.9 13.24 90 28c-13.22 9.8-24.79 25.72-27.84 45.75A46.18 46.18 0 0 0 61 84.05v88.5c-.2 31.5-7.4 82.49-21 90.45 62.36 16.8 71.93-38.15 69-82v-.39a56.03 56.03 0 0 1-31.8-45.74A12 12 0 0 1 67 123v-10ZM157 180.61a56.03 56.03 0 0 0 31.8-45.74 12 12 0 0 0 10.01-9.76v1.36A100 100 0 0 0 209.78 172l26.95 52.71a37.79 37.79 0 0 1-3.94 40.76A72 72 0 0 0 161 199h-4v-18.39Z" fill="#d6b370"/><path d="M67 113c10.86-22.7 34.67-31.6 55.44-39.36 13.32-4.97 25.39-9.48 32-16.86 2.22 2.02 4.75 4.05 7.41 6.2 10.19 8.17 22.3 17.89 27.11 34.9-4.57-14.04-15.75-21.22-25.6-27.55-3.21-2.06-6.28-4.03-8.93-6.12-6.6 6.4-18.67 10.32-32 14.64C101.68 85.58 77.87 93.3 67 113Z" fill="#000" fill-opacity=".16"/></g><g transform="translate(49 72)"></g><g transform="translate(62 42)"></g></g></g></svg>