<svg xmlns="http://www.w3.org/2000/svg" viewBox="0 0 280 280" fill="none" shape-rendering="auto"><metadata xmlns:rdf="http://www.w3.org/1999/02/22-rdf-syntax-ns#" xmlns:xsi="http://www.w3.org/2001/XMLSchema-instance" xmlns:dc="http://purl.org/dc/elements/1.1/" xmlns:dcterms="http://purl.org/dc/terms/"><rdf:RDF><rdf:Description><dc:title>Avataaars</dc:title><dc:creator>Pablo Stanley</dc:creator><dc:source xsi:type="dcterms:URI">https://avataaars.com/</dc:source><dcterms:license xsi:type="dcterms:URI">https://avataaars.com/</dcterms:license><dc:rights>Remix of „Avataaars” (https://avataaars.com/) by „Pablo Stanley”, licensed under „Free for personal and commercial use” (https://avataaars.com/)</dc:rights></rdf:Description></rdf:RDF></metadata><mask id="viewboxMask"><rect width="280" height="280" rx="0" ry="0" x="0" y="0" fill="#fff" /></mask><g mask="url(#viewboxMask)"><g transform="translate(8)"><path d="M132 36a56 56 0 0 0-56 56v6.17A12 12 0 0 0 66 110v14a12 12 0 0 0 10.3 11.88 56.04 56.04 0 0 0 31.7 44.73v18.4h-4a72 72 0 0 0-72 72v9h200v-9a72 72 0 0 0-72-72h-4v-18.39a56.04 56.04 0 0 0 31.7-44.73A12 12 0 0 0 198 124v-14a12 12 0 0 0-10-11.83V92a56 56 0 0 0-56-56Z" fill="#f8d25c"/><path d="M108 180.61v8a55.79 55.79 0 0 0 24 5.39c8.59 0 16.73-1.93 24-5.39v-8a55.79 55.79 0 0 1-24 5.39 55.79 55.79 0 0 1-24-5.39Z" fill="#000" fill-opacity=".1"/><g transform="translate(0 170)"><path d="M92.68 29.94A72.02 72.02 0 0 0 32 101.05V110h200v-8.95a72.02 72.02 0 0 0-60.68-71.11 23.87 23.87 0 0 1-7.56 13.6l-29.08 26.23a4 4 0 0 1-5.36 0l-29.08-26.23a23.87 23.87 0 0 1-7.56-13.6Z" fill="#a7ffc4"/></g><g transform="translate(78 134)"><path d="M28 26.24c1.36.5 2.84.76 4.4.76 5.31 0 9.81-3.15 11.29-7.49 2.47 2.17 6.17 3.54 10.31 3.54 4.14 0 7.84-1.37 10.31-3.53 1.48 4.35 5.98 7.5 11.3 7.5 1.55 0 3.03-.27 4.4-.76h-.19c-6.33 0-11.8-4.9-11.8-10.56 0-4.18 2.32-7.72 5.69-9.68-5.5.8-9.73 5-9.9 10.1a17.61 17.61 0 0 1-9.8 2.8c-3.8 0-7.25-1.06-9.8-2.8-.18-5.1-4.4-9.3-9.9-10.1a11.18 11.18 0 0 1 5.68 9.68c0 5.66-5.47 10.57-11.8 10.57H28Z" fill="#000" fill-opacity=".6" opacity=".6"/><path d="M17 24a9 9 0 1 0 0-18 9 9 0 0 0 0 18ZM91 24a9 9 0 1 0 0-18 9 9 0 0 0 0 18Z" fill="#FF4646" fill-opacity=".2"/></g><g transform="translate(104 122)"><path fill-rule="evenodd" clip-rule="evenodd" d="M16 8c0 4.42 5.37 8 12 8s12-3.58 12-8" fill="#000" fill-opacity=".16"/></g><g transform="translate(76 90)"><g fill="#000" fill-opacity=".6"><path d="M36 22a6 6 0 1 1-12 0 6 6 0 0 1 12 0Z"/><path fill-rule="evenodd" clip-rule="evenodd" d="M70.6 24.96c1.59-3.92 5.55-6.86 10.37-7.2 4.8-.33 9.12 2 11.24 5.64.63 1.09-.1 2.06-.93 1.43-2.6-1.93-6.15-3-10-2.73A15.13 15.13 0 0 0 71.95 26c-.84.78-1.81.1-1.35-1.04Z"/></g></g><g transform="translate(76 82)"><path d="m22.77 1.58.9-.4C28.93-.91 36.88-.03 41.73 2.3c.57.27.18 1.15-.4 1.1-14.92-1.14-24.96 8.15-28.37 14.45-.1.18-.41.2-.49.03-2.3-5.32 4.45-13.98 10.3-16.3ZM89.23 1.58l-.9-.4C83.07-.91 75.12-.03 70.27 2.3c-.57.27-.18 1.15.4 1.1 14.92-1.14 24.96 8.15 28.37 14.45.1.18.41.2.49.03 2.3-5.32-4.45-13.98-10.3-16.3Z" fill-rule="evenodd" clip-rule="evenodd" fill="#000" fill-opacity=".6"/></g><g transform="translate(-1)"><path d="M78 98c-.33 1.22-1.65 1.49-2 0-.72-10.3 0-62.27 57-63 57-.73 57.72 52.7 57 63-.35 1.49-1.67 1.22-2 0 .46-1.55-3.3-28.75-13-36-1.76-1.22-7.25-2.39-14.64-3.26L164 50l-6.98 8.38c-7.03-.7-15.36-1.13-23.7-1.13C114 57.23 94.61 59.48 91 62c-9.7 7.25-13.46 34.45-13 36Z" fill="#a55728"/></g><g transform="translate(49 72)"></g><g transform="translate(62 42)"></g></g></g></svg>