<svg xmlns="http://www.w3.org/2000/svg" viewBox="0 0 280 280" fill="none" shape-rendering="auto"><metadata xmlns:rdf="http://www.w3.org/1999/02/22-rdf-syntax-ns#" xmlns:xsi="http://www.w3.org/2001/XMLSchema-instance" xmlns:dc="http://purl.org/dc/elements/1.1/" xmlns:dcterms="http://purl.org/dc/terms/"><rdf:RDF><rdf:Description><dc:title>Avataaars</dc:title><dc:creator>Pablo Stanley</dc:creator><dc:source xsi:type="dcterms:URI">https://avataaars.com/</dc:source><dcterms:license xsi:type="dcterms:URI">https://avataaars.com/</dcterms:license><dc:rights>Remix of „Avataaars” (https://avataaars.com/) by „Pablo Stanley”, licensed under „Free for personal and commercial use” (https://avataaars.com/)</dc:rights></rdf:Description></rdf:RDF></metadata><mask id="viewboxMask"><rect width="280" height="280" rx="0" ry="0" x="0" y="0" fill="#fff" /></mask><g mask="url(#viewboxMask)"><g transform="translate(8)"><path d="M132 36a56 56 0 0 0-56 56v6.17A12 12 0 0 0 66 110v14a12 12 0 0 0 10.3 11.88 56.04 56.04 0 0 0 31.7 44.73v18.4h-4a72 72 0 0 0-72 72v9h200v-9a72 72 0 0 0-72-72h-4v-18.39a56.04 56.04 0 0 0 31.7-44.73A12 12 0 0 0 198 124v-14a12 12 0 0 0-10-11.83V92a56 56 0 0 0-56-56Z" fill="#614335"/><path d="M108 180.61v8a55.79 55.79 0 0 0 24 5.39c8.59 0 16.73-1.93 24-5.39v-8a55.79 55.79 0 0 1-24 5.39 55.79 55.79 0 0 1-24-5.39Z" fill="#000" fill-opacity=".1"/><g transform="translate(0 170)"><path d="M132.5 54C151 54 166 44.37 166 32.5c0-1.1-.13-2.18-.38-3.23A72 72 0 0 1 232 101.05V110H32v-8.95A72 72 0 0 1 99.4 29.2a14.1 14.1 0 0 0-.4 3.3C99 44.37 114 54 132.5 54Z" fill="#b1e2ff"/><g transform="translate(77 58)"><path fill-rule="evenodd" clip-rule="evenodd" d="M87.69 13.4c-1.4-6.43-6.21-10.15-12.5-11.58-2.53-.58-10.92-2.4-9.61 2.4.6 2.18.26 3.97-1.55 5.77-1.77 1.76-5.24 2.2-6.96-.01-1.47-1.9.43-4.72-.72-6.57-.44-.71-1.21-1.08-2.03-.73-1.14.5-.53 1.56-1.07 2.32-.85 1.2-1.24.83-2-.37-.49-.76-.02-1.58-1.26-1.9-1.43-.37-1.9.83-2.03 1.92-.08.69.32 1.8.34 2.5.03 1.35-.1 3.31-.73 4.52-1.12 2.14-2.7 1.45-4.38.1-1.98-1.6-2.56-3.39-2.18-5.82.46-2.92.3-5.71-3.28-3.89-5.02 2.57-9.68 7.14-12.59 11.92-2.44 4.02-4.36 8.9-2.2 13.48 2.21 4.67 5.86 8.69 10.97 9.88 1.32.3 5.09 1.81 6.34.55 1.95-1.96-2.54-3.78-3.43-4.97-1.26-1.7-2.34-4.92-.96-6.83 1.76-2.43 3.6-1.08 5.05.64 1.13 1.35 2.75 4.82 4.5 2.02 1.21-1.93 1.1-5.1 4.4-3.72 4.73 1.98 4.87 11.12 5.71 15.3.37 1.82 2.04 4.06 3.47 1.52.8-1.4.37-4.42.22-5.86-.3-2.99-1.08-5.92-.1-8.88.55-1.71 2-4.16 4.12-2.84 1.73 1.06 1 5.81 3.35 5.8 2.07 0 1.5-3.79 2.6-5.04 1.69-1.9 4.92-1 5.92 1.25 1.33 3.03-2.2 5.13-2.05 7.79.16 2.59 3.5 1.58 4.9.92 2.87-1.35 5.11-3.85 6.67-6.57 2.4-4.2 4.13-10.22 3.08-15.03" fill="#fff"/></g></g><g transform="translate(78 134)"><path fill-rule="evenodd" clip-rule="evenodd" d="M29 15.6C30.41 25.24 41.06 33 54 33c12.97 0 23.65-7.82 25-18.26.1-.4-.22-1.74-2.17-1.74H31.17c-1.79 0-2.3 1.24-2.17 2.6Z" fill="#000" fill-opacity=".7"/><path d="M70 13H39a5 5 0 0 0 5 5h21a5 5 0 0 0 5-5Z" fill="#fff"/><path d="M43 23.5a1.88 1.88 0 0 0 0 .13v8.87a11.5 11.5 0 1 0 23 0v-8.87a1.62 1.62 0 0 0 0-.13c0-1.93-2.91-3.5-6.5-3.5-2.01 0-3.8.5-5 1.26a9.45 9.45 0 0 0-5-1.26c-3.59 0-6.5 1.57-6.5 3.5Z" fill="#FF4F6D"/></g><g transform="translate(104 122)"><path fill-rule="evenodd" clip-rule="evenodd" d="M16 8c0 4.42 5.37 8 12 8s12-3.58 12-8" fill="#000" fill-opacity=".16"/></g><g transform="translate(76 90)"><path d="M44 22a14 14 0 1 1-28 0 14 14 0 0 1 28 0ZM96 22a14 14 0 1 1-28 0 14 14 0 0 1 28 0Z" fill="#fff"/><path d="M36 22a6 6 0 1 1-12 0 6 6 0 0 1 12 0ZM88 22a6 6 0 1 1-12 0 6 6 0 0 1 12 0Z" fill="#000" fill-opacity=".7"/></g><g transform="translate(76 82)"><path d="M15.6 14.16c4.49-6.32 14-9.5 23.75-6.36a2 2 0 1 0 1.23-3.81c-11.41-3.68-22.74.1-28.25 7.85a2 2 0 1 0 3.26 2.32ZM96.38 21.16c-3.92-5.51-14.65-8.6-23.9-6.33a2 2 0 0 1-.95-3.88c10.74-2.64 23.17.94 28.1 7.9a2 2 0 1 1-3.25 2.3Z" fill="#000" fill-opacity=".6"/></g><g transform="translate(-1)"><path d="M50 90.5c0 4.55 1.7 8.64 4.85 10.77.9.61 2.47.93 4.15 1.07V182a8 8 0 0 0 8 8h42v-9.39a56.03 56.03 0 0 1-31.8-45.74A12 12 0 0 1 67 123v-13c0-3.5 1.5-6.63 3.87-8.83 11.54-2.61 24.1-7.53 36.47-14.67 12.13-7 22.5-15.24 30.48-23.75a87.36 87.36 0 0 1-12.45 20.78c12.68-5.52 21.3-14.4 25.9-26.63.37.92.76 1.84 1.17 2.76 10.26 23.03 27.88 39.36 45.77 44.74.5 2.11.79 4.08.79 5.6v13a12 12 0 0 1-10.2 11.87A56.03 56.03 0 0 1 157 180.6V190h18a32 32 0 0 0 32-32v-54.12c0-.07 0-.17-.03-.28-.07-5.64-.28-18.87-.6-21.37A74.01 74.01 0 0 0 132.99 18c-36.08 0-66.14 25.83-73 60-5.52 0-10 5.6-10 12.5Z" fill="#2c1b18"/><path d="M152.44 59.66c11.94 26.81 33.86 44.53 54.56 46.5V92A74 74 0 0 0 60.32 78H60c-5.52 0-10 5.6-10 12.5 0 6.48 3.95 11.81 9 12.44v.15l.95-.1H60a8.1 8.1 0 0 0 1.9-.22C75.7 101 91.68 95.54 107.34 86.5c12.13-7 22.5-15.24 30.48-23.75a87.36 87.36 0 0 1-12.45 20.78c12.68-5.52 21.3-14.4 25.9-26.63.37.92.76 1.84 1.17 2.76Z" fill="#fff" fill-opacity=".08"/></g><g transform="translate(49 72)"></g><g transform="translate(62 42)"><g fill-rule="evenodd" clip-rule="evenodd"><path d="M40 96a24 24 0 0 1-22.96-31H10.5a2.5 2.5 0 0 1 0-5h8c.23 0 .45.03.66.09a24 24 0 0 1 42.26 1.06A11.36 11.36 0 0 1 70.86 56c4.01 0 7.55 2.14 9.6 5.4a24 24 0 0 1 42.38-1.31c.2-.06.43-.1.66-.1h8a2.5 2.5 0 1 1 0 5h-6.54a24 24 0 1 1-46.6 2.83c-.08-4.37-3.45-7.83-7.5-7.83-3.73 0-6.89 2.94-7.42 6.83A24 24 0 0 1 40 96Zm0-4a20 20 0 1 0 0-40 20 20 0 0 0 0 40Zm82-20a20 20 0 1 1-40 0 20 20 0 0 1 40 0Z" fill="#000" fill-opacity=".1"/><path d="M40 94a24 24 0 0 1-22.96-31H10.5a2.5 2.5 0 0 1 0-5h8c.23 0 .45.03.66.09a24 24 0 0 1 42.26 1.06A11.36 11.36 0 0 1 70.86 54c4.01 0 7.55 2.14 9.6 5.4a24 24 0 0 1 42.38-1.31c.2-.06.43-.1.66-.1h8a2.5 2.5 0 1 1 0 5h-6.54a24 24 0 1 1-46.6 2.84c-.08-4.37-3.45-7.83-7.5-7.83-3.73 0-6.89 2.94-7.42 6.83A24 24 0 0 1 40 94Zm0-4a20 20 0 1 0 0-40 20 20 0 0 0 0 40Zm82-20a20 20 0 1 1-40 0 20 20 0 0 1 40 0Z" fill="#ffdeb5"/></g></g></g></g></svg>