<svg xmlns="http://www.w3.org/2000/svg" viewBox="0 0 280 280" fill="none" shape-rendering="auto"><metadata xmlns:rdf="http://www.w3.org/1999/02/22-rdf-syntax-ns#" xmlns:xsi="http://www.w3.org/2001/XMLSchema-instance" xmlns:dc="http://purl.org/dc/elements/1.1/" xmlns:dcterms="http://purl.org/dc/terms/"><rdf:RDF><rdf:Description><dc:title>Avataaars</dc:title><dc:creator>Pablo Stanley</dc:creator><dc:source xsi:type="dcterms:URI">https://avataaars.com/</dc:source><dcterms:license xsi:type="dcterms:URI">https://avataaars.com/</dcterms:license><dc:rights>Remix of „Avataaars” (https://avataaars.com/) by „Pablo Stanley”, licensed under „Free for personal and commercial use” (https://avataaars.com/)</dc:rights></rdf:Description></rdf:RDF></metadata><mask id="viewboxMask"><rect width="280" height="280" rx="0" ry="0" x="0" y="0" fill="#fff" /></mask><g mask="url(#viewboxMask)"><g transform="translate(8)"><path d="M132 36a56 56 0 0 0-56 56v6.17A12 12 0 0 0 66 110v14a12 12 0 0 0 10.3 11.88 56.04 56.04 0 0 0 31.7 44.73v18.4h-4a72 72 0 0 0-72 72v9h200v-9a72 72 0 0 0-72-72h-4v-18.39a56.04 56.04 0 0 0 31.7-44.73A12 12 0 0 0 198 124v-14a12 12 0 0 0-10-11.83V92a56 56 0 0 0-56-56Z" fill="#ffdbb4"/><path d="M108 180.61v8a55.79 55.79 0 0 0 24 5.39c8.59 0 16.73-1.93 24-5.39v-8a55.79 55.79 0 0 1-24 5.39 55.79 55.79 0 0 1-24-5.39Z" fill="#000" fill-opacity=".1"/><g transform="translate(0 170)"><path d="M132.5 54C151 54 166 44.37 166 32.5c0-1.1-.13-2.18-.38-3.23A72 72 0 0 1 232 101.05V110H32v-8.95A72 72 0 0 1 99.4 29.2a14.1 14.1 0 0 0-.4 3.3C99 44.37 114 54 132.5 54Z" fill="#b1e2ff"/><g transform="translate(77 58)"><path d="M105.56 30.07c-3.08-.66-5.19 3.54-1.9 4.79 2.8 1.07 4.84-4.15 1.9-4.79ZM104.2 27c3.65 0 2.3-5.98 2.31-7.97.02-2.13 1.55-8.6-.89-9.73-4.21-1.97-3.06 6.33-3.03 7.97.03 1.82.16 3.72-.23 5.5-.35 1.59-1.13 4.23 1.83 4.23ZM99.06 10.97c-1.08-.62-2.8-.32-3.99-.37-1.35-.06-2.69-.2-4.03-.3-2.18-.15-4.96-.56-7.12-.06-1.23.28-2.34 1.22-1.76 2.6.62 1.5 2.3 1.11 3.58 1.04.58-.04 2.03-.3 2.6-.1 1 .36.58-.1.8 1.08.35 1.8.14 4 .13 5.83-.03 3.18-.04 6.37-.1 9.54-.03 1.23-.45 2.63.75 3.45 1 .68 2.22.22 2.74-.8.5-1 .02-3.06-.03-4.2-.07-1.34-.14-2.67-.1-4.02.1-3.58.28-7.16.37-10.75.94.05 1.92.02 2.85.15.69.1 1.67.53 2.33.5 1.9-.1 2.69-2.59.98-3.59ZM70.72 17.81c-.08-.64-.01-.05 0 0Zm-.03-.27s0 .02 0 0Zm1.43-3.11c3.41-3.98 4.58 4.34 7.24 4 4.26-.57-.94-6.96-2.67-7.78-3.51-1.68-6.6.08-8.27 3.26-2.1 4-.77 6.71 3.26 8.45 1.47.63 7.03 2.52 5.53 4.96-.76 1.22-3.53 1.32-4.7 1.08-2.35-.48-1.98-2.08-3.13-3.57-1.03-1.34-3.03-.95-3.34.78-.25 1.36 1.17 3.42 2.11 4.38 2.24 2.26 6.04 2.44 8.89 1.4 4.39-1.57 4.92-5.7 1.8-8.9-1.74-1.8-3.93-2.35-6.1-3.42-2.65-1.3-2.16-2.4-.61-4.65ZM61.75 29.57c-.56-4.83-.7-9.72-.78-14.57-.03-1.55.7-5.2-1.45-5.86-2.92-.89-2.53 2.7-2.47 4.16.2 4.92.84 9.8 1.07 14.7.07 1.56-.43 4.57 1.83 4.95 2.75.45 2-2.09 1.8-3.38ZM52.47 13.68a6.74 6.74 0 0 0-10.09-.76c-2.07 2.06-3.38 6.92-1.41 9.4 2.12 2.7 7.35.34 8.72 3.39 1.68 3.74-2.73 5.15-5.07 2.66-.85-.9-.66-2.45-1.9-3-1.77-.8-2.87.92-2.52 2.35.85 3.5 4.65 5.4 8.1 5.27 3.77-.12 5.4-2.97 5.16-6.4-.33-4.74-3.98-5.48-7.99-6-1.7-.22-1.92-.2-1.81-1.95.13-2.12 1.37-4.57 3.99-4.07 2.1.4 2.3 3.57 4.45 3.72 3.5.24 1.26-3.43.37-4.62ZM34.72 29.44c-1.34.32-2.96.1-4.33.07-1.05-.02-4.57.43-5.26-.3-.76-.8-.5-3.24-.54-4.28-.05-1.45-.4-1.67.87-2 .75-.2 1.9-.1 2.68-.13 1.52-.07 3.47.2 4.93-.09 1.37-.28 2.5-1.75 1.25-3-.88-.9-2.54-.42-3.63-.4-2.03.06-4.07.05-6.1.08 0-1.57-.06-3.14.07-4.7 2.84.12 5.8.86 8.66.73 1.44-.07 3.04-1 2.3-2.73-.62-1.5-2.52-1.3-3.84-1.35-1.66-.07-3.32-.11-4.97-.17-1.22-.04-3-.44-4.16.1-2.36 1.14-1.55 5.02-1.48 7.12.08 2.67.08 5.27.17 7.96.09 2.43-.03 5.64 2.86 6.32 2.89.69 6.24.03 9.19.18 1.2.05 2.86.4 3.45-1 .57-1.35-.73-2.77-2.14-2.42ZM11.41 14.88c2.32.5 2.94 3.01 3.02 5.15.05 1.46.18 1.37-1 1.74-1.2.37-2.92.17-4.14.12-2.54-.11-2.24-.28-2.29-2.95 0-.62-.47-3.5-.1-3.91.47-.53 3.83-.2 4.51-.15Zm5.08 14.84a51.7 51.7 0 0 0-4.05-4.29c2.16-.06 4.5-.47 5.27-2.82.65-1.98.09-5-.67-6.87a7.05 7.05 0 0 0-5.63-4.48c-1.8-.25-6.28-.67-7.62.71-1.46 1.51-.45 5.65-.36 7.5.16 3.27.05 6.52-.15 9.79-.07 1.05-.59 2.78-.05 3.73a1.98 1.98 0 0 0 2.97.54c.99-.85.53-1.88.47-2.96-.1-1.68.08-3.4.18-5.08 1.6 1.3 3.25 2.59 4.76 4.02 1.49 1.41 2.56 3.2 3.99 4.62 1 1.01 2.82 1.43 3.33-.45.44-1.6-1.57-2.95-2.45-3.97Z" fill-rule="evenodd" clip-rule="evenodd" fill="#fff"/></g></g><g transform="translate(78 134)"><rect x="22" y="7" width="64" height="26" rx="13" fill="#000" fill-opacity=".6"/><rect x="24" y="9" width="60" height="22" rx="11" fill="#fff"/><path d="M24.18 18H32V9.41A11 11 0 0 1 35 9h1v9h9V9h4v9h9V9h4v9h9V9h2c.68 0 1.35.06 2 .18V18h8.82l.05.28v3.44l-.05.28H75v8.82c-.65.12-1.32.18-2 .18h-2v-9h-9v9h-4v-9h-9v9h-4v-9h-9v9h-1a11 11 0 0 1-3-.41V22h-7.82a11.06 11.06 0 0 1 0-4Z" fill="#E6E6E6"/></g><g transform="translate(104 122)"><path fill-rule="evenodd" clip-rule="evenodd" d="M16 8c0 4.42 5.37 8 12 8s12-3.58 12-8" fill="#000" fill-opacity=".16"/></g><g transform="translate(76 90)"><path d="M44 20.73c0 4.26-6.27 7.72-14 7.72S16 25 16 20.73C16 16.46 22.27 13 30 13s14 3.46 14 7.73ZM96 20.73c0 4.26-6.27 7.72-14 7.72S68 25 68 20.73C68 16.46 74.27 13 82 13s14 3.46 14 7.73Z" fill="#fff"/><path d="M32.82 28.3a25.15 25.15 0 0 1-5.64 0 6 6 0 1 1 5.64 0ZM84.82 28.3a25.15 25.15 0 0 1-5.64 0 6 6 0 1 1 5.64 0Z" fill="#000" fill-opacity=".7"/></g><g transform="translate(76 82)"><path d="M36.37 6.88c-1.97 2.9-5.55 4.64-8.74 5.68-3.94 1.29-18.55 3.38-15.11 11.35.05.12.22.12.27 0 1.15-2.65 17.47-5.12 18.97-5.7 4.45-1.71 8.4-5.5 9.17-10.55.35-2.31-.64-6.05-1.55-7.55-.11-.18-.37-.13-.43.07-.36 1.33-1.41 4.97-2.58 6.7ZM75.63 6.88c1.97 2.9 5.55 4.64 8.74 5.68 3.94 1.29 18.55 3.38 15.11 11.35a.15.15 0 0 1-.27 0c-1.15-2.65-17.47-5.12-18.97-5.7-4.45-1.71-8.4-5.5-9.17-10.55-.35-2.31.64-6.05 1.55-7.55.11-.18.37-.13.43.07.36 1.33 1.41 4.97 2.58 6.7Z" fill-rule="evenodd" clip-rule="evenodd" fill="#000" fill-opacity=".6"/></g><g transform="translate(-1)"><g fill="#b58143"><path d="M187.7 56.12c.9 3.25 2.17 11.95-.06 14.84-.75.96-5.84-1.74-7.97-2.92l-3.53-1.96c-14.92-8.32-19.74-11-45.9-10.62-28.11.4-47.37 13.58-48.46 14.93-.75.93-1.71 3.44-2.5 10.41-.25 2.2-.32 4.97-.4 7.71-.14 5.94-.3 11.77-2.25 11.76-2.44-.01-2.97-23.78-1.92-33.21.04-.36.1-.78.18-1.23.23-1.4.5-3.13.16-4.11-.16-.44-.54-.7-.94-.99-.62-.43-1.26-.88-1.08-2.03.21-1.31 1.1-1.43 1.97-1.56.57-.08 1.13-.16 1.5-.56 1.13-1.23.46-1.87-.31-2.6-.46-.43-.95-.9-1.12-1.53-.63-2.36 1.03-3.1 2.69-3.83l.38-.17c.69-.3 1.1-.42 1.42-.5.6-.15.85-.21 1.89-1.35-2.14-1.56-2.9-3.69.01-4.83.56-.22 1.52-.2 2.5-.2 1.2.02 2.4.03 2.94-.37.15-.11.24-.53.33-.9.06-.27.11-.5.18-.6 1.35-1.93 1.23-3.4 1.08-5.4l-.07-.92c-.13-2.04-.11-3.9 2.33-4.11 1-.08 1.9.4 2.77.86.54.29 1.08.58 1.64.73.87.23 1.1.43 1.32.43.19 0 .37-.15.96-.55 1.18-.82 1.3-2.05 1.43-3.3.11-1.08.22-2.18 1.04-3 1.58-1.6 2.8-.64 4 .3.64.5 1.28 1 1.96 1.1 2.55.36 3.06-1.06 3.62-2.59.36-1 .74-2.06 1.74-2.68 1.83-1.15 2.64-.05 3.43 1.01.5.68.98 1.33 1.7 1.39 1.01.08 2.52-1.1 3.85-2.14a11.6 11.6 0 0 1 2.1-1.44c2.27-.93 3.91.07 5.58 1.08 1.4.85 2.83 1.72 4.65 1.43l.83-.13c2.24-.37 3.11-.51 5.45.96a4.2 4.2 0 0 0 3.74.69c.6-.12 1.3-.25 2.26-.26 1.1 0 1.98.5 2.83.99.7.4 1.36.79 2.13.87.42.04.84-.16 1.26-.36.42-.2.84-.4 1.3-.38 1.83.11 2.69 1.5 3.55 2.88.67 1.08 1.34 2.15 2.46 2.66 1.62.72 3.44.24 5.17-.21.79-.2 1.55-.4 2.28-.5 3.96-.46 3.27 1.97 2.55 4.56a11.1 11.1 0 0 0-.6 3.26c1.15.27 2.3-.15 3.46-.57 1.1-.4 2.18-.8 3.27-.6 3.4.58 2.25 4.02 1.44 6.45l-.08.21c.64 0 1.54-.2 2.56-.42 2.86-.6 6.61-1.41 7.78 1.13.47 1.05 0 2.31-.44 3.54a7.17 7.17 0 0 0-.61 2.41c.02 1.53.7 2.9 1.4 4.27.45.91.9 1.82 1.17 2.78Z"/><path d="m186.36 73.6.47.33c1.76.99 3.15 10.9 3.22 14.69.04 2.34.08 11.25-2.4 10.48-.75-.23-1.9-4.95-2.06-7.72-.16-2.76-1.74-12.16-4.14-16.49-.13-.23-.32-.51-.53-.8-.65-.96-1.44-2.12-.92-2.76.72-.88 1.43-.57 2.26-.2l.44.18c.87.35 2.77 1.68 3.66 2.3Z"/></g></g><g transform="translate(49 72)"><path fill-rule="evenodd" clip-rule="evenodd" d="M84.5 93.84c-11.5.38-16.64 5.88-20.5.29-2.91-4.2-1.7-11.26 1.01-15.23 3.86-5.65 9.1-2.92 14.95-3.56 1.6-.18 3.2-.62 4.54-1.34 1.36.72 2.95 1.16 4.55 1.34 5.85.64 11.09-2.09 14.94 3.56 2.72 3.97 3.93 11.03 1.03 15.23-3.87 5.6-9-.67-20.52-.29ZM140.4 26c-3.43 14.07-5 28.43-7.5 42.67-.5 2.97-1.07 5.93-1.68 8.88-.12.62-.25 2.92-.86 3.21-1.85.89-5.62-3.81-6.63-4.87-2.53-2.67-5.05-5.36-8.13-7.45a43.7 43.7 0 0 0-21.13-7.32c-3.18-.25-7.47.18-10.47 2-3-1.82-7.3-2.25-10.47-2-7.6.6-14.9 3.1-21.13 7.32-3.09 2.09-5.6 4.78-8.13 7.45-1 1.06-4.78 5.76-6.63 4.87-.61-.29-.74-2.6-.86-3.21-.6-2.95-1.17-5.91-1.7-8.88-2.47-14.24-4.05-28.6-7.47-42.67-1 0-1.87 18.75-1.98 20.5-.46 7.09-.98 14.03-.3 21.13 1.16 12.24 2.37 27.6 11.7 36.96 8.44 8.45 20.68 10.22 31.24 15.55 1.36.69 3.16 1.54 5.1 2.23 2.06 1.56 6.12 2.63 10.8 2.63 4.91 0 9.15-1.17 11.08-2.86 1.7-.65 3.27-1.39 4.48-2 10.56-5.33 22.8-7.1 31.24-15.55 9.33-9.36 10.54-24.72 11.7-36.96.68-7.1.16-14.04-.3-21.14-.1-1.74-.98-20.5-1.98-20.5Z" fill="#c93305"/></g><g transform="translate(62 42)"><path fill-rule="evenodd" clip-rule="evenodd" d="M94.4 4.78c-3.08-3.09-6.28 3.86-7.78 5.65-3.6 4.32-7.08 8.75-10.75 13.02-7.25 8.43-14.43 16.92-21.64 25.4-1.09 1.28-.96 1.41-2.4 1.54-.94.08-2.27-.4-3.26-.46-2.75-.16-5.46.3-8.13.9-5.35 1.17-11.01 3.1-15.65 6.07-1.22.78-2 1.7-3.32 1.94-1.15.21-2.68-.21-3.85-.32-2.08-.2-5.08-1.05-7.12-.6-2.6.55-3.58 3.7-.94 5.08 2.01 1.06 6.01.48 8.26.64 2.58.2 1.8.06 1.43 2.52-.53 3.54.35 7.49 1.84 10.72 3.46 7.5 13.03 15.46 21.77 14.72 7.28-.6 13.67-7.19 16.66-13.5a30.75 30.75 0 0 0 2.73-10.47c.19-2.27.08-4.67-.57-6.87a16.5 16.5 0 0 0-1.37-3.2c-.44-.79-2.4-2.64-2.52-3.44-.23-1.56 4.18-5.73 5.03-6.78 3.97-4.91 7.96-9.8 11.9-14.75 3.88-4.87 7.79-9.73 11.77-14.51 1.8-2.17 10.83-10.37 7.9-13.3" fill="#28354B"/></g></g></g></svg>