<svg xmlns="http://www.w3.org/2000/svg" viewBox="0 0 280 280" fill="none" shape-rendering="auto"><metadata xmlns:rdf="http://www.w3.org/1999/02/22-rdf-syntax-ns#" xmlns:xsi="http://www.w3.org/2001/XMLSchema-instance" xmlns:dc="http://purl.org/dc/elements/1.1/" xmlns:dcterms="http://purl.org/dc/terms/"><rdf:RDF><rdf:Description><dc:title>Avataaars</dc:title><dc:creator>Pablo Stanley</dc:creator><dc:source xsi:type="dcterms:URI">https://avataaars.com/</dc:source><dcterms:license xsi:type="dcterms:URI">https://avataaars.com/</dcterms:license><dc:rights>Remix of „Avataaars” (https://avataaars.com/) by „Pablo Stanley”, licensed under „Free for personal and commercial use” (https://avataaars.com/)</dc:rights></rdf:Description></rdf:RDF></metadata><mask id="viewboxMask"><rect width="280" height="280" rx="0" ry="0" x="0" y="0" fill="#fff" /></mask><g mask="url(#viewboxMask)"><g transform="translate(8)"><path d="M132 36a56 56 0 0 0-56 56v6.17A12 12 0 0 0 66 110v14a12 12 0 0 0 10.3 11.88 56.04 56.04 0 0 0 31.7 44.73v18.4h-4a72 72 0 0 0-72 72v9h200v-9a72 72 0 0 0-72-72h-4v-18.39a56.04 56.04 0 0 0 31.7-44.73A12 12 0 0 0 198 124v-14a12 12 0 0 0-10-11.83V92a56 56 0 0 0-56-56Z" fill="#f8d25c"/><path d="M108 180.61v8a55.79 55.79 0 0 0 24 5.39c8.59 0 16.73-1.93 24-5.39v-8a55.79 55.79 0 0 1-24 5.39 55.79 55.79 0 0 1-24-5.39Z" fill="#000" fill-opacity=".1"/><g transform="translate(0 170)"><path d="M132.5 54C151 54 166 44.37 166 32.5c0-1.1-.13-2.18-.38-3.23A72 72 0 0 1 232 101.05V110H32v-8.95A72 72 0 0 1 99.4 29.2a14.1 14.1 0 0 0-.4 3.3C99 44.37 114 54 132.5 54Z" fill="#262e33"/><g transform="translate(77 58)"><path fill-rule="evenodd" clip-rule="evenodd" d="M87.69 13.4c-1.4-6.43-6.21-10.15-12.5-11.58-2.53-.58-10.92-2.4-9.61 2.4.6 2.18.26 3.97-1.55 5.77-1.77 1.76-5.24 2.2-6.96-.01-1.47-1.9.43-4.72-.72-6.57-.44-.71-1.21-1.08-2.03-.73-1.14.5-.53 1.56-1.07 2.32-.85 1.2-1.24.83-2-.37-.49-.76-.02-1.58-1.26-1.9-1.43-.37-1.9.83-2.03 1.92-.08.69.32 1.8.34 2.5.03 1.35-.1 3.31-.73 4.52-1.12 2.14-2.7 1.45-4.38.1-1.98-1.6-2.56-3.39-2.18-5.82.46-2.92.3-5.71-3.28-3.89-5.02 2.57-9.68 7.14-12.59 11.92-2.44 4.02-4.36 8.9-2.2 13.48 2.21 4.67 5.86 8.69 10.97 9.88 1.32.3 5.09 1.81 6.34.55 1.95-1.96-2.54-3.78-3.43-4.97-1.26-1.7-2.34-4.92-.96-6.83 1.76-2.43 3.6-1.08 5.05.64 1.13 1.35 2.75 4.82 4.5 2.02 1.21-1.93 1.1-5.1 4.4-3.72 4.73 1.98 4.87 11.12 5.71 15.3.37 1.82 2.04 4.06 3.47 1.52.8-1.4.37-4.42.22-5.86-.3-2.99-1.08-5.92-.1-8.88.55-1.71 2-4.16 4.12-2.84 1.73 1.06 1 5.81 3.35 5.8 2.07 0 1.5-3.79 2.6-5.04 1.69-1.9 4.92-1 5.92 1.25 1.33 3.03-2.2 5.13-2.05 7.79.16 2.59 3.5 1.58 4.9.92 2.87-1.35 5.11-3.85 6.67-6.57 2.4-4.2 4.13-10.22 3.08-15.03" fill="#fff"/></g></g><g transform="translate(78 134)"><rect x="22" y="7" width="64" height="26" rx="13" fill="#000" fill-opacity=".6"/><rect x="24" y="9" width="60" height="22" rx="11" fill="#fff"/><path d="M24.18 18H32V9.41A11 11 0 0 1 35 9h1v9h9V9h4v9h9V9h4v9h9V9h2c.68 0 1.35.06 2 .18V18h8.82l.05.28v3.44l-.05.28H75v8.82c-.65.12-1.32.18-2 .18h-2v-9h-9v9h-4v-9h-9v9h-4v-9h-9v9h-1a11 11 0 0 1-3-.41V22h-7.82a11.06 11.06 0 0 1 0-4Z" fill="#E6E6E6"/></g><g transform="translate(104 122)"><path fill-rule="evenodd" clip-rule="evenodd" d="M16 8c0 4.42 5.37 8 12 8s12-3.58 12-8" fill="#000" fill-opacity=".16"/></g><g transform="translate(76 90)"><path d="M44 22a14 14 0 1 1-28 0 14 14 0 0 1 28 0ZM96 22a14 14 0 1 1-28 0 14 14 0 0 1 28 0Z" fill="#fff"/><path d="M36 22a6 6 0 1 1-12 0 6 6 0 0 1 12 0ZM88 22a6 6 0 1 1-12 0 6 6 0 0 1 12 0Z" fill="#000" fill-opacity=".7"/></g><g transform="translate(76 82)"><path d="M15.6 14.16c4.49-6.32 14-9.5 23.75-6.36a2 2 0 1 0 1.23-3.81c-11.41-3.68-22.74.1-28.25 7.85a2 2 0 1 0 3.26 2.32ZM96.38 21.16c-3.92-5.51-14.65-8.6-23.9-6.33a2 2 0 0 1-.95-3.88c10.74-2.64 23.17.94 28.1 7.9a2 2 0 1 1-3.25 2.3Z" fill="#000" fill-opacity=".6"/></g><g transform="translate(-1)"><path d="M177.75 37.86c9.52 7.1 17.76 18.58 18.16 30.82.17 5.5-.62 11.23-1.73 16.62-.5 2.46-1.6 4.66-2.7 6.85-1.07 2.12-2.13 4.24-2.64 6.58-2.63-8.93-10.09-13.97-17.5-19-3.96-2.66-7.9-5.33-11.1-8.58 1.02 1.93 2.3 3.7 3.6 5.46 1.23 1.7 2.47 3.4 3.45 5.22-9.24-5.66-18.2-13.88-22.03-24.3a29.46 29.46 0 0 1-6.1 14.67c-3.02 3.8-7.59 7.87-12.3 9.34 2.43-5.5 4.5-11.21 6.4-16.92-1.78 2.31-7.21 11.29-9.6 15.23l-.77 1.26a73.9 73.9 0 0 1-10.47 13.35c-.5.53-1.42 1.52-.67.54-1.85 2.35-4.45 4.26-6.9 6.07l-1.4 1.04a51.67 51.67 0 0 1-9.2 5.48c-7.1 3.31-14.38 4.54-22.11 3.2.9.1 2.35-.4 3.53-.82a20 20 0 0 1 1.22-.4c1.8-.5 3.47-1.12 5.11-2.02a53.85 53.85 0 0 0 9.18-6.42c-1.37.58-2.6 1.42-3.84 2.27-1.23.83-2.46 1.67-3.83 2.27-2.28 1-4.54 1.53-7.03 1.77-5.46.53-12-.72-16.72-3.6-5.5-3.32-8.54-9.04-9.99-15.13-1.68-7.06-.63-15.04 3.33-21.07.13 2.14 4.43 3.06 7.92 2.53 3.77-.59 6.95-6.52 10.9-13.93 6.19-11.55 14.28-26.67 29.52-30.64 19.96-5.2 34.21 3.87 35.42 4.66 1.22.78 1.8.63 2.93.32l.68-.17c6.35-1.52 13.26-2.2 19.7-.92 6.35 1.26 12.43 4.54 17.57 8.38ZM71.93 110.75l.2.04a1.6 1.6 0 0 1-.2-.04ZM79 156.2c.8-1.53 1.57-3.06 2.32-4.6A56.2 56.2 0 0 0 109 180.6v9.01a54.4 54.4 0 0 1-7.73 1.97c-9 1.62-34.32-3.53-45.44-11.98-.85-.65-.42-1.92.67-2 11.66-.8 17.63-12.13 22.4-21.2l.1-.2ZM157 183.05v-2.44c6.95-3.3 13.11-8 18.13-13.71.71 2.24 1.75 4.33 3.43 5.79 1.32 1.14 3.48 1.12 5.34 1.1l1.2.01c1.67.05 3.34.06 5.02-.02.83-.03 1.2 1.02.53 1.5a39.2 39.2 0 0 1-3.64 2.07 29.3 29.3 0 0 1-7.98 2.74c-1.92.34-3.82.4-5.66.18a9.84 9.84 0 0 0 1.7 1.94c1.41 1.22 3.72 1.2 5.7 1.19h1.28c1.79.05 3.58.06 5.36-.02.9-.04 1.3 1.09.57 1.6a41.97 41.97 0 0 1-3.88 2.22 31.24 31.24 0 0 1-8.53 2.92c-5.5.97-10.86-.18-15.19-3.7a24.9 24.9 0 0 1-3.38-3.37Z" fill="#a55728"/><path d="M81.32 151.6c-.75 1.54-1.51 3.07-2.31 4.6l-.1.18c-4.77 9.08-10.74 20.42-22.4 21.22-1.09.07-1.52 1.34-.67 1.99 11.12 8.45 36.43 13.6 45.44 11.98a54.4 54.4 0 0 0 7.73-1.96v-8.99a56.2 56.2 0 0 1-27.68-29ZM157 180.61v2.44a24.9 24.9 0 0 0 3.38 3.36c4.33 3.53 9.7 4.68 15.2 3.71a31.24 31.24 0 0 0 8.51-2.92 41.97 41.97 0 0 0 3.89-2.22c.72-.51.32-1.64-.57-1.6-1.78.08-3.57.07-5.35.02h-1.29c-1.98.01-4.29.03-5.7-1.2a9.84 9.84 0 0 1-1.7-1.93c1.84.22 3.74.16 5.66-.18a29.3 29.3 0 0 0 7.98-2.73 39.2 39.2 0 0 0 3.64-2.08c.68-.48.3-1.53-.53-1.5a69.9 69.9 0 0 1-5.02.02h-1.2c-1.86.01-4.02.03-5.34-1.11-1.69-1.46-2.72-3.55-3.43-5.8A56.18 56.18 0 0 1 157 180.62Z" fill="#000" fill-opacity=".16"/></g><g transform="translate(49 72)"></g><g transform="translate(62 42)"></g></g></g></svg>