<svg xmlns="http://www.w3.org/2000/svg" viewBox="0 0 280 280" fill="none" shape-rendering="auto"><metadata xmlns:rdf="http://www.w3.org/1999/02/22-rdf-syntax-ns#" xmlns:xsi="http://www.w3.org/2001/XMLSchema-instance" xmlns:dc="http://purl.org/dc/elements/1.1/" xmlns:dcterms="http://purl.org/dc/terms/"><rdf:RDF><rdf:Description><dc:title>Avataaars</dc:title><dc:creator>Pablo Stanley</dc:creator><dc:source xsi:type="dcterms:URI">https://avataaars.com/</dc:source><dcterms:license xsi:type="dcterms:URI">https://avataaars.com/</dcterms:license><dc:rights>Remix of „Avataaars” (https://avataaars.com/) by „Pablo Stanley”, licensed under „Free for personal and commercial use” (https://avataaars.com/)</dc:rights></rdf:Description></rdf:RDF></metadata><mask id="viewboxMask"><rect width="280" height="280" rx="0" ry="0" x="0" y="0" fill="#fff" /></mask><g mask="url(#viewboxMask)"><g transform="translate(8)"><path d="M132 36a56 56 0 0 0-56 56v6.17A12 12 0 0 0 66 110v14a12 12 0 0 0 10.3 11.88 56.04 56.04 0 0 0 31.7 44.73v18.4h-4a72 72 0 0 0-72 72v9h200v-9a72 72 0 0 0-72-72h-4v-18.39a56.04 56.04 0 0 0 31.7-44.73A12 12 0 0 0 198 124v-14a12 12 0 0 0-10-11.83V92a56 56 0 0 0-56-56Z" fill="#614335"/><path d="M108 180.61v8a55.79 55.79 0 0 0 24 5.39c8.59 0 16.73-1.93 24-5.39v-8a55.79 55.79 0 0 1-24 5.39 55.79 55.79 0 0 1-24-5.39Z" fill="#000" fill-opacity=".1"/><g transform="translate(0 170)"><path d="M196 38.63V110H68V38.63a71.52 71.52 0 0 1 26-8.94v44.3h76V29.69a71.52 71.52 0 0 1 26 8.94Z" fill="#ff5c5c"/><path d="M86 83a5 5 0 1 1-10 0 5 5 0 0 1 10 0ZM188 83a5 5 0 1 1-10 0 5 5 0 0 1 10 0Z" fill="#F4F4F4"/></g><g transform="translate(78 134)"><rect x="22" y="7" width="64" height="26" rx="13" fill="#000" fill-opacity=".6"/><rect x="24" y="9" width="60" height="22" rx="11" fill="#fff"/><path d="M24.18 18H32V9.41A11 11 0 0 1 35 9h1v9h9V9h4v9h9V9h4v9h9V9h2c.68 0 1.35.06 2 .18V18h8.82l.05.28v3.44l-.05.28H75v8.82c-.65.12-1.32.18-2 .18h-2v-9h-9v9h-4v-9h-9v9h-4v-9h-9v9h-1a11 11 0 0 1-3-.41V22h-7.82a11.06 11.06 0 0 1 0-4Z" fill="#E6E6E6"/></g><g transform="translate(104 122)"><path fill-rule="evenodd" clip-rule="evenodd" d="M16 8c0 4.42 5.37 8 12 8s12-3.58 12-8" fill="#000" fill-opacity=".16"/></g><g transform="translate(76 90)"><g fill="#000" fill-opacity=".6"><path d="M36 22a6 6 0 1 1-12 0 6 6 0 0 1 12 0Z"/><path fill-rule="evenodd" clip-rule="evenodd" d="M70.6 24.96c1.59-3.92 5.55-6.86 10.37-7.2 4.8-.33 9.12 2 11.24 5.64.63 1.09-.1 2.06-.93 1.43-2.6-1.93-6.15-3-10-2.73A15.13 15.13 0 0 0 71.95 26c-.84.78-1.81.1-1.35-1.04Z"/></g></g><g transform="translate(76 82)"><path d="M44.1 17.12ZM19.27 5.01a7.16 7.16 0 0 0-6.42 2.43c-.6.73-1.56 2.48-1.51 3.42.02.35.22.37 1.12.59 1.65.39 4.5-1.12 6.36-.98 2.58.2 5.04 1.4 7.28 2.68 3.84 2.2 8.35 6.84 13.1 6.6.35-.02 5.41-1.74 4.4-2.72-.31-.49-3.03-1.13-3.5-1.36-2.17-1.09-4.37-2.45-6.44-3.72C29.14 9.18 24.72 5.6 19.28 5ZM68.03 17.12ZM92.91 5.01c2.36-.27 4.85.5 6.42 2.43.6.73 1.56 2.48 1.51 3.42-.02.35-.22.37-1.12.59-1.65.39-4.5-1.12-6.36-.98-2.58.2-5.04 1.4-7.28 2.68-3.84 2.2-8.35 6.84-13.1 6.6-.35-.02-5.41-1.74-4.4-2.72.31-.49 3.03-1.13 3.5-1.36 2.17-1.09 4.36-2.45 6.44-3.72C83.05 9.18 87.46 5.6 92.91 5Z" fill-rule="evenodd" clip-rule="evenodd" fill="#000" fill-opacity=".6"/></g><g transform="translate(-1)"><path fill-rule="evenodd" clip-rule="evenodd" d="M167.3 35c-20.18-11.7-40.17-9.78-55.26-5.97-15.1 3.8-24.02 14.62-31.68 30.62a67.68 67.68 0 0 0-6.34 25.83c-.13 3.41.33 6.94 1.25 10.22.33 1.2 2.15 5.39 2.65 2 .17-1.12-.44-2.67-.5-3.86-.08-1.57 0-3.16.11-4.73.2-2.92.73-5.8 1.65-8.59 1.33-3.98 3.02-8.3 5.6-11.67 6.4-8.33 17.49-8.8 26.29-13.39-.77 1.4-3.7 3.68-2.7 5.27.71 1.1 3.38.76 4.65.72 3.35-.09 6.72-.67 10.02-1.14a71.5 71.5 0 0 0 15-4.1c4.02-1.5 8.61-2.88 11.63-6.07a68.67 68.67 0 0 0 17.4 13c5.62 2.88 14.68 4.32 18.11 10.16 4.07 6.91 2.2 15.4 3.44 22.9.47 2.85 1.54 2.79 2.13.24 1-4.33 1.47-8.83 1.15-13.28-.72-10.05-4.4-36.45-24.6-48.15Z" fill="#2c1b18"/></g><g transform="translate(49 72)"><path fill-rule="evenodd" clip-rule="evenodd" d="M101.43 98.17c-2.52 2.3-5.2 3.32-8.58 2.6-.58-.12-2.95-4.54-8.85-4.54-5.9 0-8.27 4.42-8.85 4.54-3.39.72-6.07-.3-8.58-2.6-4.72-4.31-8.65-10.26-6.3-16.75 1.24-3.38 3.24-7.1 6.88-8.17 3.89-1.15 9.35 0 13.26-.8A8.6 8.6 0 0 0 84 71a8.6 8.6 0 0 0 3.58 1.46c3.92.78 9.38-.36 13.27.79 3.64 1.07 5.64 4.79 6.87 8.17 2.36 6.49-1.57 12.44-6.3 16.75ZM140.08 26c-3.4 8.4-2.1 18.86-2.72 27.68-.52 7.16-2.02 17.9-8.39 22.53-3.25 2.37-9.18 6.35-13.43 5.24-2.93-.76-3.24-9.16-7.09-12.3a22.42 22.42 0 0 0-15.3-4.9c-2.37.11-7.17.09-9.15 1.91-1.98-1.82-6.78-1.8-9.15-1.9a22.42 22.42 0 0 0-15.3 4.89c-3.85 3.14-4.16 11.54-7.1 12.3-4.24 1.1-10.17-2.87-13.42-5.24-6.37-4.62-7.87-15.37-8.39-22.53-.63-8.82.69-19.28-2.72-27.68-1.66 0-.57 16.13-.57 16.13v20.36c.04 15.28 9.59 38.16 30.76 46.9C63.29 111.53 75 115 84 115c8.98.01 20.71-3.13 25.9-5.27 21.16-8.73 30.71-31.95 30.75-47.23V42.13s1.1-16.13-.57-16.13Z" fill="#f59797"/></g><g transform="translate(62 42)"></g></g></g></svg>