<svg xmlns="http://www.w3.org/2000/svg" viewBox="0 0 280 280" fill="none" shape-rendering="auto"><metadata xmlns:rdf="http://www.w3.org/1999/02/22-rdf-syntax-ns#" xmlns:xsi="http://www.w3.org/2001/XMLSchema-instance" xmlns:dc="http://purl.org/dc/elements/1.1/" xmlns:dcterms="http://purl.org/dc/terms/"><rdf:RDF><rdf:Description><dc:title>Avataaars</dc:title><dc:creator>Pablo Stanley</dc:creator><dc:source xsi:type="dcterms:URI">https://avataaars.com/</dc:source><dcterms:license xsi:type="dcterms:URI">https://avataaars.com/</dcterms:license><dc:rights>Remix of „Avataaars” (https://avataaars.com/) by „Pablo Stanley”, licensed under „Free for personal and commercial use” (https://avataaars.com/)</dc:rights></rdf:Description></rdf:RDF></metadata><mask id="viewboxMask"><rect width="280" height="280" rx="0" ry="0" x="0" y="0" fill="#fff" /></mask><g mask="url(#viewboxMask)"><g transform="translate(8)"><path d="M132 36a56 56 0 0 0-56 56v6.17A12 12 0 0 0 66 110v14a12 12 0 0 0 10.3 11.88 56.04 56.04 0 0 0 31.7 44.73v18.4h-4a72 72 0 0 0-72 72v9h200v-9a72 72 0 0 0-72-72h-4v-18.39a56.04 56.04 0 0 0 31.7-44.73A12 12 0 0 0 198 124v-14a12 12 0 0 0-10-11.83V92a56 56 0 0 0-56-56Z" fill="#f8d25c"/><path d="M108 180.61v8a55.79 55.79 0 0 0 24 5.39c8.59 0 16.73-1.93 24-5.39v-8a55.79 55.79 0 0 1-24 5.39 55.79 55.79 0 0 1-24-5.39Z" fill="#000" fill-opacity=".1"/><g transform="translate(0 170)"><path d="M132.5 54C151 54 166 44.37 166 32.5c0-1.1-.13-2.18-.38-3.23A72 72 0 0 1 232 101.05V110H32v-8.95A72 72 0 0 1 99.4 29.2a14.1 14.1 0 0 0-.4 3.3C99 44.37 114 54 132.5 54Z" fill="#5199e4"/><g transform="translate(77 58)"><path fill-rule="evenodd" clip-rule="evenodd" d="M76.74 17.44a16.78 16.78 0 0 1 2.15 7.86v.22c-.1 10.22-13.6 16.85-22.48 17.35-.63.03-1.26.05-1.89.05h-.01c-10.08 0-19.56-4.55-22.54-14.85a13.8 13.8 0 0 1-.52-3.81c0-3.36 1.12-6.83 3.15-9.4.24-.3.54-.6.83-.88.37-.36.74-.72 1-1.1.47-.71.64-.7.67-.75.02-.04-.09-.15-.18-.98-.06-.5-.22-.93-.38-1.37-.22-.58-.43-1.17-.41-1.88.05-2.4 1.76-5.08 4.05-5.95a5.95 5.95 0 0 1 3.96.08c.6.2 1.18.67 1.75 1.13.58.46 1.13.9 1.64 1.04.97.24 2.83-.14 4.47-.47.96-.2 1.84-.38 2.44-.41a34 34 0 0 1 4.2-.03c.27.01.72.11 1.2.23.84.19 1.8.4 2.23.27.45-.13.92-.5 1.4-.9.48-.4.98-.81 1.5-1a8.6 8.6 0 0 1 3.2-.45c2.34.13 5 1.18 6 3.42.8 1.8.24 3.3-.34 4.87-.2.53-.4 1.06-.55 1.62-.2.7-.31.85-.3.96.03.11.2.2.55.82.07.13.34.44.6.74l.42.48c.8.97 1.57 1.99 2.19 3.08ZM58.3 36.97c3.07 2.96 6.67-1.57 7.15-4.38.84-10.07-15.07-8.75-19.23-3-2.1 2.89-.61 6.8 2.58 8.2 1.4.61 2.58.9 3.58-.05.8-.76 1.03-3.52.5-4.27-.29-.39-.67-.5-1.05-.6-.55-.16-1.1-.32-1.35-1.3-.57-2.16 1.8-2.5 3.3-2.61l.97-.1c1.69-.2 4.05-.48 5.03.5 1.3 1.33.26 2.35-.83 3.42-1.21 1.18-2.47 2.42-.65 4.18Zm-9.58-20.46c-.59-.98-1.75-1.22-2.73-.78-1.82.83-.96 3.52.75 3.75 1.62.21 2.78-1.6 1.98-2.96Zm15.23.88c-.86 3-5.64-.38-2.94-2.3 1.55-1.09 3.45.5 2.94 2.3Z" fill="#fff"/></g></g><g transform="translate(78 134)"><path fill-rule="evenodd" clip-rule="evenodd" d="M35.12 15.13a19 19 0 0 0 37.77-.09c.08-.77-.77-2.04-1.85-2.04H37.1C36 13 35 14.18 35.12 15.13Z" fill="#000" fill-opacity=".7"/><path d="M70 13H39a5 5 0 0 0 5 5h21a5 5 0 0 0 5-5Z" fill="#fff"/><path d="M66.7 27.14A10.96 10.96 0 0 0 54 25.2a10.95 10.95 0 0 0-12.7 1.94A18.93 18.93 0 0 0 54 32c4.88 0 9.33-1.84 12.7-4.86Z" fill="#FF4F6D"/></g><g transform="translate(104 122)"><path fill-rule="evenodd" clip-rule="evenodd" d="M16 8c0 4.42 5.37 8 12 8s12-3.58 12-8" fill="#000" fill-opacity=".16"/></g><g transform="translate(76 90)"><circle cx="82" cy="22" r="12" fill="#fff"/><circle cx="82" cy="22" r="6" fill="#000" fill-opacity=".7"/><path fill-rule="evenodd" clip-rule="evenodd" d="M16.16 25.45c1.85-3.8 6-6.45 10.84-6.45 4.81 0 8.96 2.63 10.82 6.4.55 1.13-.24 2.05-1.03 1.37a15.05 15.05 0 0 0-9.8-3.43c-3.73 0-7.12 1.24-9.55 3.23-.9.73-1.82-.01-1.28-1.12Z" fill="#000" fill-opacity=".6"/></g><g transform="translate(76 82)"><path d="M15.6 14.16c4.49-6.32 14-9.5 23.75-6.36a2 2 0 1 0 1.23-3.81c-11.41-3.68-22.74.1-28.25 7.85a2 2 0 1 0 3.26 2.32ZM96.38 21.16c-3.92-5.51-14.65-8.6-23.9-6.33a2 2 0 0 1-.95-3.88c10.74-2.64 23.17.94 28.1 7.9a2 2 0 1 1-3.25 2.3Z" fill="#000" fill-opacity=".6"/></g><g transform="translate(-1)"><path d="M67 65c0-8.16 1.6-15.95 4.5-23.06-3.86-8.95-8.33-22.96-3.86-32.82 8-2.43 17.8 1.33 25.63 5.73A60.72 60.72 0 0 1 128 4h10c12.91 0 24.9 4.01 34.75 10.86 7.84-4.4 17.66-8.17 25.67-5.74 4.47 9.88-.03 23.94-3.9 32.88A60.83 60.83 0 0 1 199 65v8H67v-8Z" fill="#25557c"/><path d="M194.52 42c3.87-8.94 8.37-23 3.9-32.88-8.01-2.43-17.83 1.34-25.66 5.74A61.21 61.21 0 0 1 194.51 42ZM93.27 14.85c-7.83-4.4-17.63-8.16-25.63-5.73-4.47 9.86 0 23.87 3.87 32.82 4.5-11 12.12-20.4 21.76-27.1Z" fill="#000" fill-opacity=".24"/><path d="M190.2 33.42c1.99-6 3.5-12.86 1.49-16.1-2.67-1.16-7.59.47-12.4 2.77a61.28 61.28 0 0 1 10.9 13.33ZM86.66 20.14c-4.92-2.38-10-4.11-12.73-2.93-2.06 3.33-.42 10.47 1.64 16.59a61.28 61.28 0 0 1 11.1-13.66Z" fill="#fff" fill-opacity=".3"/><path fill-rule="evenodd" clip-rule="evenodd" d="M64 69.77a7.05 7.05 0 0 1 3.05-5.96c7.8-5.18 30.42-17.8 66.02-17.8 35.6 0 58.14 12.62 65.9 17.81a7.04 7.04 0 0 1 3.03 5.95v30.2c0 3.3-3.9 5.38-6.78 3.75C184.84 97.83 163.1 88 133.8 88a133.57 133.57 0 0 0-63.17 15.98c-2.85 1.56-6.63-.5-6.63-3.75V69.77Z" fill="#000" fill-opacity=".1"/><path fill-rule="evenodd" clip-rule="evenodd" d="M64 67.77a7.05 7.05 0 0 1 3.05-5.96c7.8-5.18 30.42-17.8 66.02-17.8 35.6 0 58.14 12.62 65.9 17.81a7.04 7.04 0 0 1 3.03 5.95v30.2c0 3.3-3.9 5.38-6.78 3.75C184.84 95.83 163.1 86 133.8 86a133.57 133.57 0 0 0-63.17 15.98c-2.85 1.56-6.63-.5-6.63-3.75V67.77Z" fill="#F4F4F4"/></g><g transform="translate(49 72)"></g><g transform="translate(62 42)"><g fill-rule="evenodd" clip-rule="evenodd"><path d="M40 96a24 24 0 0 1-22.96-31H10.5a2.5 2.5 0 0 1 0-5h8c.23 0 .45.03.66.09a24 24 0 0 1 42.26 1.06A11.36 11.36 0 0 1 70.86 56c4.01 0 7.55 2.14 9.6 5.4a24 24 0 0 1 42.38-1.31c.2-.06.43-.1.66-.1h8a2.5 2.5 0 1 1 0 5h-6.54a24 24 0 1 1-46.6 2.83c-.08-4.37-3.45-7.83-7.5-7.83-3.73 0-6.89 2.94-7.42 6.83A24 24 0 0 1 40 96Zm0-4a20 20 0 1 0 0-40 20 20 0 0 0 0 40Zm82-20a20 20 0 1 1-40 0 20 20 0 0 1 40 0Z" fill="#000" fill-opacity=".1"/><path d="M40 94a24 24 0 0 1-22.96-31H10.5a2.5 2.5 0 0 1 0-5h8c.23 0 .45.03.66.09a24 24 0 0 1 42.26 1.06A11.36 11.36 0 0 1 70.86 54c4.01 0 7.55 2.14 9.6 5.4a24 24 0 0 1 42.38-1.31c.2-.06.43-.1.66-.1h8a2.5 2.5 0 1 1 0 5h-6.54a24 24 0 1 1-46.6 2.84c-.08-4.37-3.45-7.83-7.5-7.83-3.73 0-6.89 2.94-7.42 6.83A24 24 0 0 1 40 94Zm0-4a20 20 0 1 0 0-40 20 20 0 0 0 0 40Zm82-20a20 20 0 1 1-40 0 20 20 0 0 1 40 0Z" fill="#ff488e"/></g></g></g></g></svg>