<svg xmlns="http://www.w3.org/2000/svg" viewBox="0 0 280 280" fill="none" shape-rendering="auto"><metadata xmlns:rdf="http://www.w3.org/1999/02/22-rdf-syntax-ns#" xmlns:xsi="http://www.w3.org/2001/XMLSchema-instance" xmlns:dc="http://purl.org/dc/elements/1.1/" xmlns:dcterms="http://purl.org/dc/terms/"><rdf:RDF><rdf:Description><dc:title>Avataaars</dc:title><dc:creator>Pablo Stanley</dc:creator><dc:source xsi:type="dcterms:URI">https://avataaars.com/</dc:source><dcterms:license xsi:type="dcterms:URI">https://avataaars.com/</dcterms:license><dc:rights>Remix of „Avataaars” (https://avataaars.com/) by „Pablo Stanley”, licensed under „Free for personal and commercial use” (https://avataaars.com/)</dc:rights></rdf:Description></rdf:RDF></metadata><mask id="viewboxMask"><rect width="280" height="280" rx="0" ry="0" x="0" y="0" fill="#fff" /></mask><g mask="url(#viewboxMask)"><g transform="translate(8)"><path d="M132 36a56 56 0 0 0-56 56v6.17A12 12 0 0 0 66 110v14a12 12 0 0 0 10.3 11.88 56.04 56.04 0 0 0 31.7 44.73v18.4h-4a72 72 0 0 0-72 72v9h200v-9a72 72 0 0 0-72-72h-4v-18.39a56.04 56.04 0 0 0 31.7-44.73A12 12 0 0 0 198 124v-14a12 12 0 0 0-10-11.83V92a56 56 0 0 0-56-56Z" fill="#ffdbb4"/><path d="M108 180.61v8a55.79 55.79 0 0 0 24 5.39c8.59 0 16.73-1.93 24-5.39v-8a55.79 55.79 0 0 1-24 5.39 55.79 55.79 0 0 1-24-5.39Z" fill="#000" fill-opacity=".1"/><g transform="translate(0 170)"><path d="M108 14.7c-15.52 3.68-27.1 10.83-30.77 19.44A72.02 72.02 0 0 0 32 101v9h200v-9a72.02 72.02 0 0 0-45.23-66.86C183.1 25.53 171.52 18.38 156 14.7V32a24 24 0 1 1-48 0V14.7Z" fill="#65c9ff"/><path d="M102 63.34a67.1 67.1 0 0 1-7-2.82V110h7V63.34ZM162 63.34a67.04 67.04 0 0 0 7-2.82V98.5a3.5 3.5 0 1 1-7 0V63.34Z" fill="#F4F4F4"/><path d="M187.62 34.49a71.79 71.79 0 0 1 10.83 5.63C197.11 55.62 167.87 68 132 68c30.93 0 56-13.43 56-30 0-1.19-.13-2.36-.38-3.51ZM76.38 34.49a16.48 16.48 0 0 0-.38 3.5c0 16.58 25.07 30 56 30-35.87 0-65.1-12.38-66.45-27.88a71.79 71.79 0 0 1 10.83-5.63Z" fill="#000" fill-opacity=".16"/></g><g transform="translate(78 134)"><path fill-rule="evenodd" clip-rule="evenodd" d="M35.12 29.87a19 19 0 0 1 37.77.09c.08.77-.77 2.04-1.85 2.04H37.1C36 32 35 30.82 35.12 29.87Z" fill="#000" fill-opacity=".7"/><path d="M69.59 32H38.4a11 11 0 0 1 15.6-6.8A11 11 0 0 1 69.59 32Z" fill="#FF4F6D"/><path d="M66.57 17.75A5 5 0 0 1 65 18H44c-.8 0-1.57-.2-2.24-.53A18.92 18.92 0 0 1 54 13c4.82 0 9.22 1.8 12.57 4.75Z" fill="#fff"/></g><g transform="translate(104 122)"><path fill-rule="evenodd" clip-rule="evenodd" d="M16 8c0 4.42 5.37 8 12 8s12-3.58 12-8" fill="#000" fill-opacity=".16"/></g><g transform="translate(76 90)"><g fill="#000" fill-opacity=".6"><path d="M36 22a6 6 0 1 1-12 0 6 6 0 0 1 12 0Z"/><path fill-rule="evenodd" clip-rule="evenodd" d="M70.6 24.96c1.59-3.92 5.55-6.86 10.37-7.2 4.8-.33 9.12 2 11.24 5.64.63 1.09-.1 2.06-.93 1.43-2.6-1.93-6.15-3-10-2.73A15.13 15.13 0 0 0 71.95 26c-.84.78-1.81.1-1.35-1.04Z"/></g></g><g transform="translate(76 82)"><path d="M36.37 6.88c-1.97 2.9-5.55 4.64-8.74 5.68-3.94 1.29-18.55 3.38-15.11 11.35.05.12.22.12.27 0 1.15-2.65 17.47-5.12 18.97-5.7 4.45-1.71 8.4-5.5 9.17-10.55.35-2.31-.64-6.05-1.55-7.55-.11-.18-.37-.13-.43.07-.36 1.33-1.41 4.97-2.58 6.7ZM75.63 6.88c1.97 2.9 5.55 4.64 8.74 5.68 3.94 1.29 18.55 3.38 15.11 11.35a.15.15 0 0 1-.27 0c-1.15-2.65-17.47-5.12-18.97-5.7-4.45-1.71-8.4-5.5-9.17-10.55-.35-2.31.64-6.05 1.55-7.55.11-.18.37-.13.43.07.36 1.33 1.41 4.97 2.58 6.7Z" fill-rule="evenodd" clip-rule="evenodd" fill="#000" fill-opacity=".6"/></g><g transform="translate(-1)"><path d="M40 145c-.62-30.84 28.32-95.2 39-108 7.92-9.5 29.7-17.45 54-17 24.3.45 46.86 5.81 55 16 12.32 15.43 37.87 74.08 38 109 .1 24.8-9.54 49.66-23 51-7.6.76-17.26-.23-28.86-1.4-5.3-.55-11.02-1.13-17.14-1.6V180.6A56 56 0 0 0 189 130v-28.44a130.34 130.34 0 0 1-26.9-19.88c3.35 6.24 7.19 11.9 11.51 16.2-30.57-8.59-51.71-26.16-64.38-39.94C103.39 69.02 92.96 85.23 77 97.57V130a56 56 0 0 0 32 50.61v13.14c-6.95.95-13.41 2.16-19.36 3.27-10.85 2.02-19.98 3.73-27.26 2.98-14.22-1.47-21.88-30.2-22.38-55Z" fill="#ecdcbf"/></g><g transform="translate(49 72)"></g><g transform="translate(62 42)"><g fill-rule="evenodd" clip-rule="evenodd"><path d="M40 96a24 24 0 0 1-22.96-31H10.5a2.5 2.5 0 0 1 0-5h8c.23 0 .45.03.66.09a24 24 0 0 1 42.26 1.06A11.36 11.36 0 0 1 70.86 56c4.01 0 7.55 2.14 9.6 5.4a24 24 0 0 1 42.38-1.31c.2-.06.43-.1.66-.1h8a2.5 2.5 0 1 1 0 5h-6.54a24 24 0 1 1-46.6 2.83c-.08-4.37-3.45-7.83-7.5-7.83-3.73 0-6.89 2.94-7.42 6.83A24 24 0 0 1 40 96Zm0-4a20 20 0 1 0 0-40 20 20 0 0 0 0 40Zm82-20a20 20 0 1 1-40 0 20 20 0 0 1 40 0Z" fill="#000" fill-opacity=".1"/><path d="M40 94a24 24 0 0 1-22.96-31H10.5a2.5 2.5 0 0 1 0-5h8c.23 0 .45.03.66.09a24 24 0 0 1 42.26 1.06A11.36 11.36 0 0 1 70.86 54c4.01 0 7.55 2.14 9.6 5.4a24 24 0 0 1 42.38-1.31c.2-.06.43-.1.66-.1h8a2.5 2.5 0 1 1 0 5h-6.54a24 24 0 1 1-46.6 2.84c-.08-4.37-3.45-7.83-7.5-7.83-3.73 0-6.89 2.94-7.42 6.83A24 24 0 0 1 40 94Zm0-4a20 20 0 1 0 0-40 20 20 0 0 0 0 40Zm82-20a20 20 0 1 1-40 0 20 20 0 0 1 40 0Z" fill="#e6e6e6"/></g></g></g></g></svg>