<svg xmlns="http://www.w3.org/2000/svg" viewBox="0 0 280 280" fill="none" shape-rendering="auto"><metadata xmlns:rdf="http://www.w3.org/1999/02/22-rdf-syntax-ns#" xmlns:xsi="http://www.w3.org/2001/XMLSchema-instance" xmlns:dc="http://purl.org/dc/elements/1.1/" xmlns:dcterms="http://purl.org/dc/terms/"><rdf:RDF><rdf:Description><dc:title>Avataaars</dc:title><dc:creator>Pablo Stanley</dc:creator><dc:source xsi:type="dcterms:URI">https://avataaars.com/</dc:source><dcterms:license xsi:type="dcterms:URI">https://avataaars.com/</dcterms:license><dc:rights>Remix of „Avataaars” (https://avataaars.com/) by „Pablo Stanley”, licensed under „Free for personal and commercial use” (https://avataaars.com/)</dc:rights></rdf:Description></rdf:RDF></metadata><mask id="viewboxMask"><rect width="280" height="280" rx="0" ry="0" x="0" y="0" fill="#fff" /></mask><g mask="url(#viewboxMask)"><g transform="translate(8)"><path d="M132 36a56 56 0 0 0-56 56v6.17A12 12 0 0 0 66 110v14a12 12 0 0 0 10.3 11.88 56.04 56.04 0 0 0 31.7 44.73v18.4h-4a72 72 0 0 0-72 72v9h200v-9a72 72 0 0 0-72-72h-4v-18.39a56.04 56.04 0 0 0 31.7-44.73A12 12 0 0 0 198 124v-14a12 12 0 0 0-10-11.83V92a56 56 0 0 0-56-56Z" fill="#614335"/><path d="M108 180.61v8a55.79 55.79 0 0 0 24 5.39c8.59 0 16.73-1.93 24-5.39v-8a55.79 55.79 0 0 1-24 5.39 55.79 55.79 0 0 1-24-5.39Z" fill="#000" fill-opacity=".1"/><g transform="translate(0 170)"><path d="M100.37 29.14a27.6 27.6 0 0 1 7.63-7.57v15.3c0 5.83 3.98 10.98 10.08 14.13l-.08.06.9 2.86c3.89 2 8.35 3.13 13.1 3.13s9.21-1.13 13.1-3.13l.9-2.86-.08-.06c6.1-3.15 10.08-8.3 10.08-14.12v-14.6a27.1 27.1 0 0 1 6.6 6.82 72 72 0 0 1 69.4 71.95V110H32v-8.95a72 72 0 0 1 68.37-71.9Z" fill="#ffffff"/><path d="M108 21.57c-6.77 4.6-11 11.17-11 18.46 0 7.4 4.36 14.05 11.3 18.66l6.12-4.81 4.58.33-1-3.15.08-.06c-6.1-3.15-10.08-8.3-10.08-14.12v-15.3ZM156 36.88c0 5.82-3.98 10.97-10.08 14.12l.08.06-1 3.15 4.58-.33 5.65 4.45c6.63-4.6 10.77-11.1 10.77-18.3 0-6.92-3.82-13.2-10-17.75v14.6Z" fill="#fff" fill-opacity=".75"/></g><g transform="translate(78 134)"><rect x="22" y="7" width="64" height="26" rx="13" fill="#000" fill-opacity=".6"/><rect x="24" y="9" width="60" height="22" rx="11" fill="#fff"/><path d="M24.18 18H32V9.41A11 11 0 0 1 35 9h1v9h9V9h4v9h9V9h4v9h9V9h2c.68 0 1.35.06 2 .18V18h8.82l.05.28v3.44l-.05.28H75v8.82c-.65.12-1.32.18-2 .18h-2v-9h-9v9h-4v-9h-9v9h-4v-9h-9v9h-1a11 11 0 0 1-3-.41V22h-7.82a11.06 11.06 0 0 1 0-4Z" fill="#E6E6E6"/></g><g transform="translate(104 122)"><path fill-rule="evenodd" clip-rule="evenodd" d="M16 8c0 4.42 5.37 8 12 8s12-3.58 12-8" fill="#000" fill-opacity=".16"/></g><g transform="translate(76 90)"><path d="M44 20.73c0 4.26-6.27 7.72-14 7.72S16 25 16 20.73C16 16.46 22.27 13 30 13s14 3.46 14 7.73ZM96 20.73c0 4.26-6.27 7.72-14 7.72S68 25 68 20.73C68 16.46 74.27 13 82 13s14 3.46 14 7.73Z" fill="#fff"/><path d="M32.82 28.3a25.15 25.15 0 0 1-5.64 0 6 6 0 1 1 5.64 0ZM84.82 28.3a25.15 25.15 0 0 1-5.64 0 6 6 0 1 1 5.64 0Z" fill="#000" fill-opacity=".7"/></g><g transform="translate(76 82)"><g fill-rule="evenodd" clip-rule="evenodd" fill="#DADADA"><path d="M57 12.82ZM96.12 7.6c1.46.56 9.19 6.43 7.86 9.16a.8.8 0 0 1-1.29.22 10.63 10.63 0 0 0-1.7-1.19c-5.1-2.84-11.3-1.93-16.73-.91-6.12 1.14-12.11 3.48-18.39 2.67-2.04-.26-6.08-1.22-7.63-2.96-.47-.53-.06-1.38.64-1.43 1.44-.11 2.86-.86 4.33-1.28 3.65-1.03 7.4-1.56 11.11-2.29 6.62-1.3 15.17-4.53 21.8-2Z"/><path d="M58.76 12.76c-1.17.04-2.8 3.56-.56 3.68 2.23.11 1.73-3.72.56-3.68ZM55 12.8c0-.01 0-.01 0 0ZM15.88 7.56c-1.46.56-9.19 6.43-7.86 9.16.24.5.89.6 1.29.22.55-.52 1.58-1.11 1.71-1.18 5.1-2.84 11.3-1.93 16.73-.91 6.12 1.14 12.11 3.48 18.39 2.67 2.04-.26 6.08-1.22 7.63-2.96.47-.53.06-1.38-.64-1.43-1.44-.11-2.86-.86-4.33-1.28-3.65-1.03-7.4-1.56-11.11-2.29-6.62-1.3-15.17-4.53-21.8-2Z"/><path d="M54.97 11.79c1.17.04 2.77 4.5.53 4.67-2.24.18-1.7-4.71-.53-4.67Z"/></g></g><g transform="translate(-1)"><path d="M40 145c-.62-30.84 28.32-95.2 39-108 7.92-9.5 29.7-17.45 54-17 24.3.45 46.86 5.81 55 16 12.32 15.43 37.87 74.08 38 109 .1 24.8-9.54 49.66-23 51-7.6.76-17.26-.23-28.86-1.4-5.3-.55-11.02-1.13-17.14-1.6V180.6A56 56 0 0 0 189 130v-28.44a130.34 130.34 0 0 1-26.9-19.88c3.35 6.24 7.19 11.9 11.51 16.2-30.57-8.59-51.71-26.16-64.38-39.94C103.39 69.02 92.96 85.23 77 97.57V130a56 56 0 0 0 32 50.61v13.14c-6.95.95-13.41 2.16-19.36 3.27-10.85 2.02-19.98 3.73-27.26 2.98-14.22-1.47-21.88-30.2-22.38-55Z" fill="#2c1b18"/></g><g transform="translate(49 72)"><path fill-rule="evenodd" clip-rule="evenodd" d="M84.5 93.84c-11.5.38-16.64 5.88-20.5.29-2.91-4.2-1.7-11.26 1.01-15.23 3.86-5.65 9.1-2.92 14.95-3.56 1.6-.18 3.2-.62 4.54-1.34 1.36.72 2.95 1.16 4.55 1.34 5.85.64 11.09-2.09 14.94 3.56 2.72 3.97 3.93 11.03 1.03 15.23-3.87 5.6-9-.67-20.52-.29ZM140.4 26c-3.43 14.07-5 28.43-7.5 42.67-.5 2.97-1.07 5.93-1.68 8.88-.12.62-.25 2.92-.86 3.21-1.85.89-5.62-3.81-6.63-4.87-2.53-2.67-5.05-5.36-8.13-7.45a43.7 43.7 0 0 0-21.13-7.32c-3.18-.25-7.47.18-10.47 2-3-1.82-7.3-2.25-10.47-2-7.6.6-14.9 3.1-21.13 7.32-3.09 2.09-5.6 4.78-8.13 7.45-1 1.06-4.78 5.76-6.63 4.87-.61-.29-.74-2.6-.86-3.21-.6-2.95-1.17-5.91-1.7-8.88-2.47-14.24-4.05-28.6-7.47-42.67-1 0-1.87 18.75-1.98 20.5-.46 7.09-.98 14.03-.3 21.13 1.16 12.24 2.37 27.6 11.7 36.96 8.44 8.45 20.68 10.22 31.24 15.55 1.36.69 3.16 1.54 5.1 2.23 2.06 1.56 6.12 2.63 10.8 2.63 4.91 0 9.15-1.17 11.08-2.86 1.7-.65 3.27-1.39 4.48-2 10.56-5.33 22.8-7.1 31.24-15.55 9.33-9.36 10.54-24.72 11.7-36.96.68-7.1.16-14.04-.3-21.14-.1-1.74-.98-20.5-1.98-20.5Z" fill="#d6b370"/></g><g transform="translate(62 42)"><g fill-rule="evenodd" clip-rule="evenodd"><path d="M111.71 53.49c4.67.16 8 .88 10.55 4.52 3.01.15 6.25.37 8.98 1.63 3.39 1.56 3.9 5.1-.36 5.59-1.86.2-3.72-.12-5.55-.45l-.19-.03-.33-.06c1.1 9.46-6.21 20.87-14.23 24.35C99.6 93.8 87.34 88.53 81.53 79c-2.62-4.3-4.14-10.51-4.46-15.86-.42-.2-.83-.44-1.23-.67-.38-.22-.76-.44-1.12-.61-2-.98-5.34-1.1-7.5 0-.35.17-.7.37-1.05.58-.42.25-.86.5-1.3.72C64.53 68.5 63.01 74.7 60.4 79c-5.8 9.53-18.07 14.8-29.05 10.04-8.02-3.48-15.33-14.89-14.23-24.35l-.33.06-.2.03c-1.83.33-3.7.66-5.55.45-4.27-.5-3.74-4.03-.36-5.6 2.72-1.25 5.96-1.47 8.97-1.62 2.55-3.63 5.88-4.36 10.55-4.52l23.29-.46c5.19-.14 9.72 0 11.03 4.6a18.7 18.7 0 0 1 6.35-1.25c1.86 0 4.35.45 6.5 1.28 1.3-4.64 5.83-4.77 11.03-4.63l23.3.46Zm-24.03 6.78c-2.37.03-3.5.42-3.9 2.9-.4 2.5 0 5.31.46 7.78.73 3.77 1.92 7.46 4.71 10.22a16.24 16.24 0 0 0 8.32 4.34c.11.03.54.1.96.16.63.1 1.23.18.71.13l-.1-.01h-.06a47.08 47.08 0 0 1 .16 0c3.73.4 7.72.32 10.82-2.04 3.53-2.7 5.95-6.95 7.01-11.2.63-2.48 1.93-8.42-.46-10.4-2.73-2.28-28.63-1.88-28.63-1.88Zm-33.43 0c2.37.03 3.5.42 3.9 2.9.4 2.5 0 5.32-.46 7.78-.73 3.77-1.92 7.46-4.71 10.22a16.23 16.23 0 0 1-8.32 4.35l-.96.15c-.64.1-1.26.19-.68.13-3.73.4-7.74.32-10.85-2.05-3.53-2.69-5.95-6.95-7.01-11.2-.63-2.48-1.93-8.42.46-10.4 2.73-2.28 28.63-1.87 28.63-1.87Zm-10.93 25.5Z" fill="#000" fill-opacity=".1"/><path d="M111.71 51.49c4.67.16 8 .88 10.55 4.52 3.01.15 6.25.37 8.98 1.63 3.39 1.56 3.9 5.1-.36 5.59-1.86.2-3.72-.12-5.55-.45l-.19-.03-.33-.06c1.1 9.46-6.21 20.87-14.23 24.35C99.6 91.8 87.34 86.53 81.53 77c-2.62-4.3-4.14-10.51-4.46-15.86-.42-.2-.83-.44-1.23-.67-.38-.22-.76-.44-1.12-.61-2-.98-5.34-1.1-7.5 0-.35.17-.7.37-1.05.58-.42.25-.86.5-1.3.72C64.53 66.5 63.01 72.7 60.4 77c-5.8 9.53-18.07 14.8-29.05 10.04-8.02-3.48-15.33-14.89-14.23-24.35-.11 0-.22.03-.33.05l-.2.03c-1.83.33-3.7.66-5.55.45-4.27-.5-3.74-4.03-.36-5.6 2.72-1.25 5.96-1.47 8.97-1.62 2.55-3.63 5.88-4.36 10.55-4.52l23.29-.46c5.19-.14 9.72 0 11.03 4.6a18.7 18.7 0 0 1 6.35-1.25c1.86 0 4.35.45 6.5 1.28 1.3-4.64 5.83-4.77 11.03-4.63l23.3.46Zm-24.03 6.78c-2.37.03-3.5.42-3.9 2.9-.4 2.5 0 5.31.46 7.78.73 3.77 1.92 7.46 4.71 10.22a16.24 16.24 0 0 0 8.32 4.34c.11.03.54.1.96.16.63.1 1.23.18.71.13l-.1-.01h-.06a47.08 47.08 0 0 1 .16 0c3.73.4 7.72.32 10.82-2.04 3.53-2.7 5.95-6.95 7.01-11.2.63-2.48 1.93-8.42-.46-10.4-2.73-2.28-28.63-1.88-28.63-1.88Zm-33.43 0c2.37.03 3.5.42 3.9 2.9.4 2.5 0 5.32-.46 7.78-.73 3.77-1.92 7.46-4.71 10.22a16.23 16.23 0 0 1-8.32 4.35l-.96.15c-.64.1-1.26.19-.68.13-3.73.4-7.74.32-10.85-2.05-3.53-2.69-5.95-6.95-7.01-11.2-.63-2.48-1.93-8.42.46-10.4 2.73-2.28 28.63-1.87 28.63-1.87Zm-10.93 25.5Z" fill="#25557c"/></g></g></g></g></svg>