<svg xmlns="http://www.w3.org/2000/svg" viewBox="0 0 280 280" fill="none" shape-rendering="auto"><metadata xmlns:rdf="http://www.w3.org/1999/02/22-rdf-syntax-ns#" xmlns:xsi="http://www.w3.org/2001/XMLSchema-instance" xmlns:dc="http://purl.org/dc/elements/1.1/" xmlns:dcterms="http://purl.org/dc/terms/"><rdf:RDF><rdf:Description><dc:title>Avataaars</dc:title><dc:creator>Pablo Stanley</dc:creator><dc:source xsi:type="dcterms:URI">https://avataaars.com/</dc:source><dcterms:license xsi:type="dcterms:URI">https://avataaars.com/</dcterms:license><dc:rights>Remix of „Avataaars” (https://avataaars.com/) by „Pablo Stanley”, licensed under „Free for personal and commercial use” (https://avataaars.com/)</dc:rights></rdf:Description></rdf:RDF></metadata><mask id="viewboxMask"><rect width="280" height="280" rx="0" ry="0" x="0" y="0" fill="#fff" /></mask><g mask="url(#viewboxMask)"><g transform="translate(8)"><path d="M132 36a56 56 0 0 0-56 56v6.17A12 12 0 0 0 66 110v14a12 12 0 0 0 10.3 11.88 56.04 56.04 0 0 0 31.7 44.73v18.4h-4a72 72 0 0 0-72 72v9h200v-9a72 72 0 0 0-72-72h-4v-18.39a56.04 56.04 0 0 0 31.7-44.73A12 12 0 0 0 198 124v-14a12 12 0 0 0-10-11.83V92a56 56 0 0 0-56-56Z" fill="#fd9841"/><path d="M108 180.61v8a55.79 55.79 0 0 0 24 5.39c8.59 0 16.73-1.93 24-5.39v-8a55.79 55.79 0 0 1-24 5.39 55.79 55.79 0 0 1-24-5.39Z" fill="#000" fill-opacity=".1"/><g transform="translate(0 170)"><path d="M132.5 54C151 54 166 44.37 166 32.5c0-1.1-.13-2.18-.38-3.23A72 72 0 0 1 232 101.05V110H32v-8.95A72 72 0 0 1 99.4 29.2a14.1 14.1 0 0 0-.4 3.3C99 44.37 114 54 132.5 54Z" fill="#ff488e"/><g transform="translate(77 58)"><path fill-rule="evenodd" clip-rule="evenodd" d="M65.28 19.93c-.3 2.78-5.7 4.27-7.67 2.45-.91-.84-.93-2.58-1.13-3.7a48.65 48.65 0 0 1-.75-6.43c-.06-1.32-.4-2.38 1.04-2.58.89-.12 1.8.47 2.52.93 2.44 1.58 6.32 6.14 5.98 9.33Zm-12.4-5.85c.29 2.82 1.32 7.73-.93 10.1-2.02 2.12-6.16.02-6.79-2.47-.77-3.1 2.28-6.78 4.15-8.87.58-.64 1.85-2.41 2.84-1.82.39.23.7 2.61.74 3.06Zm1.44 11.03c.65-1.53 6.91 3.01 3.95 5.18-.48.35-4.16 1.46-4.86.94-1.48-1.1.43-4.97.91-6.12Zm19-7.58C72.89 2.05 53.08-2.31 42.49 6.5 38.43 9.88 36.1 14 36 19.28c-.1 4.47.62 8.7 4.03 11.77 1.48 1.33 2.46 2.15 3.25 3.97.82 1.9 1.2 4.33 2.74 5.83.85.83 2.09 1.5 3.26.96 2.17-.98 1.47-3.98 2.13-5.65 2.04 4.97 7.21 6.55 8.15.25 1.03 1.82 3.72 4.2 5.7 2.2.81-.8.93-2.14 1.07-3.22.25-1.9-.18-2.66 1.36-3.97 4.03-3.45 5.77-8.67 5.63-13.9Z" fill="#fff"/></g></g><g transform="translate(78 134)"><path fill-rule="evenodd" clip-rule="evenodd" d="M29 15.6C30.41 25.24 41.06 33 54 33c12.97 0 23.65-7.82 25-18.26.1-.4-.22-1.74-2.17-1.74H31.17c-1.79 0-2.3 1.24-2.17 2.6Z" fill="#000" fill-opacity=".7"/><path d="M70 13H39a5 5 0 0 0 5 5h21a5 5 0 0 0 5-5Z" fill="#fff"/><path d="M43 23.5a1.88 1.88 0 0 0 0 .13v8.87a11.5 11.5 0 1 0 23 0v-8.87a1.62 1.62 0 0 0 0-.13c0-1.93-2.91-3.5-6.5-3.5-2.01 0-3.8.5-5 1.26a9.45 9.45 0 0 0-5-1.26c-3.59 0-6.5 1.57-6.5 3.5Z" fill="#FF4F6D"/></g><g transform="translate(104 122)"><path fill-rule="evenodd" clip-rule="evenodd" d="M16 8c0 4.42 5.37 8 12 8s12-3.58 12-8" fill="#000" fill-opacity=".16"/></g><g transform="translate(76 90)"><path d="M44 22a14 14 0 1 1-28 0 14 14 0 0 1 28 0ZM96 22a14 14 0 1 1-28 0 14 14 0 0 1 28 0Z" fill="#fff"/><path d="M36 14a6 6 0 1 1-12 0 6 6 0 0 1 12 0ZM88 14a6 6 0 1 1-12 0 6 6 0 0 1 12 0Z" fill="#000" fill-opacity=".7"/></g><g transform="translate(76 82)"><path d="M38.66 11.1c-5 .35-9.92.08-14.92-.13-3.83-.16-7.72-.68-11.37 1.01-.7.32-4.53 2.28-4.44 3.35.07.85 3.93 2.2 4.63 2.44 3.67 1.29 7.18.9 10.95.66 4.64-.27 9.25-.07 13.87-.2 3.12-.1 7.92-.63 9.46-4.4.46-1.14.1-3.42-.36-4.66-.19-.5-.72-.69-1.13-.4a15.04 15.04 0 0 1-6.68 2.32ZM73.34 11.1c5 .35 9.92.08 14.92-.13 3.83-.16 7.72-.68 11.37 1.01.7.32 4.53 2.28 4.44 3.35-.07.85-3.93 2.2-4.63 2.44-3.67 1.29-7.18.9-10.95.66-4.63-.27-9.24-.07-13.86-.2-3.12-.1-7.92-.63-9.46-4.4-.46-1.14-.1-3.42.36-4.66.18-.5.72-.69 1.13-.4a15.04 15.04 0 0 0 6.68 2.32Z" fill-rule="evenodd" clip-rule="evenodd" fill="#000" fill-opacity=".6"/></g><g transform="translate(-1)"><path d="M133 18a74 74 0 0 0-74 74v96c0 8.56 1.45 16.78 4.12 24.42A71.67 71.67 0 0 1 105 199h4v-18.39a56.03 56.03 0 0 1-31.8-45.74A12 12 0 0 1 67 123v-13a12 12 0 0 1 .46-3.3c17.13-6.02 33.75-21.94 43.59-44.04.4-.92.8-1.84 1.18-2.76 4.58 12.23 13.21 21.11 25.89 26.63a87.36 87.36 0 0 1-12.45-20.78c7.98 8.5 18.35 16.74 30.48 23.75 14.33 8.27 28.91 13.56 41.87 15.75.63 1.45.98 3.06.98 4.75v13a12 12 0 0 1-10.2 11.87A56.03 56.03 0 0 1 157 180.6V199h4a71.67 71.67 0 0 1 41.88 13.42A73.9 73.9 0 0 0 207 188V92a74 74 0 0 0-74-74Z" fill="#e8e1e1"/><path d="M111.05 62.66C99.59 88.39 78.95 105.75 59 108.84v4c19.95-3.1 40.59-20.45 52.05-46.18.4-.92.8-1.84 1.18-2.76 4.58 12.23 13.21 21.11 25.89 26.63a78.16 78.16 0 0 1-4.62-6.26c-10.18-5.56-17.27-13.69-21.27-24.37a98.8 98.8 0 0 1-1.18 2.76ZM129.5 73.64a137.34 137.34 0 0 0 26.65 19.86c17.75 10.25 35.9 15.91 50.85 16.78v-4c-14.95-.87-33.1-6.54-50.85-16.78-12.13-7-22.5-15.24-30.48-23.75a98.3 98.3 0 0 0 3.83 7.89Z" fill="#000" fill-opacity=".16"/></g><g transform="translate(49 72)"></g><g transform="translate(62 42)"></g></g></g></svg>