<svg xmlns="http://www.w3.org/2000/svg" viewBox="0 0 280 280" fill="none" shape-rendering="auto"><metadata xmlns:rdf="http://www.w3.org/1999/02/22-rdf-syntax-ns#" xmlns:xsi="http://www.w3.org/2001/XMLSchema-instance" xmlns:dc="http://purl.org/dc/elements/1.1/" xmlns:dcterms="http://purl.org/dc/terms/"><rdf:RDF><rdf:Description><dc:title>Avataaars</dc:title><dc:creator>Pablo Stanley</dc:creator><dc:source xsi:type="dcterms:URI">https://avataaars.com/</dc:source><dcterms:license xsi:type="dcterms:URI">https://avataaars.com/</dcterms:license><dc:rights>Remix of „Avataaars” (https://avataaars.com/) by „Pablo Stanley”, licensed under „Free for personal and commercial use” (https://avataaars.com/)</dc:rights></rdf:Description></rdf:RDF></metadata><mask id="viewboxMask"><rect width="280" height="280" rx="0" ry="0" x="0" y="0" fill="#fff" /></mask><g mask="url(#viewboxMask)"><g transform="translate(8)"><path d="M132 36a56 56 0 0 0-56 56v6.17A12 12 0 0 0 66 110v14a12 12 0 0 0 10.3 11.88 56.04 56.04 0 0 0 31.7 44.73v18.4h-4a72 72 0 0 0-72 72v9h200v-9a72 72 0 0 0-72-72h-4v-18.39a56.04 56.04 0 0 0 31.7-44.73A12 12 0 0 0 198 124v-14a12 12 0 0 0-10-11.83V92a56 56 0 0 0-56-56Z" fill="#f8d25c"/><path d="M108 180.61v8a55.79 55.79 0 0 0 24 5.39c8.59 0 16.73-1.93 24-5.39v-8a55.79 55.79 0 0 1-24 5.39 55.79 55.79 0 0 1-24-5.39Z" fill="#000" fill-opacity=".1"/><g transform="translate(0 170)"><path d="M108 14.7c-15.52 3.68-27.1 10.83-30.77 19.44A72.02 72.02 0 0 0 32 101v9h200v-9a72.02 72.02 0 0 0-45.23-66.86C183.1 25.53 171.52 18.38 156 14.7V32a24 24 0 1 1-48 0V14.7Z" fill="#929598"/><path d="M102 63.34a67.1 67.1 0 0 1-7-2.82V110h7V63.34ZM162 63.34a67.04 67.04 0 0 0 7-2.82V98.5a3.5 3.5 0 1 1-7 0V63.34Z" fill="#F4F4F4"/><path d="M187.62 34.49a71.79 71.79 0 0 1 10.83 5.63C197.11 55.62 167.87 68 132 68c30.93 0 56-13.43 56-30 0-1.19-.13-2.36-.38-3.51ZM76.38 34.49a16.48 16.48 0 0 0-.38 3.5c0 16.58 25.07 30 56 30-35.87 0-65.1-12.38-66.45-27.88a71.79 71.79 0 0 1 10.83-5.63Z" fill="#000" fill-opacity=".16"/></g><g transform="translate(78 134)"><path fill-rule="evenodd" clip-rule="evenodd" d="M29 15.6C30.41 25.24 41.06 33 54 33c12.97 0 23.65-7.82 25-18.26.1-.4-.22-1.74-2.17-1.74H31.17c-1.79 0-2.3 1.24-2.17 2.6Z" fill="#000" fill-opacity=".7"/><path d="M70 13H39a5 5 0 0 0 5 5h21a5 5 0 0 0 5-5Z" fill="#fff"/><path d="M43 23.5a1.88 1.88 0 0 0 0 .13v8.87a11.5 11.5 0 1 0 23 0v-8.87a1.62 1.62 0 0 0 0-.13c0-1.93-2.91-3.5-6.5-3.5-2.01 0-3.8.5-5 1.26a9.45 9.45 0 0 0-5-1.26c-3.59 0-6.5 1.57-6.5 3.5Z" fill="#FF4F6D"/></g><g transform="translate(104 122)"><path fill-rule="evenodd" clip-rule="evenodd" d="M16 8c0 4.42 5.37 8 12 8s12-3.58 12-8" fill="#000" fill-opacity=".16"/></g><g transform="translate(76 90)"><path d="M35.96 10c-2.55 0-5.08 1.98-6.46 3.82-1.39-1.84-3.9-3.82-6.46-3.82-5.49 0-9.04 3.33-9.04 7.64 0 5.73 4.41 9.13 9.04 12.74 1.66 1.23 4.78 4.4 5.17 5.1.38.68 2.1.7 2.58 0 .48-.73 3.51-3.87 5.17-5.1 4.63-3.6 9.04-7 9.04-12.74 0-4.3-3.55-7.64-9.04-7.64ZM88.96 10c-2.55 0-5.08 1.98-6.46 3.82-1.39-1.84-3.9-3.82-6.46-3.82-5.49 0-9.04 3.33-9.04 7.64 0 5.73 4.41 9.13 9.04 12.74 1.65 1.23 4.78 4.4 5.17 5.1.38.68 2.1.7 2.58 0 .48-.73 3.51-3.87 5.17-5.1 4.63-3.6 9.04-7 9.04-12.74 0-4.3-3.55-7.64-9.04-7.64Z" fill="#FF5353" fill-opacity=".8"/></g><g transform="translate(76 82)"><path d="M36.37 6.88c-1.97 2.9-5.55 4.64-8.74 5.68-3.94 1.29-18.55 3.38-15.11 11.35.05.12.22.12.27 0 1.15-2.65 17.47-5.12 18.97-5.7 4.45-1.71 8.4-5.5 9.17-10.55.35-2.31-.64-6.05-1.55-7.55-.11-.18-.37-.13-.43.07-.36 1.33-1.41 4.97-2.58 6.7ZM75.63 6.88c1.97 2.9 5.55 4.64 8.74 5.68 3.94 1.29 18.55 3.38 15.11 11.35a.15.15 0 0 1-.27 0c-1.15-2.65-17.47-5.12-18.97-5.7-4.45-1.71-8.4-5.5-9.17-10.55-.35-2.31.64-6.05 1.55-7.55.11-.18.37-.13.43.07.36 1.33 1.41 4.97 2.58 6.7Z" fill-rule="evenodd" clip-rule="evenodd" fill="#000" fill-opacity=".6"/></g><g transform="translate(-1)"><path d="M67 113c10.86-22.7 34.67-31.6 55.44-39.36 13.32-4.97 25.39-9.48 32-16.86 2.22 2.02 4.75 4.05 7.41 6.2C172.06 71.16 184.21 80.91 189 98v.17a12 12 0 0 1 9.81 9.72V86.04c0-1.3-.05-2.57-.15-3.84 4.54-17-3.1-37.78-12.66-47.2-9.48-8.82-22.3-12.32-30.95-8.48C143.45 8.98 109.9 13.24 90 28c-13.22 9.8-24.79 25.72-27.84 45.75A46.18 46.18 0 0 0 61 84.05v88.5c-.2 31.5-7.4 82.49-21 90.45 62.36 16.8 71.93-38.15 69-82v-.39a56.03 56.03 0 0 1-31.8-45.74A12 12 0 0 1 67 123v-10ZM157 180.61a56.03 56.03 0 0 0 31.8-45.74 12 12 0 0 0 10.01-9.76v1.36A100 100 0 0 0 209.78 172l26.95 52.71a37.79 37.79 0 0 1-3.94 40.76A72 72 0 0 0 161 199h-4v-18.39Z" fill="#a55728"/><path d="M67 113c10.86-22.7 34.67-31.6 55.44-39.36 13.32-4.97 25.39-9.48 32-16.86 2.22 2.02 4.75 4.05 7.41 6.2 10.19 8.17 22.3 17.89 27.11 34.9-4.57-14.04-15.75-21.22-25.6-27.55-3.21-2.06-6.28-4.03-8.93-6.12-6.6 6.4-18.67 10.32-32 14.64C101.68 85.58 77.87 93.3 67 113Z" fill="#000" fill-opacity=".16"/></g><g transform="translate(49 72)"></g><g transform="translate(62 42)"></g></g></g></svg>