<svg xmlns="http://www.w3.org/2000/svg" viewBox="0 0 280 280" fill="none" shape-rendering="auto"><metadata xmlns:rdf="http://www.w3.org/1999/02/22-rdf-syntax-ns#" xmlns:xsi="http://www.w3.org/2001/XMLSchema-instance" xmlns:dc="http://purl.org/dc/elements/1.1/" xmlns:dcterms="http://purl.org/dc/terms/"><rdf:RDF><rdf:Description><dc:title>Avataaars</dc:title><dc:creator>Pablo Stanley</dc:creator><dc:source xsi:type="dcterms:URI">https://avataaars.com/</dc:source><dcterms:license xsi:type="dcterms:URI">https://avataaars.com/</dcterms:license><dc:rights>Remix of „Avataaars” (https://avataaars.com/) by „Pablo Stanley”, licensed under „Free for personal and commercial use” (https://avataaars.com/)</dc:rights></rdf:Description></rdf:RDF></metadata><mask id="viewboxMask"><rect width="280" height="280" rx="0" ry="0" x="0" y="0" fill="#fff" /></mask><g mask="url(#viewboxMask)"><g transform="translate(8)"><path d="M132 36a56 56 0 0 0-56 56v6.17A12 12 0 0 0 66 110v14a12 12 0 0 0 10.3 11.88 56.04 56.04 0 0 0 31.7 44.73v18.4h-4a72 72 0 0 0-72 72v9h200v-9a72 72 0 0 0-72-72h-4v-18.39a56.04 56.04 0 0 0 31.7-44.73A12 12 0 0 0 198 124v-14a12 12 0 0 0-10-11.83V92a56 56 0 0 0-56-56Z" fill="#614335"/><path d="M108 180.61v8a55.79 55.79 0 0 0 24 5.39c8.59 0 16.73-1.93 24-5.39v-8a55.79 55.79 0 0 1-24 5.39 55.79 55.79 0 0 1-24-5.39Z" fill="#000" fill-opacity=".1"/><g transform="translate(0 170)"><path d="M132.5 54C151 54 166 44.37 166 32.5c0-1.1-.13-2.18-.38-3.23A72 72 0 0 1 232 101.05V110H32v-8.95A72 72 0 0 1 99.4 29.2a14.1 14.1 0 0 0-.4 3.3C99 44.37 114 54 132.5 54Z" fill="#ffffff"/><g transform="translate(77 58)"><g fill-rule="evenodd" clip-rule="evenodd" fill="#fff"><path d="M72.34 18.04a8.66 8.66 0 0 1-1 2.99c-.71 1.21-2.02 1.7-2.78 2.82-1.19 1.75.4 4.27-.78 5.83-1.27 1.68-4.14.67-5.26 2.9-1.18 2.35.53 5.49-.95 7.83-1.47-.37-1.92-5.9-4.19-2.37-1.45 2.25-.47 3.47-2.64.23-.76-1.12-1.62-2.13-3.1-1.39-1.04.52-1.26 2.84-2.21 3.09-2.33.6-2.42-5.62-3.21-6.8a2.8 2.8 0 0 0-1.62-1.28c-.67-.2-1.87.22-2.43-.1-1.04-.59-1.18-2.55-1.22-3.6-.07-1.93.58-3.91.04-5.83-.45-1.61-1.89-2.6-2.36-4.18C36.1 9.64 47.68 4.89 54.3 4.63c7.74-.3 19.04 4.22 18.04 13.4Zm1.83-5.32c-1.45-3.44-4.65-6.17-7.91-8-1.59-.9-3.3-1.56-5.09-1.95-1.64-.36-3.55-.12-5.12-.58C54.73 1.81 53.9.95 52.35 1c-2.11.07-4.31 1.17-6.16 2.09-3.66 1.8-6.77 4.15-8.73 7.74-2.1 3.86-1.9 7.36.35 10.95 2.15 3.44-.97 8.27 2.17 11.53 1.32 1.37 2.62.37 3.87 1.03.96.5.92 3.46 1.19 4.33 1.2 3.9 5.51 5.4 7.5 1.2.94 2.34 4.66 4.75 6.39 1.68 1.08 1.4 2.95 2 4.38.8 1.35-1.14 1.5-3.76 1.56-5.35.06-1.24-.5-2.77.46-3.66 1.04-.98 3.2-.57 4.37-1.84 1.34-1.45.78-3.14.89-4.87.1-1.75.41-1.3 1.7-2.56 2.9-2.81 3.38-7.8 1.88-11.35Z"/><path d="M50.42 29.12c2.02-1.82 1.6-7.4 1.42-9.96-.31-4.86-3.35-3.4-5.2-.38-1.4 2.3-4.77 6-3.26 8.88 1.2 2.3 5.18 3.13 7.04 1.46ZM63.8 20.27c-1.04-1.92-1.43-2.2-2.66-3.78-.8-1.01-1.9-2.8-3.4-2.44-2.59.62-1.53 6.6-1.5 8.4.02 1.36-.28 2.76.85 3.73 1.15.98 3.05.9 4.44.69 4.26-.64 4.06-3.26 2.26-6.6ZM55.24 32.83c-.28-.04.08-.36.12-.59.19.62.33.65-.12.59Zm1.04-4.31c-2.61-2.77-7.57 6.4-4.08 7.43.8.23 1.4-.37 2.16-.47 1.1-.16 2.02.48 2.97-.53 1.5-1.58.2-5.1-1.05-6.43Z"/></g></g></g><g transform="translate(78 134)"><path d="M28 26.24c1.36.5 2.84.76 4.4.76 5.31 0 9.81-3.15 11.29-7.49 2.47 2.17 6.17 3.54 10.31 3.54 4.14 0 7.84-1.37 10.31-3.53 1.48 4.35 5.98 7.5 11.3 7.5 1.55 0 3.03-.27 4.4-.76h-.19c-6.33 0-11.8-4.9-11.8-10.56 0-4.18 2.32-7.72 5.69-9.68-5.5.8-9.73 5-9.9 10.1a17.61 17.61 0 0 1-9.8 2.8c-3.8 0-7.25-1.06-9.8-2.8-.18-5.1-4.4-9.3-9.9-10.1a11.18 11.18 0 0 1 5.68 9.68c0 5.66-5.47 10.57-11.8 10.57H28Z" fill="#000" fill-opacity=".6" opacity=".6"/><path d="M17 24a9 9 0 1 0 0-18 9 9 0 0 0 0 18ZM91 24a9 9 0 1 0 0-18 9 9 0 0 0 0 18Z" fill="#FF4646" fill-opacity=".2"/></g><g transform="translate(104 122)"><path fill-rule="evenodd" clip-rule="evenodd" d="M16 8c0 4.42 5.37 8 12 8s12-3.58 12-8" fill="#000" fill-opacity=".16"/></g><g transform="translate(76 90)"><path d="M27 16c-4.84 0-9 2.65-10.84 6.45-.54 1.1.39 1.85 1.28 1.12a15.13 15.13 0 0 1 9.8-3.22 6 6 0 1 0 10.7 2.8 2 2 0 0 0-.12-.74l-.15-.38a6 6 0 0 0-1.64-2.48C33.9 17.32 30.5 16 27 16ZM85 16c-4.84 0-9 2.65-10.84 6.45-.54 1.1.39 1.85 1.28 1.12a15.13 15.13 0 0 1 9.8-3.22 6 6 0 1 0 10.7 2.8 2 2 0 0 0-.12-.74l-.15-.38a6 6 0 0 0-1.64-2.48C91.9 17.32 88.5 16 85 16Z" fill="#000" fill-opacity=".6"/></g><g transform="translate(76 82)"><path d="m22.77 1.58.9-.4C28.93-.91 36.88-.03 41.73 2.3c.57.27.18 1.15-.4 1.1-14.92-1.14-24.96 8.15-28.37 14.45-.1.18-.41.2-.49.03-2.3-5.32 4.45-13.98 10.3-16.3ZM87 12.07c5.75.77 14.74 5.8 13.99 11.6-.03.2-.31.26-.44.1-2.49-3.2-21.71-7.87-28.71-6.9-.64.1-1.07-.57-.63-.98 3.75-3.54 10.62-4.52 15.78-3.82Z" fill-rule="evenodd" clip-rule="evenodd" fill="#000" fill-opacity=".6"/></g><g transform="translate(-1)"><path d="M177.75 37.86c9.52 7.1 17.76 18.58 18.16 30.82.17 5.5-.62 11.23-1.73 16.62-.5 2.46-1.6 4.66-2.7 6.85-1.07 2.12-2.13 4.24-2.64 6.58-2.63-8.93-10.09-13.97-17.5-19-3.96-2.66-7.9-5.33-11.1-8.58 1.02 1.93 2.3 3.7 3.6 5.46 1.23 1.7 2.47 3.4 3.45 5.22-9.24-5.66-18.2-13.88-22.03-24.3a29.46 29.46 0 0 1-6.1 14.67c-3.02 3.8-7.59 7.87-12.3 9.34 2.43-5.5 4.5-11.21 6.4-16.92-1.78 2.31-7.21 11.29-9.6 15.23l-.77 1.26a73.9 73.9 0 0 1-10.47 13.35c-.5.53-1.42 1.52-.67.54-1.85 2.35-4.45 4.26-6.9 6.07l-1.4 1.04a51.67 51.67 0 0 1-9.2 5.48c-7.1 3.31-14.38 4.54-22.11 3.2.9.1 2.35-.4 3.53-.82a20 20 0 0 1 1.22-.4c1.8-.5 3.47-1.12 5.11-2.02a53.85 53.85 0 0 0 9.18-6.42c-1.37.58-2.6 1.42-3.84 2.27-1.23.83-2.46 1.67-3.83 2.27-2.28 1-4.54 1.53-7.03 1.77-5.46.53-12-.72-16.72-3.6-5.5-3.32-8.54-9.04-9.99-15.13-1.68-7.06-.63-15.04 3.33-21.07.13 2.14 4.43 3.06 7.92 2.53 3.77-.59 6.95-6.52 10.9-13.93 6.19-11.55 14.28-26.67 29.52-30.64 19.96-5.2 34.21 3.87 35.42 4.66 1.22.78 1.8.63 2.93.32l.68-.17c6.35-1.52 13.26-2.2 19.7-.92 6.35 1.26 12.43 4.54 17.57 8.38ZM71.93 110.75l.2.04a1.6 1.6 0 0 1-.2-.04ZM79 156.2c.8-1.53 1.57-3.06 2.32-4.6A56.2 56.2 0 0 0 109 180.6v9.01a54.4 54.4 0 0 1-7.73 1.97c-9 1.62-34.32-3.53-45.44-11.98-.85-.65-.42-1.92.67-2 11.66-.8 17.63-12.13 22.4-21.2l.1-.2ZM157 183.05v-2.44c6.95-3.3 13.11-8 18.13-13.71.71 2.24 1.75 4.33 3.43 5.79 1.32 1.14 3.48 1.12 5.34 1.1l1.2.01c1.67.05 3.34.06 5.02-.02.83-.03 1.2 1.02.53 1.5a39.2 39.2 0 0 1-3.64 2.07 29.3 29.3 0 0 1-7.98 2.74c-1.92.34-3.82.4-5.66.18a9.84 9.84 0 0 0 1.7 1.94c1.41 1.22 3.72 1.2 5.7 1.19h1.28c1.79.05 3.58.06 5.36-.02.9-.04 1.3 1.09.57 1.6a41.97 41.97 0 0 1-3.88 2.22 31.24 31.24 0 0 1-8.53 2.92c-5.5.97-10.86-.18-15.19-3.7a24.9 24.9 0 0 1-3.38-3.37Z" fill="#2c1b18"/><path d="M81.32 151.6c-.75 1.54-1.51 3.07-2.31 4.6l-.1.18c-4.77 9.08-10.74 20.42-22.4 21.22-1.09.07-1.52 1.34-.67 1.99 11.12 8.45 36.43 13.6 45.44 11.98a54.4 54.4 0 0 0 7.73-1.96v-8.99a56.2 56.2 0 0 1-27.68-29ZM157 180.61v2.44a24.9 24.9 0 0 0 3.38 3.36c4.33 3.53 9.7 4.68 15.2 3.71a31.24 31.24 0 0 0 8.51-2.92 41.97 41.97 0 0 0 3.89-2.22c.72-.51.32-1.64-.57-1.6-1.78.08-3.57.07-5.35.02h-1.29c-1.98.01-4.29.03-5.7-1.2a9.84 9.84 0 0 1-1.7-1.93c1.84.22 3.74.16 5.66-.18a29.3 29.3 0 0 0 7.98-2.73 39.2 39.2 0 0 0 3.64-2.08c.68-.48.3-1.53-.53-1.5a69.9 69.9 0 0 1-5.02.02h-1.2c-1.86.01-4.02.03-5.34-1.11-1.69-1.46-2.72-3.55-3.43-5.8A56.18 56.18 0 0 1 157 180.62Z" fill="#000" fill-opacity=".16"/></g><g transform="translate(49 72)"></g><g transform="translate(62 42)"></g></g></g></svg>