<svg xmlns="http://www.w3.org/2000/svg" viewBox="0 0 280 280" fill="none" shape-rendering="auto"><metadata xmlns:rdf="http://www.w3.org/1999/02/22-rdf-syntax-ns#" xmlns:xsi="http://www.w3.org/2001/XMLSchema-instance" xmlns:dc="http://purl.org/dc/elements/1.1/" xmlns:dcterms="http://purl.org/dc/terms/"><rdf:RDF><rdf:Description><dc:title>Avataaars</dc:title><dc:creator>Pablo Stanley</dc:creator><dc:source xsi:type="dcterms:URI">https://avataaars.com/</dc:source><dcterms:license xsi:type="dcterms:URI">https://avataaars.com/</dcterms:license><dc:rights>Remix of „Avataaars” (https://avataaars.com/) by „Pablo Stanley”, licensed under „Free for personal and commercial use” (https://avataaars.com/)</dc:rights></rdf:Description></rdf:RDF></metadata><mask id="viewboxMask"><rect width="280" height="280" rx="0" ry="0" x="0" y="0" fill="#fff" /></mask><g mask="url(#viewboxMask)"><g transform="translate(8)"><path d="M132 36a56 56 0 0 0-56 56v6.17A12 12 0 0 0 66 110v14a12 12 0 0 0 10.3 11.88 56.04 56.04 0 0 0 31.7 44.73v18.4h-4a72 72 0 0 0-72 72v9h200v-9a72 72 0 0 0-72-72h-4v-18.39a56.04 56.04 0 0 0 31.7-44.73A12 12 0 0 0 198 124v-14a12 12 0 0 0-10-11.83V92a56 56 0 0 0-56-56Z" fill="#fd9841"/><path d="M108 180.61v8a55.79 55.79 0 0 0 24 5.39c8.59 0 16.73-1.93 24-5.39v-8a55.79 55.79 0 0 1-24 5.39 55.79 55.79 0 0 1-24-5.39Z" fill="#000" fill-opacity=".1"/><g transform="translate(0 170)"><path d="M132.5 51.83c18.5 0 33.5-9.62 33.5-21.48 0-.36-.01-.7-.04-1.06A72 72 0 0 1 232 101.04V110H32v-8.95a72 72 0 0 1 67.05-71.83c-.03.37-.05.75-.05 1.13 0 11.86 15 21.48 33.5 21.48Z" fill="#E6E6E6"/><path d="M132.5 58.76c21.89 0 39.63-12.05 39.63-26.91 0-.6-.02-1.2-.08-1.8-2-.33-4.03-.59-6.1-.76.04.35.05.7.05 1.06 0 11.86-15 21.48-33.5 21.48S99 42.2 99 30.35c0-.38.02-.76.05-1.13-2.06.14-4.08.36-6.08.67-.07.65-.1 1.3-.1 1.96 0 14.86 17.74 26.91 39.63 26.91Z" fill="#000" fill-opacity=".16"/><path d="M100.78 29.12 101 28c-2.96.05-6 1-6 1l-.42.66A72.01 72.01 0 0 0 32 101.06V110h74s-10.7-51.56-5.24-80.8l.02-.08ZM158 110s11-53 5-82c2.96.05 6 1 6 1l.42.66a72.01 72.01 0 0 1 62.58 71.4V110h-74Z" fill="#65c9ff"/><path d="M101 28c-6 29 5 82 5 82H90L76 74l6-9-6-6 19-30s3.04-.95 6-1ZM163 28c6 29-5 82-5 82h16l14-36-6-9 6-6-19-30s-3.04-.95-6-1Z" fill-rule="evenodd" clip-rule="evenodd" fill="#000" fill-opacity=".15"/><path d="m183.42 85.77.87-2.24 6.27-4.7a4 4 0 0 1 4.85.05l6.6 5.12-18.59 1.77Z" fill="#E6E6E6"/></g><g transform="translate(78 134)"><path fill-rule="evenodd" clip-rule="evenodd" d="M40 15a14 14 0 1 0 28 0" fill="#000" fill-opacity=".7"/></g><g transform="translate(104 122)"><path fill-rule="evenodd" clip-rule="evenodd" d="M16 8c0 4.42 5.37 8 12 8s12-3.58 12-8" fill="#000" fill-opacity=".16"/></g><g transform="translate(76 90)"><path d="M35.96 10c-2.55 0-5.08 1.98-6.46 3.82-1.39-1.84-3.9-3.82-6.46-3.82-5.49 0-9.04 3.33-9.04 7.64 0 5.73 4.41 9.13 9.04 12.74 1.66 1.23 4.78 4.4 5.17 5.1.38.68 2.1.7 2.58 0 .48-.73 3.51-3.87 5.17-5.1 4.63-3.6 9.04-7 9.04-12.74 0-4.3-3.55-7.64-9.04-7.64ZM88.96 10c-2.55 0-5.08 1.98-6.46 3.82-1.39-1.84-3.9-3.82-6.46-3.82-5.49 0-9.04 3.33-9.04 7.64 0 5.73 4.41 9.13 9.04 12.74 1.65 1.23 4.78 4.4 5.17 5.1.38.68 2.1.7 2.58 0 .48-.73 3.51-3.87 5.17-5.1 4.63-3.6 9.04-7 9.04-12.74 0-4.3-3.55-7.64-9.04-7.64Z" fill="#FF5353" fill-opacity=".8"/></g><g transform="translate(76 82)"><path d="M15.6 14.16c4.49-6.32 14-9.5 23.75-6.36a2 2 0 1 0 1.23-3.81c-11.41-3.68-22.74.1-28.25 7.85a2 2 0 1 0 3.26 2.32ZM96.38 21.16c-3.92-5.51-14.65-8.6-23.9-6.33a2 2 0 0 1-.95-3.88c10.74-2.64 23.17.94 28.1 7.9a2 2 0 1 1-3.25 2.3Z" fill="#000" fill-opacity=".6"/></g><g transform="translate(-1)"><path d="M151.12 28.28c3.06-2.97 4.88-6.71 4.88-10.78C156 7.84 145.7 0 133 0s-23 7.84-23 17.5c0 4.1 1.85 7.86 4.94 10.84-.99.22-1.95.45-2.9.69-15.1 3.8-24.02 14.62-31.68 30.62a67.68 67.68 0 0 0-6.34 25.83c-.13 3.41.33 6.94 1.25 10.22.33 1.2 2.15 5.39 2.65 2 .1-.66-.07-1.47-.24-2.27-.12-.55-.23-1.1-.26-1.6-.08-1.56 0-3.15.11-4.72.2-2.92.73-5.8 1.65-8.59 1.33-3.98 3.02-8.3 5.6-11.67.97-1.25 1.88-2.7 2.88-4.27 5.63-8.9 13.68-21.6 45.34-22.9 34.3-1.42 46.78 21.66 51.21 29.87.38.7.7 1.3.97 1.75 2.67 4.53 2.78 9.75 2.9 14.91.05 2.71.11 5.41.54 8 .47 2.84 1.54 2.78 2.13.23 1-4.33 1.47-8.83 1.15-13.28-.72-10.05-4.4-36.45-24.6-48.15a65.52 65.52 0 0 0-16.18-6.73Z" fill="#724133"/></g><g transform="translate(49 72)"></g><g transform="translate(62 42)"></g></g></g></svg>