<svg xmlns="http://www.w3.org/2000/svg" viewBox="0 0 280 280" fill="none" shape-rendering="auto"><metadata xmlns:rdf="http://www.w3.org/1999/02/22-rdf-syntax-ns#" xmlns:xsi="http://www.w3.org/2001/XMLSchema-instance" xmlns:dc="http://purl.org/dc/elements/1.1/" xmlns:dcterms="http://purl.org/dc/terms/"><rdf:RDF><rdf:Description><dc:title>Avataaars</dc:title><dc:creator>Pablo Stanley</dc:creator><dc:source xsi:type="dcterms:URI">https://avataaars.com/</dc:source><dcterms:license xsi:type="dcterms:URI">https://avataaars.com/</dcterms:license><dc:rights>Remix of „Avataaars” (https://avataaars.com/) by „Pablo Stanley”, licensed under „Free for personal and commercial use” (https://avataaars.com/)</dc:rights></rdf:Description></rdf:RDF></metadata><mask id="viewboxMask"><rect width="280" height="280" rx="0" ry="0" x="0" y="0" fill="#fff" /></mask><g mask="url(#viewboxMask)"><g transform="translate(8)"><path d="M132 36a56 56 0 0 0-56 56v6.17A12 12 0 0 0 66 110v14a12 12 0 0 0 10.3 11.88 56.04 56.04 0 0 0 31.7 44.73v18.4h-4a72 72 0 0 0-72 72v9h200v-9a72 72 0 0 0-72-72h-4v-18.39a56.04 56.04 0 0 0 31.7-44.73A12 12 0 0 0 198 124v-14a12 12 0 0 0-10-11.83V92a56 56 0 0 0-56-56Z" fill="#edb98a"/><path d="M108 180.61v8a55.79 55.79 0 0 0 24 5.39c8.59 0 16.73-1.93 24-5.39v-8a55.79 55.79 0 0 1-24 5.39 55.79 55.79 0 0 1-24-5.39Z" fill="#000" fill-opacity=".1"/><g transform="translate(0 170)"><path d="M132.5 51.83c18.5 0 33.5-9.62 33.5-21.48 0-.36-.01-.7-.04-1.06A72 72 0 0 1 232 101.04V110H32v-8.95a72 72 0 0 1 67.05-71.83c-.03.37-.05.75-.05 1.13 0 11.86 15 21.48 33.5 21.48Z" fill="#E6E6E6"/><path d="M132.5 58.76c21.89 0 39.63-12.05 39.63-26.91 0-.6-.02-1.2-.08-1.8-2-.33-4.03-.59-6.1-.76.04.35.05.7.05 1.06 0 11.86-15 21.48-33.5 21.48S99 42.2 99 30.35c0-.38.02-.76.05-1.13-2.06.14-4.08.36-6.08.67-.07.65-.1 1.3-.1 1.96 0 14.86 17.74 26.91 39.63 26.91Z" fill="#000" fill-opacity=".16"/><path d="M100.78 29.12 101 28c-2.96.05-6 1-6 1l-.42.66A72.01 72.01 0 0 0 32 101.06V110h74s-10.7-51.56-5.24-80.8l.02-.08ZM158 110s11-53 5-82c2.96.05 6 1 6 1l.42.66a72.01 72.01 0 0 1 62.58 71.4V110h-74Z" fill="#b1e2ff"/><path d="M101 28c-6 29 5 82 5 82H90L76 74l6-9-6-6 19-30s3.04-.95 6-1ZM163 28c6 29-5 82-5 82h16l14-36-6-9 6-6-19-30s-3.04-.95-6-1Z" fill-rule="evenodd" clip-rule="evenodd" fill="#000" fill-opacity=".15"/><path d="m183.42 85.77.87-2.24 6.27-4.7a4 4 0 0 1 4.85.05l6.6 5.12-18.59 1.77Z" fill="#E6E6E6"/></g><g transform="translate(78 134)"><path d="M28 26.24c1.36.5 2.84.76 4.4.76 5.31 0 9.81-3.15 11.29-7.49 2.47 2.17 6.17 3.54 10.31 3.54 4.14 0 7.84-1.37 10.31-3.53 1.48 4.35 5.98 7.5 11.3 7.5 1.55 0 3.03-.27 4.4-.76h-.19c-6.33 0-11.8-4.9-11.8-10.56 0-4.18 2.32-7.72 5.69-9.68-5.5.8-9.73 5-9.9 10.1a17.61 17.61 0 0 1-9.8 2.8c-3.8 0-7.25-1.06-9.8-2.8-.18-5.1-4.4-9.3-9.9-10.1a11.18 11.18 0 0 1 5.68 9.68c0 5.66-5.47 10.57-11.8 10.57H28Z" fill="#000" fill-opacity=".6" opacity=".6"/><path d="M17 24a9 9 0 1 0 0-18 9 9 0 0 0 0 18ZM91 24a9 9 0 1 0 0-18 9 9 0 0 0 0 18Z" fill="#FF4646" fill-opacity=".2"/></g><g transform="translate(104 122)"><path fill-rule="evenodd" clip-rule="evenodd" d="M16 8c0 4.42 5.37 8 12 8s12-3.58 12-8" fill="#000" fill-opacity=".16"/></g><g transform="translate(76 90)"><path d="M25 27s-6 7.27-6 11.27a6 6 0 1 0 12 0c0-4-6-11.27-6-11.27Z" fill="#92D9FF"/><path d="M36 22a6 6 0 1 1-12 0 6 6 0 0 1 12 0ZM88 22a6 6 0 1 1-12 0 6 6 0 0 1 12 0Z" fill="#000" fill-opacity=".6"/></g><g transform="translate(76 82)"><path d="M15.98 17.13C17.48 7.6 30.06 1.1 39.16 5.3a2 2 0 1 0 1.68-3.63c-11.5-5.3-26.9 2.66-28.82 14.84a2 2 0 0 0 3.96.63ZM96.02 17.13C94.52 7.6 81.94 1.1 72.84 5.3a2 2 0 1 1-1.68-3.63c11.5-5.3 26.9 2.66 28.82 14.84a2 2 0 0 1-3.96.63Z" fill="#000" fill-opacity=".6"/></g><g transform="translate(-1)"><path d="M188.32 138.76C227.9 129.26 255 109.87 255 87.5c0-23.5-29.92-43.72-72.8-52.63l-.31-1.43A40 40 0 0 0 142.82 2h-18.64a40 40 0 0 0-39.07 31.44l-.27 1.21C41.41 43.45 11 63.8 11 87.5c0 22.37 27.1 41.76 66.68 51.26-.2-1.28-.36-2.58-.47-3.9A12 12 0 0 1 67 123v-13a12 12 0 0 1 10-11.83V92c0-8 1.68-15.62 4.7-22.51 8.61-15.69 92.73-16.49 102.66.16A55.82 55.82 0 0 1 189 92v6.17A12 12 0 0 1 199 110v13a12 12 0 0 1-10.2 11.87 56.06 56.06 0 0 1-.48 3.9Z" fill="#262e33"/><path d="M189 92.74c3.85-3.25 6-6.9 6-10.74 0-6.08-5.38-11.65-14.32-15.98 1.64 1.1 2.9 2.3 3.68 3.63A55.82 55.82 0 0 1 189 92v.74ZM157.26 58.99a144.36 144.36 0 0 0-24.26-2c-8.98 0-17.52.78-25.22 2.17 15.16-2.2 34.11-2.3 49.48-.17ZM84.69 66.33C76.12 70.62 71 76.07 71 82c0 3.85 2.15 7.49 6 10.74V92c0-8 1.68-15.62 4.7-22.51a9.94 9.94 0 0 1 2.99-3.16Z" fill="#000" fill-opacity=".5"/></g><g transform="translate(49 72)"></g><g transform="translate(62 42)"></g></g></g></svg>