<svg xmlns="http://www.w3.org/2000/svg" viewBox="0 0 280 280" fill="none" shape-rendering="auto"><metadata xmlns:rdf="http://www.w3.org/1999/02/22-rdf-syntax-ns#" xmlns:xsi="http://www.w3.org/2001/XMLSchema-instance" xmlns:dc="http://purl.org/dc/elements/1.1/" xmlns:dcterms="http://purl.org/dc/terms/"><rdf:RDF><rdf:Description><dc:title>Avataaars</dc:title><dc:creator>Pablo Stanley</dc:creator><dc:source xsi:type="dcterms:URI">https://avataaars.com/</dc:source><dcterms:license xsi:type="dcterms:URI">https://avataaars.com/</dcterms:license><dc:rights>Remix of „Avataaars” (https://avataaars.com/) by „Pablo Stanley”, licensed under „Free for personal and commercial use” (https://avataaars.com/)</dc:rights></rdf:Description></rdf:RDF></metadata><mask id="viewboxMask"><rect width="280" height="280" rx="0" ry="0" x="0" y="0" fill="#fff" /></mask><g mask="url(#viewboxMask)"><g transform="translate(8)"><path d="M132 36a56 56 0 0 0-56 56v6.17A12 12 0 0 0 66 110v14a12 12 0 0 0 10.3 11.88 56.04 56.04 0 0 0 31.7 44.73v18.4h-4a72 72 0 0 0-72 72v9h200v-9a72 72 0 0 0-72-72h-4v-18.39a56.04 56.04 0 0 0 31.7-44.73A12 12 0 0 0 198 124v-14a12 12 0 0 0-10-11.83V92a56 56 0 0 0-56-56Z" fill="#edb98a"/><path d="M108 180.61v8a55.79 55.79 0 0 0 24 5.39c8.59 0 16.73-1.93 24-5.39v-8a55.79 55.79 0 0 1-24 5.39 55.79 55.79 0 0 1-24-5.39Z" fill="#000" fill-opacity=".1"/><g transform="translate(0 170)"><path d="M132.5 54C151 54 166 44.37 166 32.5c0-1.1-.13-2.18-.38-3.23A72 72 0 0 1 232 101.05V110H32v-8.95A72 72 0 0 1 99.4 29.2a14.1 14.1 0 0 0-.4 3.3C99 44.37 114 54 132.5 54Z" fill="#a7ffc4"/><g transform="translate(77 58)"><path d="M10.27 30.13c3.28-.56 5.73-3.55 5.18-6.79-.46-2.72-1.74-.34-2.97.86-1.34 1.3-2.45 2.57-4.54 2.05-3.6-.9-4.86-5.4-3.84-8.48a5.94 5.94 0 0 1 3.48-3.7c1.85-.74 3.2.1 4.75 1.1.28.19 1.73 1.37 2 1.25.45-.21.1-2.43.04-2.73a4.8 4.8 0 0 0-2.62-3.24c-3.34-1.64-7.52.48-9.64 3.05-4.88 5.9-.91 18.17 8.17 16.62ZM20.28 11.04Zm-1.6 12.86c.51 3.48 2.99 6.5 6.96 6.36 4.28-.16 6.06-4.1 7-7.49.97-3.4 2.06-7.68.67-11.09-.42-1.03-.68-2.38-1.71-1.53-1.26 1.03-1.41 4.04-1.52 5.44-.2 2.65-.78 9.97-4.1 10.95-4.18 1.22-4.05-5.85-4-7.98.03-1.9.24-3.73-.35-5.58-.31-.99-.59-2.44-1.53-1.64-1.29 1.11-1.45 3.83-1.54 5.33-.14 2.4-.21 4.84.13 7.23ZM37.78 26.75c.2.4.63 1.4 1.02 1.67.95.67-.05.71.8-.05.82-.73 1.13-2.72 1.26-3.67.38-2.96-.12-6.11-.09-9.1 1.02 2.22 1.58 4.59 2.39 6.88.55 1.58 1.4 4.8 3.65 4.75 2.45-.05 2.58-3.14 2.9-4.82.47-2.37.97-4.72 1.68-7.04.1 3.91-1.43 11 2.1 13.92.02.02 1.44-4.15 1.47-4.4.23-1.7.09-3.45.11-5.15.05-3.6.72-8-.3-11.5-.33-1.14-.97-2.27-2.4-2.24-1.83.04-2.24 1.99-2.7 3.3a114.02 114.02 0 0 0-3.36 10.94c-.55-1.68-5.34-16.42-8.8-10.9-.55.89-.3 2.22-.33 3.2-.04 1.87-.15 3.75-.2 5.63-.06 2.84-.4 5.9.81 8.58ZM62.02 13.71c.72-.14 5.74-1.73 5.52-.14-.22 1.68-4.63 3.31-5.81 3.88 0-1.2-.24-2.44-.65-3.57l.94-.17Zm5.72-.64c-.03-.04 0 0 0 0Zm.12 8.34c2.27 1.22 1.29 3.42-.43 4.6-.65.47-6.53 1.82-6.51 1.68.18-1.69-.26-5.01 1-6.01 1.3-1.04 4.5-.81 5.94-.26Zm.06-8s.01.03 0 0Zm-9.98 16.85c.23.55.86 1.91 1.57 1.94.86.04.8-1.04.93-1.7 3.44 1.72 8.5-.05 10.9-3.03a6.15 6.15 0 0 0-2.57-9.75c2.1-1.69 4.02-5.4 1.25-7.49a7.68 7.68 0 0 0-8.12-.3c-2.74 1.72-3.85 5.83-4.1 9-.25 3.39-1.15 8.13.14 11.33ZM76.05 21.87c.07 2.07-.15 4.29.33 6.3.17.72.44 1.52.76 2.17.61 1.21.31 1.05 1.03.36 2.18-2.08 1.21-8.58 1.16-11.25-.04-2.08.06-4.28-.51-6.28-.16-.56-1.12-3.35-1.66-3.29-.81.1-1.37 3.93-1.42 4.7-.15 2.4.23 4.9.31 7.3ZM94.75 22.43c-1.58-.14-3.62.07-5.12.56.7-1.92 1.48-4.06 2.24-5.8.47-1.08.97-2.16 1.5-3.23 1.27 2.68 1.98 5.82 2.82 8.66-.47-.08-.96-.15-1.44-.19Zm5.44.72c-.73-2.77-1.58-5.53-2.43-8.27-.54-1.75-1.13-3.92-2.6-5.17-4.16-3.56-6.52 5.85-7.55 8.23-.98 2.3-2.21 4.63-2.85 7.05a9.48 9.48 0 0 0-.24 3.64c.2 1.52 0 1.74 1.3.91 1-.63 1.4-1.79 2.22-2.56.14-.14.22-.68.4-.76.18-.1 1.5.25 1.8.27 2.18.16 4.72-.2 6.72-1.04.2.84 1.63 5.96 2.98 5.77.6-.08.96-3.06 1-3.54.08-1.55-.36-3.05-.75-4.54ZM109.3 9.43c-.26-1.2-.81-3.29-1.84-2.11-1.4 1.6-1.1 5.17-1.11 7.18-.02 1.45-1.55 12.06.56 11.88-.1 0 .84-1.67.98-1.92a12.37 12.37 0 0 0 1.32-4.72c.37-3.24.79-7.12.1-10.3ZM108.16 30.3c-2.23-2.73-6.3.66-5.04 3.38 1.73 3.7 7.33-.57 5.04-3.38ZM94.9 34.54c-2.9-.73-6.3-.24-9.25-.15-3.08.1-6.16.27-9.24.36-6.57.2-13.13.1-19.7.04-12.44-.1-24.92.69-37.37.17-2.67-.12-5.54-.72-8.2-.21-.72.14-3 .54-3.32 1.26-.34.76 1.4 1.56 2.33 1.96 2.42 1.04 5.33.86 7.9.96 2.93.12 5.89.06 8.82-.01 12.07-.3 24.09-1.34 36.18-1.17 6.97.1 13.93.04 20.9 0 3.33-.01 7 .53 10.28-.06.55-.1 3.76-.85 3.8-1.83.03-.46-2.8-1.23-3.12-1.32Z" fill-rule="evenodd" clip-rule="evenodd" fill="#fff"/></g></g><g transform="translate(78 134)"><path fill-rule="evenodd" clip-rule="evenodd" d="M34 38.86C35.14 24.88 38.24 13.01 54 13c15.76 0 18.92 11.94 20 26 .08 1.12-.83 2-1.96 2-6.69 0-9.37-2-18.05-2-8.7 0-13.24 2-17.9 2-1.15 0-2.2-.74-2.1-2.14Z" fill="#000" fill-opacity=".7"/><path d="M67.02 17.57c-.61.28-1.3.43-2.02.43H44c-.98 0-1.9-.28-2.67-.77C44.23 14.57 48.28 13 54 13c5.95 0 10.1 1.7 13.02 4.57Z" fill="#fff"/><path d="M69.8 40.92a44.2 44.2 0 0 1-5.54-.82c-2.73-.53-5.65-1.1-10.27-1.1-5.02 0-8.66.66-11.74 1.23-1.45.26-2.77.5-4.06.65A11 11 0 0 1 54 33.2a11 11 0 0 1 15.8 7.72Z" fill="#FF4F6D"/></g><g transform="translate(104 122)"><path fill-rule="evenodd" clip-rule="evenodd" d="M16 8c0 4.42 5.37 8 12 8s12-3.58 12-8" fill="#000" fill-opacity=".16"/></g><g transform="translate(76 90)"><circle cx="82" cy="22" r="12" fill="#fff"/><circle cx="82" cy="22" r="6" fill="#000" fill-opacity=".7"/><path fill-rule="evenodd" clip-rule="evenodd" d="M16.16 25.45c1.85-3.8 6-6.45 10.84-6.45 4.81 0 8.96 2.63 10.82 6.4.55 1.13-.24 2.05-1.03 1.37a15.05 15.05 0 0 0-9.8-3.43c-3.73 0-7.12 1.24-9.55 3.23-.9.73-1.82-.01-1.28-1.12Z" fill="#000" fill-opacity=".6"/></g><g transform="translate(76 82)"><path d="M38.03 5.6c-1.48 8.38-14.1 14.17-23.24 10.42a2.04 2.04 0 0 0-2.64 1c-.43.97.04 2.1 1.05 2.5 11.45 4.7 26.84-2.37 28.76-13.3a1.92 1.92 0 0 0-1.64-2.2 2 2 0 0 0-2.3 1.57ZM73.97 5.6c1.48 8.38 14.1 14.17 23.24 10.42 1.02-.41 2.2.03 2.63 1 .43.97-.04 2.1-1.05 2.5-11.44 4.7-26.84-2.37-28.76-13.3a1.92 1.92 0 0 1 1.64-2.2 2 2 0 0 1 2.3 1.57Z" fill="#000" fill-opacity=".6"/></g><g transform="translate(-1)"><path d="M86.67 68H64v112.91a4.09 4.09 0 0 0 4.09 4.1 18.58 18.58 0 0 0 18.58-18.6V68ZM202 68h-22.67v112.91a4.09 4.09 0 0 0 4.09 4.1A18.58 18.58 0 0 0 202 166.4V68Z" fill="#F4F4F4"/><path d="M63 64a44 44 0 0 1 44-44h52a44 44 0 0 1 44 44v104.6a16.4 16.4 0 0 1-16.4 16.4c-1.98 0-3.6-1.62-3.6-3.6V74H83v94.6A16.4 16.4 0 0 1 66.6 185c-1.99 0-3.6-1.62-3.6-3.6V64Z" fill="#ffffb1"/><rect x="74" y="52" width="118" height="36" rx="8" fill="#000" fill-opacity=".1"/><rect x="74" y="50" width="118" height="36" rx="8" fill="#F4F4F4"/></g><g transform="translate(49 72)"></g><g transform="translate(62 42)"></g></g></g></svg>