<svg xmlns="http://www.w3.org/2000/svg" viewBox="0 0 280 280" fill="none" shape-rendering="auto"><metadata xmlns:rdf="http://www.w3.org/1999/02/22-rdf-syntax-ns#" xmlns:xsi="http://www.w3.org/2001/XMLSchema-instance" xmlns:dc="http://purl.org/dc/elements/1.1/" xmlns:dcterms="http://purl.org/dc/terms/"><rdf:RDF><rdf:Description><dc:title>Avataaars</dc:title><dc:creator>Pablo Stanley</dc:creator><dc:source xsi:type="dcterms:URI">https://avataaars.com/</dc:source><dcterms:license xsi:type="dcterms:URI">https://avataaars.com/</dcterms:license><dc:rights>Remix of „Avataaars” (https://avataaars.com/) by „Pablo Stanley”, licensed under „Free for personal and commercial use” (https://avataaars.com/)</dc:rights></rdf:Description></rdf:RDF></metadata><mask id="viewboxMask"><rect width="280" height="280" rx="0" ry="0" x="0" y="0" fill="#fff" /></mask><g mask="url(#viewboxMask)"><g transform="translate(8)"><path d="M132 36a56 56 0 0 0-56 56v6.17A12 12 0 0 0 66 110v14a12 12 0 0 0 10.3 11.88 56.04 56.04 0 0 0 31.7 44.73v18.4h-4a72 72 0 0 0-72 72v9h200v-9a72 72 0 0 0-72-72h-4v-18.39a56.04 56.04 0 0 0 31.7-44.73A12 12 0 0 0 198 124v-14a12 12 0 0 0-10-11.83V92a56 56 0 0 0-56-56Z" fill="#d08b5b"/><path d="M108 180.61v8a55.79 55.79 0 0 0 24 5.39c8.59 0 16.73-1.93 24-5.39v-8a55.79 55.79 0 0 1-24 5.39 55.79 55.79 0 0 1-24-5.39Z" fill="#000" fill-opacity=".1"/><g transform="translate(0 170)"><path d="M132.5 65.83c27.34 0 49.5-13.2 49.5-29.48 0-1.37-.16-2.7-.46-4.02A72.03 72.03 0 0 1 232 101.05V110H32v-8.95A72.03 72.03 0 0 1 83.53 32a18 18 0 0 0-.53 4.35c0 16.28 22.16 29.48 49.5 29.48Z" fill="#929598"/></g><g transform="translate(78 134)"><path fill-rule="evenodd" clip-rule="evenodd" d="M40 29a14 14 0 1 1 28 0" fill="#000" fill-opacity=".7"/></g><g transform="translate(104 122)"><path fill-rule="evenodd" clip-rule="evenodd" d="M16 8c0 4.42 5.37 8 12 8s12-3.58 12-8" fill="#000" fill-opacity=".16"/></g><g transform="translate(76 90)"><path d="M35.96 10c-2.55 0-5.08 1.98-6.46 3.82-1.39-1.84-3.9-3.82-6.46-3.82-5.49 0-9.04 3.33-9.04 7.64 0 5.73 4.41 9.13 9.04 12.74 1.66 1.23 4.78 4.4 5.17 5.1.38.68 2.1.7 2.58 0 .48-.73 3.51-3.87 5.17-5.1 4.63-3.6 9.04-7 9.04-12.74 0-4.3-3.55-7.64-9.04-7.64ZM88.96 10c-2.55 0-5.08 1.98-6.46 3.82-1.39-1.84-3.9-3.82-6.46-3.82-5.49 0-9.04 3.33-9.04 7.64 0 5.73 4.41 9.13 9.04 12.74 1.65 1.23 4.78 4.4 5.17 5.1.38.68 2.1.7 2.58 0 .48-.73 3.51-3.87 5.17-5.1 4.63-3.6 9.04-7 9.04-12.74 0-4.3-3.55-7.64-9.04-7.64Z" fill="#FF5353" fill-opacity=".8"/></g><g transform="translate(76 82)"><path d="M26.55 6.15c-5.8.27-15.2 4.49-14.96 10.34.01.18.3.27.43.12 2.76-2.96 22.32-5.95 29.2-4.36.64.14 1.12-.48.72-.93-3.43-3.85-10.2-5.43-15.4-5.18ZM86.45 6.15c5.8.27 15.2 4.49 14.96 10.34-.01.18-.3.27-.43.12-2.76-2.96-22.32-5.95-29.2-4.36-.64.14-1.12-.48-.72-.93 3.43-3.85 10.2-5.43 15.4-5.18Z" fill-rule="evenodd" clip-rule="evenodd" fill="#000" fill-opacity=".6"/></g><g transform="translate(-1)"><path fill-rule="evenodd" clip-rule="evenodd" d="M183.68 38.95c5.4-4.95 6.7-14.99 3.64-21.5-3.77-8-11.42-9-18.75-5.48-6.9 3.31-13.06 4.42-20.62 2.81-7.26-1.54-14.14-4.26-21.65-4.7-12.32-.74-24.3 3.83-32.7 13.05a35.75 35.75 0 0 0-4.11 5.8c-.98 1.63-2.08 3.38-2.5 5.26-.2.9.18 3.1-.27 3.83-.48.8-2.3 1.52-3.07 2.1a25.02 25.02 0 0 0-4.18 4.05c-2.66 3.22-4.13 6.59-5.37 10.57-4.1 13.25-4.45 29 .86 42 .7 1.74 2.9 5.36 4.18 1.64.26-.73-.33-3.19-.33-3.93 0-2.72 1.5-20.73 8.05-30.82 2.13-3.28 11.97-15.58 13.98-15.68 1.07 1.7 11.88 12.51 39.94 11.24 12.66-.58 22.4-6.27 24.74-8.73 1.03 5.53 13 13.81 14.82 17.22 5.26 9.85 6.43 30.3 8.44 30.27 2.01-.04 3.45-5.24 3.87-6.23 3.07-7.38 3.6-16.64 3.26-24.56-.42-10.2-4.63-21.23-12.23-28.22Z" fill="#d6b370"/></g><g transform="translate(49 72)"></g><g transform="translate(62 42)"></g></g></g></svg>