<svg xmlns="http://www.w3.org/2000/svg" viewBox="0 0 280 280" fill="none" shape-rendering="auto"><metadata xmlns:rdf="http://www.w3.org/1999/02/22-rdf-syntax-ns#" xmlns:xsi="http://www.w3.org/2001/XMLSchema-instance" xmlns:dc="http://purl.org/dc/elements/1.1/" xmlns:dcterms="http://purl.org/dc/terms/"><rdf:RDF><rdf:Description><dc:title>Avataaars</dc:title><dc:creator>Pablo Stanley</dc:creator><dc:source xsi:type="dcterms:URI">https://avataaars.com/</dc:source><dcterms:license xsi:type="dcterms:URI">https://avataaars.com/</dcterms:license><dc:rights>Remix of „Avataaars” (https://avataaars.com/) by „Pablo Stanley”, licensed under „Free for personal and commercial use” (https://avataaars.com/)</dc:rights></rdf:Description></rdf:RDF></metadata><mask id="viewboxMask"><rect width="280" height="280" rx="0" ry="0" x="0" y="0" fill="#fff" /></mask><g mask="url(#viewboxMask)"><g transform="translate(8)"><path d="M132 36a56 56 0 0 0-56 56v6.17A12 12 0 0 0 66 110v14a12 12 0 0 0 10.3 11.88 56.04 56.04 0 0 0 31.7 44.73v18.4h-4a72 72 0 0 0-72 72v9h200v-9a72 72 0 0 0-72-72h-4v-18.39a56.04 56.04 0 0 0 31.7-44.73A12 12 0 0 0 198 124v-14a12 12 0 0 0-10-11.83V92a56 56 0 0 0-56-56Z" fill="#fd9841"/><path d="M108 180.61v8a55.79 55.79 0 0 0 24 5.39c8.59 0 16.73-1.93 24-5.39v-8a55.79 55.79 0 0 1-24 5.39 55.79 55.79 0 0 1-24-5.39Z" fill="#000" fill-opacity=".1"/><g transform="translate(0 170)"><path d="M108 14.7c-15.52 3.68-27.1 10.83-30.77 19.44A72.02 72.02 0 0 0 32 101v9h200v-9a72.02 72.02 0 0 0-45.23-66.86C183.1 25.53 171.52 18.38 156 14.7V32a24 24 0 1 1-48 0V14.7Z" fill="#e6e6e6"/><path d="M102 63.34a67.1 67.1 0 0 1-7-2.82V110h7V63.34ZM162 63.34a67.04 67.04 0 0 0 7-2.82V98.5a3.5 3.5 0 1 1-7 0V63.34Z" fill="#F4F4F4"/><path d="M187.62 34.49a71.79 71.79 0 0 1 10.83 5.63C197.11 55.62 167.87 68 132 68c30.93 0 56-13.43 56-30 0-1.19-.13-2.36-.38-3.51ZM76.38 34.49a16.48 16.48 0 0 0-.38 3.5c0 16.58 25.07 30 56 30-35.87 0-65.1-12.38-66.45-27.88a71.79 71.79 0 0 1 10.83-5.63Z" fill="#000" fill-opacity=".16"/></g><g transform="translate(78 134)"><path fill-rule="evenodd" clip-rule="evenodd" d="M29 15.6C30.41 25.24 41.06 33 54 33c12.97 0 23.65-7.82 25-18.26.1-.4-.22-1.74-2.17-1.74H31.17c-1.79 0-2.3 1.24-2.17 2.6Z" fill="#000" fill-opacity=".7"/><path d="M70 13H39a5 5 0 0 0 5 5h21a5 5 0 0 0 5-5Z" fill="#fff"/><path d="M43 23.5a1.88 1.88 0 0 0 0 .13v8.87a11.5 11.5 0 1 0 23 0v-8.87a1.62 1.62 0 0 0 0-.13c0-1.93-2.91-3.5-6.5-3.5-2.01 0-3.8.5-5 1.26a9.45 9.45 0 0 0-5-1.26c-3.59 0-6.5 1.57-6.5 3.5Z" fill="#FF4F6D"/></g><g transform="translate(104 122)"><path fill-rule="evenodd" clip-rule="evenodd" d="M16 8c0 4.42 5.37 8 12 8s12-3.58 12-8" fill="#000" fill-opacity=".16"/></g><g transform="translate(76 90)"><path d="M44 22a14 14 0 1 1-28 0 14 14 0 0 1 28 0ZM96 22a14 14 0 1 1-28 0 14 14 0 0 1 28 0Z" fill="#fff"/><path d="M36 14a6 6 0 1 1-12 0 6 6 0 0 1 12 0ZM88 14a6 6 0 1 1-12 0 6 6 0 0 1 12 0Z" fill="#000" fill-opacity=".7"/></g><g transform="translate(76 82)"><path d="M15.98 17.13C17.48 7.6 30.06 1.1 39.16 5.3a2 2 0 1 0 1.68-3.63c-11.5-5.3-26.9 2.66-28.82 14.84a2 2 0 0 0 3.96.63ZM96.02 17.13C94.52 7.6 81.94 1.1 72.84 5.3a2 2 0 1 1-1.68-3.63c11.5-5.3 26.9 2.66 28.82 14.84a2 2 0 0 1-3.96.63Z" fill="#000" fill-opacity=".6"/></g><g transform="translate(-1)"><path fill-rule="evenodd" clip-rule="evenodd" d="M66 77.34c-.66 3.79-1 7.68-1 11.66v48c0 .97.02 1.94.06 2.9L65 142c.14 3.68-1.86 11.8-4.34 21.9-3.88 15.77-8.94 36.4-8.94 52.55 0 13.01 1.98 22.84 3.89 32.3 1.97 9.78 3.86 19.16 3.39 31.25h47s-.95-13.2-2.47-26.36c10.05 10.2 22.82 16.84 39.05 16.84 70.55 0 77.62-53.83 77.62-65.24 0-6.04-4.32-10.88-8.39-15.44-3.6-4.05-7.02-7.87-7-12.1 0-4.35 1.02-7.39 2.07-10.52 1.12-3.33 2.27-6.75 2.27-11.96 0-5.82-1.43-7.5-2.9-9.25a10.7 10.7 0 0 1-2.8-5.62c-.88-4.54-1.86-14.32-2.45-20.77V89A68 68 0 0 0 66.04 77.08L66 77v.34ZM133 53c-30.1 0-55 24.4-55 54.5v23c0 30.1 24.9 54.5 55 54.5s55-24.4 55-54.5v-23c0-30.1-24.9-54.5-55-54.5Z" fill="#ffafb9"/><path d="M193.93 104.96A61.4 61.4 0 0 0 195 93.5c0-33.97-27.76-61.5-62-61.5-34.24 0-62 27.53-62 61.5 0 3.92.37 7.75 1.07 11.46a61 61 0 0 1 121.86 0Z" fill="#fff" fill-opacity=".5"/><path d="M78.07 104.69c-.05.93-.07 1.87-.07 2.81v23c0 30.1 24.9 54.5 55 54.5s55-24.4 55-54.5v-23c0-.94-.02-1.88-.07-2.81.7 3.5 1.07 7.1 1.07 10.81v23a54.5 54.5 0 0 1-54.5 54.5h-3A54.5 54.5 0 0 1 77 138.5v-23c0-3.7.37-7.32 1.07-10.81ZM187.05 194.14c-4.39 6.9-17.9 13.66-34.65 16.62-16.74 2.95-31.75 1.22-38.23-3.76.02.26.05.52.1.78 1.7 9.69 19.42 14.67 39.57 11.12 20.15-3.56 35.1-14.3 33.38-23.99-.04-.26-.1-.51-.17-.77ZM198.66 209.49c-2.64 9.6-14.87 20.2-31.56 26.28-16.68 6.07-32.87 5.8-41.06.15.1.34.2.67.32 1 4.53 12.44 24.47 16.6 44.55 9.3 20.07-7.31 32.67-23.32 28.15-35.75-.12-.34-.26-.66-.4-.98Z" opacity=".9" fill="#000" fill-opacity=".16"/></g><g transform="translate(49 72)"><path fill-rule="evenodd" clip-rule="evenodd" d="M101.43 98.17c-2.52 2.3-5.2 3.32-8.58 2.6-.58-.12-2.95-4.54-8.85-4.54-5.9 0-8.27 4.42-8.85 4.54-3.39.72-6.07-.3-8.58-2.6-4.72-4.31-8.65-10.26-6.3-16.75 1.24-3.38 3.24-7.1 6.88-8.17 3.89-1.15 9.35 0 13.26-.8A8.6 8.6 0 0 0 84 71a8.6 8.6 0 0 0 3.58 1.46c3.92.78 9.38-.36 13.27.79 3.64 1.07 5.64 4.79 6.87 8.17 2.36 6.49-1.57 12.44-6.3 16.75ZM140.08 26c-3.4 8.4-2.1 18.86-2.72 27.68-.52 7.16-2.02 17.9-8.39 22.53-3.25 2.37-9.18 6.35-13.43 5.24-2.93-.76-3.24-9.16-7.09-12.3a22.42 22.42 0 0 0-15.3-4.9c-2.37.11-7.17.09-9.15 1.91-1.98-1.82-6.78-1.8-9.15-1.9a22.42 22.42 0 0 0-15.3 4.89c-3.85 3.14-4.16 11.54-7.1 12.3-4.24 1.1-10.17-2.87-13.42-5.24-6.37-4.62-7.87-15.37-8.39-22.53-.63-8.82.69-19.28-2.72-27.68-1.66 0-.57 16.13-.57 16.13v20.36c.04 15.28 9.59 38.16 30.76 46.9C63.29 111.53 75 115 84 115c8.98.01 20.71-3.13 25.9-5.27 21.16-8.73 30.71-31.95 30.75-47.23V42.13s1.1-16.13-.57-16.13Z" fill="#ecdcbf"/></g><g transform="translate(62 42)"></g></g></g></svg>