<svg xmlns="http://www.w3.org/2000/svg" viewBox="0 0 280 280" fill="none" shape-rendering="auto"><metadata xmlns:rdf="http://www.w3.org/1999/02/22-rdf-syntax-ns#" xmlns:xsi="http://www.w3.org/2001/XMLSchema-instance" xmlns:dc="http://purl.org/dc/elements/1.1/" xmlns:dcterms="http://purl.org/dc/terms/"><rdf:RDF><rdf:Description><dc:title>Avataaars</dc:title><dc:creator>Pablo Stanley</dc:creator><dc:source xsi:type="dcterms:URI">https://avataaars.com/</dc:source><dcterms:license xsi:type="dcterms:URI">https://avataaars.com/</dcterms:license><dc:rights>Remix of „Avataaars” (https://avataaars.com/) by „Pablo Stanley”, licensed under „Free for personal and commercial use” (https://avataaars.com/)</dc:rights></rdf:Description></rdf:RDF></metadata><mask id="viewboxMask"><rect width="280" height="280" rx="0" ry="0" x="0" y="0" fill="#fff" /></mask><g mask="url(#viewboxMask)"><g transform="translate(8)"><path d="M132 36a56 56 0 0 0-56 56v6.17A12 12 0 0 0 66 110v14a12 12 0 0 0 10.3 11.88 56.04 56.04 0 0 0 31.7 44.73v18.4h-4a72 72 0 0 0-72 72v9h200v-9a72 72 0 0 0-72-72h-4v-18.39a56.04 56.04 0 0 0 31.7-44.73A12 12 0 0 0 198 124v-14a12 12 0 0 0-10-11.83V92a56 56 0 0 0-56-56Z" fill="#fd9841"/><path d="M108 180.61v8a55.79 55.79 0 0 0 24 5.39c8.59 0 16.73-1.93 24-5.39v-8a55.79 55.79 0 0 1-24 5.39 55.79 55.79 0 0 1-24-5.39Z" fill="#000" fill-opacity=".1"/><g transform="translate(0 170)"><path d="M132.5 54C151 54 166 44.37 166 32.5c0-1.1-.13-2.18-.38-3.23A72 72 0 0 1 232 101.05V110H32v-8.95A72 72 0 0 1 99.4 29.2a14.1 14.1 0 0 0-.4 3.3C99 44.37 114 54 132.5 54Z" fill="#262e33"/><g transform="translate(77 58)"><path fill-rule="evenodd" clip-rule="evenodd" d="M71.76 15.26c1.6-.18 4.79-.55 5.2.98.3 1.09-1.16 2.07-2.26 2.8-.34.24-.64.44-.85.61l-.16.14a25.73 25.73 0 0 1-4.66 3.41 12.85 12.85 0 0 1-2.93 1.08c-.28.07-.43.11-.55.2-.15.11-.23.3-.43.74l-.03.08c-.45 1-.73 2.18-1 3.36-.23 1.02-.47 2.04-.81 2.95-1.7 4.46-5.77 14.8-12.27 10.26-1.7-1.2-2.78-3.3-3.75-5.24-.2-.41-.4-.81-.61-1.2a43.46 43.46 0 0 1-3.38-8.24c-.1-.37-.16-.66-.2-.92-.14-.68-.2-1.04-.93-1.5-.37-.23-.9-.36-1.4-.49-.36-.09-.7-.17-.99-.29a17.05 17.05 0 0 1-4.08-2.44c-1.24-.97-6.11-4.95-2.14-5.7 1.8-.33 4.16-.2 6-.11h.07c2.03.1 4.07.57 5.88 1.54h.01c.9.48 1.22.66 1.54.65.2 0 .38-.08.68-.18.24-.1.55-.2.98-.33-3.32-1.12-6.65-3-8.89-5.78-1.2-1.5-4-7.65-1.9-9.06 1.8-1.2 2.42 2 2.88 4.4.2.97.36 1.81.56 2.17 1.24 2.13 3.28 3.23 5.32 4.33.58.32 1.16.63 1.72.96a12.47 12.47 0 0 1-3.67-5.86l-.08-.3c-.31-1.14-.9-3.28-.44-4.19.52-1.04 1.76-1.1 2.45-.22.41.53.48 1.52.54 2.4a8.63 8.63 0 0 0 2.11 5.23 11.17 11.17 0 0 0 5.68 3.73c5.12 1.26 6.91-4.1 7.6-8.25.04-.24.06-.52.08-.81.05-.93.11-2 .97-2.36 1.37-.6 1.9.74 1.94 1.78.09 2.31-1.06 5.85-2.17 7.84 2.8-1.73 5-4.48 5.9-7.69.1-.37.15-.9.2-1.46.1-1.2.22-2.58.98-3.04 1.54-.92 2.02.92 1.97 2.02-.32 6.52-5.3 12.44-11.49 14.07l.55.28c.95.5.98.53 2.3-.25.9-.53 1.86-.93 2.84-1.24 1.47-.45 3.05-.68 4.58-.81l.54-.06Zm-12.9 9.36c-.07 3.27-3.24 3.04-2.82.1.32-2.32 3.68-2.24 2.82-.1Zm-1.93 9.02c-.5 1.56-4.33 2.12-3.9-.17.37-1.95 4.56-2.03 3.9.17ZM51.7 27c-2.82 0-1.9-4.87 1-3.86 2.27.8 1.33 3.86-1 3.86Z" fill="#fff"/></g></g><g transform="translate(78 134)"><path d="M40 16c0 5.37 6.16 9 14 9s14-3.63 14-9c0-1.1-.95-2-2-2-1.3 0-1.87.9-2 2-1.24 2.94-4.32 4.72-10 5-5.68-.28-8.76-2.06-10-5-.13-1.1-.7-2-2-2-1.05 0-2 .9-2 2Z" fill="#000" fill-opacity=".6"/></g><g transform="translate(104 122)"><path fill-rule="evenodd" clip-rule="evenodd" d="M16 8c0 4.42 5.37 8 12 8s12-3.58 12-8" fill="#000" fill-opacity=".16"/></g><g transform="translate(76 90)"><path d="M36 22a6 6 0 1 1-12 0 6 6 0 0 1 12 0ZM88 22a6 6 0 1 1-12 0 6 6 0 0 1 12 0Z" fill="#000" fill-opacity=".6"/></g><g transform="translate(76 82)"><path d="M15.98 17.13C17.48 7.6 30.06 1.1 39.16 5.3a2 2 0 1 0 1.68-3.63c-11.5-5.3-26.9 2.66-28.82 14.84a2 2 0 0 0 3.96.63ZM96.02 17.13C94.52 7.6 81.94 1.1 72.84 5.3a2 2 0 1 1-1.68-3.63c11.5-5.3 26.9 2.66 28.82 14.84a2 2 0 0 1-3.96.63Z" fill="#000" fill-opacity=".6"/></g><g transform="translate(-1)"><path fill-rule="evenodd" clip-rule="evenodd" d="M183.68 38.95c5.4-4.95 6.7-14.99 3.64-21.5-3.77-8-11.42-9-18.75-5.48-6.9 3.31-13.06 4.42-20.62 2.81-7.26-1.54-14.14-4.26-21.65-4.7-12.32-.74-24.3 3.83-32.7 13.05a35.75 35.75 0 0 0-4.11 5.8c-.98 1.63-2.08 3.38-2.5 5.26-.2.9.18 3.1-.27 3.83-.48.8-2.3 1.52-3.07 2.1a25.02 25.02 0 0 0-4.18 4.05c-2.66 3.22-4.13 6.59-5.37 10.57-4.1 13.25-4.45 29 .86 42 .7 1.74 2.9 5.36 4.18 1.64.26-.73-.33-3.19-.33-3.93 0-2.72 1.5-20.73 8.05-30.82 2.13-3.28 11.97-15.58 13.98-15.68 1.07 1.7 11.88 12.51 39.94 11.24 12.66-.58 22.4-6.27 24.74-8.73 1.03 5.53 13 13.81 14.82 17.22 5.26 9.85 6.43 30.3 8.44 30.27 2.01-.04 3.45-5.24 3.87-6.23 3.07-7.38 3.6-16.64 3.26-24.56-.42-10.2-4.63-21.23-12.23-28.22Z" fill="#e8e1e1"/></g><g transform="translate(49 72)"></g><g transform="translate(62 42)"></g></g></g></svg>