<svg xmlns="http://www.w3.org/2000/svg" viewBox="0 0 280 280" fill="none" shape-rendering="auto"><metadata xmlns:rdf="http://www.w3.org/1999/02/22-rdf-syntax-ns#" xmlns:xsi="http://www.w3.org/2001/XMLSchema-instance" xmlns:dc="http://purl.org/dc/elements/1.1/" xmlns:dcterms="http://purl.org/dc/terms/"><rdf:RDF><rdf:Description><dc:title>Avataaars</dc:title><dc:creator>Pablo Stanley</dc:creator><dc:source xsi:type="dcterms:URI">https://avataaars.com/</dc:source><dcterms:license xsi:type="dcterms:URI">https://avataaars.com/</dcterms:license><dc:rights>Remix of „Avataaars” (https://avataaars.com/) by „Pablo Stanley”, licensed under „Free for personal and commercial use” (https://avataaars.com/)</dc:rights></rdf:Description></rdf:RDF></metadata><mask id="viewboxMask"><rect width="280" height="280" rx="0" ry="0" x="0" y="0" fill="#fff" /></mask><g mask="url(#viewboxMask)"><g transform="translate(8)"><path d="M132 36a56 56 0 0 0-56 56v6.17A12 12 0 0 0 66 110v14a12 12 0 0 0 10.3 11.88 56.04 56.04 0 0 0 31.7 44.73v18.4h-4a72 72 0 0 0-72 72v9h200v-9a72 72 0 0 0-72-72h-4v-18.39a56.04 56.04 0 0 0 31.7-44.73A12 12 0 0 0 198 124v-14a12 12 0 0 0-10-11.83V92a56 56 0 0 0-56-56Z" fill="#f8d25c"/><path d="M108 180.61v8a55.79 55.79 0 0 0 24 5.39c8.59 0 16.73-1.93 24-5.39v-8a55.79 55.79 0 0 1-24 5.39 55.79 55.79 0 0 1-24-5.39Z" fill="#000" fill-opacity=".1"/><g transform="translate(0 170)"><path d="M132.5 54C151 54 166 44.37 166 32.5c0-1.1-.13-2.18-.38-3.23A72 72 0 0 1 232 101.05V110H32v-8.95A72 72 0 0 1 99.4 29.2a14.1 14.1 0 0 0-.4 3.3C99 44.37 114 54 132.5 54Z" fill="#a7ffc4"/><g transform="translate(77 58)"><g fill-rule="evenodd" clip-rule="evenodd" fill="#fff"><path d="M72.34 18.04a8.66 8.66 0 0 1-1 2.99c-.71 1.21-2.02 1.7-2.78 2.82-1.19 1.75.4 4.27-.78 5.83-1.27 1.68-4.14.67-5.26 2.9-1.18 2.35.53 5.49-.95 7.83-1.47-.37-1.92-5.9-4.19-2.37-1.45 2.25-.47 3.47-2.64.23-.76-1.12-1.62-2.13-3.1-1.39-1.04.52-1.26 2.84-2.21 3.09-2.33.6-2.42-5.62-3.21-6.8a2.8 2.8 0 0 0-1.62-1.28c-.67-.2-1.87.22-2.43-.1-1.04-.59-1.18-2.55-1.22-3.6-.07-1.93.58-3.91.04-5.83-.45-1.61-1.89-2.6-2.36-4.18C36.1 9.64 47.68 4.89 54.3 4.63c7.74-.3 19.04 4.22 18.04 13.4Zm1.83-5.32c-1.45-3.44-4.65-6.17-7.91-8-1.59-.9-3.3-1.56-5.09-1.95-1.64-.36-3.55-.12-5.12-.58C54.73 1.81 53.9.95 52.35 1c-2.11.07-4.31 1.17-6.16 2.09-3.66 1.8-6.77 4.15-8.73 7.74-2.1 3.86-1.9 7.36.35 10.95 2.15 3.44-.97 8.27 2.17 11.53 1.32 1.37 2.62.37 3.87 1.03.96.5.92 3.46 1.19 4.33 1.2 3.9 5.51 5.4 7.5 1.2.94 2.34 4.66 4.75 6.39 1.68 1.08 1.4 2.95 2 4.38.8 1.35-1.14 1.5-3.76 1.56-5.35.06-1.24-.5-2.77.46-3.66 1.04-.98 3.2-.57 4.37-1.84 1.34-1.45.78-3.14.89-4.87.1-1.75.41-1.3 1.7-2.56 2.9-2.81 3.38-7.8 1.88-11.35Z"/><path d="M50.42 29.12c2.02-1.82 1.6-7.4 1.42-9.96-.31-4.86-3.35-3.4-5.2-.38-1.4 2.3-4.77 6-3.26 8.88 1.2 2.3 5.18 3.13 7.04 1.46ZM63.8 20.27c-1.04-1.92-1.43-2.2-2.66-3.78-.8-1.01-1.9-2.8-3.4-2.44-2.59.62-1.53 6.6-1.5 8.4.02 1.36-.28 2.76.85 3.73 1.15.98 3.05.9 4.44.69 4.26-.64 4.06-3.26 2.26-6.6ZM55.24 32.83c-.28-.04.08-.36.12-.59.19.62.33.65-.12.59Zm1.04-4.31c-2.61-2.77-7.57 6.4-4.08 7.43.8.23 1.4-.37 2.16-.47 1.1-.16 2.02.48 2.97-.53 1.5-1.58.2-5.1-1.05-6.43Z"/></g></g></g><g transform="translate(78 134)"><rect x="22" y="7" width="64" height="26" rx="13" fill="#000" fill-opacity=".6"/><rect x="24" y="9" width="60" height="22" rx="11" fill="#fff"/><path d="M24.18 18H32V9.41A11 11 0 0 1 35 9h1v9h9V9h4v9h9V9h4v9h9V9h2c.68 0 1.35.06 2 .18V18h8.82l.05.28v3.44l-.05.28H75v8.82c-.65.12-1.32.18-2 .18h-2v-9h-9v9h-4v-9h-9v9h-4v-9h-9v9h-1a11 11 0 0 1-3-.41V22h-7.82a11.06 11.06 0 0 1 0-4Z" fill="#E6E6E6"/></g><g transform="translate(104 122)"><path fill-rule="evenodd" clip-rule="evenodd" d="M16 8c0 4.42 5.37 8 12 8s12-3.58 12-8" fill="#000" fill-opacity=".16"/></g><g transform="translate(76 90)"><path d="M16.16 22.45c1.85-3.8 6-6.45 10.84-6.45 4.81 0 8.96 2.63 10.82 6.4.55 1.13-.24 2.05-1.03 1.37a15.05 15.05 0 0 0-9.8-3.43c-3.73 0-7.12 1.24-9.55 3.23-.9.73-1.82-.01-1.28-1.12ZM74.16 22.45c1.85-3.8 6-6.45 10.84-6.45 4.81 0 8.96 2.63 10.82 6.4.55 1.13-.24 2.05-1.03 1.37a15.05 15.05 0 0 0-9.8-3.43c-3.74 0-7.13 1.24-9.56 3.23-.9.73-1.82-.01-1.28-1.12Z" fill-rule="evenodd" clip-rule="evenodd" fill="#000" fill-opacity=".6"/></g><g transform="translate(76 82)"><path d="M15.6 14.16c4.49-6.32 14-9.5 23.75-6.36a2 2 0 1 0 1.23-3.81c-11.41-3.68-22.74.1-28.25 7.85a2 2 0 1 0 3.26 2.32ZM96.38 21.16c-3.92-5.51-14.65-8.6-23.9-6.33a2 2 0 0 1-.95-3.88c10.74-2.64 23.17.94 28.1 7.9a2 2 0 1 1-3.25 2.3Z" fill="#000" fill-opacity=".6"/></g><g transform="translate(-1)"><path fill-rule="evenodd" clip-rule="evenodd" d="M90.91 55.36h84.18c18.24-10.53 21.67-29.2 8.76-45.43-3.21-4.04-8.76 11.75-25.82 12.72-17.06.98-15.42-6.3-33.57-3.58-18.15 2.73-16.15 17.3-28 20.8-11.84 3.5-5.55 15.5-5.55 15.5Z" fill="#4a312c"/></g><g transform="translate(49 72)"></g><g transform="translate(62 42)"></g></g></g></svg>