<svg xmlns="http://www.w3.org/2000/svg" viewBox="0 0 280 280" fill="none" shape-rendering="auto"><metadata xmlns:rdf="http://www.w3.org/1999/02/22-rdf-syntax-ns#" xmlns:xsi="http://www.w3.org/2001/XMLSchema-instance" xmlns:dc="http://purl.org/dc/elements/1.1/" xmlns:dcterms="http://purl.org/dc/terms/"><rdf:RDF><rdf:Description><dc:title>Avataaars</dc:title><dc:creator>Pablo Stanley</dc:creator><dc:source xsi:type="dcterms:URI">https://avataaars.com/</dc:source><dcterms:license xsi:type="dcterms:URI">https://avataaars.com/</dcterms:license><dc:rights>Remix of „Avataaars” (https://avataaars.com/) by „Pablo Stanley”, licensed under „Free for personal and commercial use” (https://avataaars.com/)</dc:rights></rdf:Description></rdf:RDF></metadata><mask id="viewboxMask"><rect width="280" height="280" rx="0" ry="0" x="0" y="0" fill="#fff" /></mask><g mask="url(#viewboxMask)"><g transform="translate(8)"><path d="M132 36a56 56 0 0 0-56 56v6.17A12 12 0 0 0 66 110v14a12 12 0 0 0 10.3 11.88 56.04 56.04 0 0 0 31.7 44.73v18.4h-4a72 72 0 0 0-72 72v9h200v-9a72 72 0 0 0-72-72h-4v-18.39a56.04 56.04 0 0 0 31.7-44.73A12 12 0 0 0 198 124v-14a12 12 0 0 0-10-11.83V92a56 56 0 0 0-56-56Z" fill="#d08b5b"/><path d="M108 180.61v8a55.79 55.79 0 0 0 24 5.39c8.59 0 16.73-1.93 24-5.39v-8a55.79 55.79 0 0 1-24 5.39 55.79 55.79 0 0 1-24-5.39Z" fill="#000" fill-opacity=".1"/><g transform="translate(0 170)"><path d="M132.5 54C151 54 166 44.37 166 32.5c0-1.1-.13-2.18-.38-3.23A72 72 0 0 1 232 101.05V110H32v-8.95A72 72 0 0 1 99.4 29.2a14.1 14.1 0 0 0-.4 3.3C99 44.37 114 54 132.5 54Z" fill="#262e33"/><g transform="translate(77 58)"><g fill="#fff"><path d="M63.84 17c-.29.65-.56 1.3-.82 1.95L63 19l2-.16A18.7 18.7 0 0 0 63.84 17ZM53.22 17.3c.2-.06.42-.13.7-.3.15.42.26 3.29-1.35 2.98-.92-.18-.5-1.77-.25-2.1.34-.41.59-.49.9-.58Z"/><path fill-rule="evenodd" clip-rule="evenodd" d="M74.64 16.95C73.46 11.68 70.6 7.97 66.18 5c-3.35-2.25-6.5-2.23-10.46-1.75-3.25.4-6.35 1.3-9.2 2.94-5.04 2.89-7.92 6.74-8.6 12.54-.28 2.33-.33 5.1.5 7.32.48 1.3 1.34 2.34 2.25 3.36.15.17.5.47.86.79.6.52 1.26 1.1 1.28 1.29.12.86-2.2 3.4-2.89 4.15-.05.06-.1.1-.12.14-.23.25-.73.6-1.3.99-1.02.7-2.25 1.55-2.43 2.2-.83 2.93 5.83 1.89 7.45 1.63 1.55-.24 3.11-.54 4.62-.98.7-.2 1.4-.44 2.07-.72.56-.23 1.17-.7 1.78-1.16.7-.52 1.38-1.03 1.97-1.2a5.9 5.9 0 0 1 2.1.02c.6.07 1.2.14 1.7.09 1.5-.15 3.03-.45 4.5-.87a19 19 0 0 0 7.05-3.84c4.42-3.76 6.6-9.24 5.33-15Zm-5.13 6.99c-.62.16-1.36-1.24-1.08-1.72.77-1.34 2.16 1.42 1.08 1.72Zm-2.22-9.38c-.27 1.1.12 2.95.4 4.05.07.36.42.47.73.43.55-.08.45-.56.36-.97-.03-.16-.06-.3-.06-.4.04-.75.11-2.64-.17-3.32-.51-1.26-.97-1.02-1.27.21Zm-.65 8.33c-.58.34-.86-.29-1.05-.74-.06-.13-.1-.24-.16-.32a1.39 1.39 0 0 1-.29-.72c-.01-.18-.02-.22-.58-.39-1.77-.52-1.8.7-1.84 1.94-.02.72-.04 1.45-.4 1.84-1.78 1.91-.58-3.68-.37-4.68l.03-.1.12-.7c.34-1.96 1.02-5.86 2.67-3.11.49.8 2.7 6.49 1.87 6.98Zm-10.37-.95c.6.6 3.7.22 4.02-.34.68-1.18-1.85-.85-2.78-.73l-.29.03c.04-.75.13-1.5.21-2.27.12-1.05.24-2.1.23-3.15v-.17c.02-.62.06-1.94-.96-1.21-.34.25-.33 1.19-.33 1.82v.46c-.02.23-.08.6-.15 1.02-.24 1.51-.61 3.87.04 4.54Zm-.77-2.78c-1.43 5.73-6.98 2.64-4.5-1.71.46-.8.83-.98 1.41-1.26.22-.1.46-.22.75-.4.05-.03.06-.14.06-.28 0-.27.02-.65.43-.64 1.76.03 2.18 2.93 1.85 4.28Zm-7 .83c-.04.87-.14 3.3.97 3 .76-.21.54-9.98-.33-9.98-.92 0-.75 1.78-.6 3.33.1 1 .19 1.91-.04 2.17-.1.12-.51.1-.84.06a2.1 2.1 0 0 0-.4 0c-1.15.2-1.9.08-2.25-.61-.1-.2-.1-.7-.1-1.29-.01-1.33-.02-2.96-1.15-1.5l.03 2.2c.34.72.21 1.16-.38 1.32-.02.3.16.58.28.77.07.1.12.19.12.24.02.14 0 .38-.01.66-.08 1.26-.2 3.54.92 3.4.71-.08.49-2.28.37-3.42l-.05-.6.91.03c.86.04 1.73.08 2.56-.03V20Z"/></g></g></g><g transform="translate(78 134)"><path fill-rule="evenodd" clip-rule="evenodd" d="M34 38.86C35.14 24.88 38.24 13.01 54 13c15.76 0 18.92 11.94 20 26 .08 1.12-.83 2-1.96 2-6.69 0-9.37-2-18.05-2-8.7 0-13.24 2-17.9 2-1.15 0-2.2-.74-2.1-2.14Z" fill="#000" fill-opacity=".7"/><path d="M67.02 17.57c-.61.28-1.3.43-2.02.43H44c-.98 0-1.9-.28-2.67-.77C44.23 14.57 48.28 13 54 13c5.95 0 10.1 1.7 13.02 4.57Z" fill="#fff"/><path d="M69.8 40.92a44.2 44.2 0 0 1-5.54-.82c-2.73-.53-5.65-1.1-10.27-1.1-5.02 0-8.66.66-11.74 1.23-1.45.26-2.77.5-4.06.65A11 11 0 0 1 54 33.2a11 11 0 0 1 15.8 7.72Z" fill="#FF4F6D"/></g><g transform="translate(104 122)"><path fill-rule="evenodd" clip-rule="evenodd" d="M16 8c0 4.42 5.37 8 12 8s12-3.58 12-8" fill="#000" fill-opacity=".16"/></g><g transform="translate(76 90)"><path d="M16.16 27.55c1.85 3.8 6 6.45 10.84 6.45 4.81 0 8.96-2.63 10.82-6.4.55-1.13-.24-2.05-1.03-1.37a15.05 15.05 0 0 1-9.8 3.43c-3.73 0-7.12-1.24-9.55-3.23-.9-.73-1.82.01-1.28 1.12ZM74.16 27.55c1.85 3.8 6 6.45 10.84 6.45 4.81 0 8.96-2.63 10.82-6.4.55-1.13-.24-2.05-1.03-1.37a15.05 15.05 0 0 1-9.8 3.43c-3.74 0-7.13-1.24-9.56-3.23-.9-.73-1.82.01-1.28 1.12Z" fill-rule="evenodd" clip-rule="evenodd" fill="#000" fill-opacity=".6"/></g><g transform="translate(76 82)"><path d="m22.77 1.58.9-.4C28.93-.91 36.88-.03 41.73 2.3c.57.27.18 1.15-.4 1.1-14.92-1.14-24.96 8.15-28.37 14.45-.1.18-.41.2-.49.03-2.3-5.32 4.45-13.98 10.3-16.3ZM87 12.07c5.75.77 14.74 5.8 13.99 11.6-.03.2-.31.26-.44.1-2.49-3.2-21.71-7.87-28.71-6.9-.64.1-1.07-.57-.63-.98 3.75-3.54 10.62-4.52 15.78-3.82Z" fill-rule="evenodd" clip-rule="evenodd" fill="#000" fill-opacity=".6"/></g><g transform="translate(-1)"><path fill-rule="evenodd" clip-rule="evenodd" d="M193.76 70.77a62.92 62.92 0 0 0-1.51-9.86 51.78 51.78 0 0 0-2.5-7.49c-.6-1.48-2.02-3.52-2.19-5.13-.16-1.57 1.07-3.32 1.33-5.16.24-1.79.2-3.66-.17-5.44-.83-4.03-3.6-7.77-7.85-8.82-.95-.23-2.97.06-3.64-.5-.77-.63-1.3-2.8-2-3.67-2-2.47-5.1-4.07-8.37-3.51-2.41.4-1.03.9-2.84-.51-1-.8-1.75-2-2.73-2.85a24.7 24.7 0 0 0-4.9-3.28 50.82 50.82 0 0 0-14.84-4.91c-9.28-1.52-19.2-.2-28.2 2.22a74.58 74.58 0 0 0-13.14 4.74c-1.78.87-2.81 1.58-4.67 1.81-2.93.36-5.4.34-8.18 1.58-8.54 3.82-12.39 12.69-9.06 21.17.66 1.71 1.57 3.21 2.82 4.59 1.52 1.68 2.07 1.35.76 3.28a52.78 52.78 0 0 0-4.96 9.17c-3.53 8.4-4.12 17.87-3.89 26.83.08 3.13.22 6.3.71 9.42.22 1.34.28 3.87 1.29 4.87.5.5 1.24.78 1.96.58 1.71-.47 1.13-1.73 1.17-2.9.2-5.88-.08-11.08 1.32-16.9a44.4 44.4 0 0 1 5-12.03 72.07 72.07 0 0 1 9.8-13.35c.92-.99 1.12-1.4 2.35-1.48.93-.05 2.3.59 3.2.8 2 .5 4 .98 6.03 1.3 3.74.6 7.45.65 11.22.53 7.43-.23 14.88-.75 22.09-2.62 4.78-1.24 9.02-3.47 13.6-5.1.08-.04 1.23-.85 1.43-.82.28.04 1.97 1.82 2.26 2.05 2.23 1.74 4.67 2.48 7.07 3.83 2.97 1.66.1-.72 1.73 1.36.48.6.72 1.72 1.1 2.4 1.22 2.2 2.9 4.1 4.93 5.63 1.96 1.47 4.9 2.18 5.9 4.1.76 1.47 1.02 3.48 1.64 5.06 1.63 4.13 3.78 7.99 5.93 11.88 1.73 3.14 3.62 5.89 3.81 9.47.07 1.25-1.12 8.74 1.78 6.46.43-.34 1.35-4.15 1.54-4.8.77-2.63 1.05-5.38 1.4-8.09.69-5.38.92-10.5.46-15.91Z" fill="#c93305"/></g><g transform="translate(49 72)"></g><g transform="translate(62 42)"></g></g></g></svg>