<svg xmlns="http://www.w3.org/2000/svg" viewBox="0 0 280 280" fill="none" shape-rendering="auto"><metadata xmlns:rdf="http://www.w3.org/1999/02/22-rdf-syntax-ns#" xmlns:xsi="http://www.w3.org/2001/XMLSchema-instance" xmlns:dc="http://purl.org/dc/elements/1.1/" xmlns:dcterms="http://purl.org/dc/terms/"><rdf:RDF><rdf:Description><dc:title>Avataaars</dc:title><dc:creator>Pablo Stanley</dc:creator><dc:source xsi:type="dcterms:URI">https://avataaars.com/</dc:source><dcterms:license xsi:type="dcterms:URI">https://avataaars.com/</dcterms:license><dc:rights>Remix of „Avataaars” (https://avataaars.com/) by „Pablo Stanley”, licensed under „Free for personal and commercial use” (https://avataaars.com/)</dc:rights></rdf:Description></rdf:RDF></metadata><mask id="viewboxMask"><rect width="280" height="280" rx="0" ry="0" x="0" y="0" fill="#fff" /></mask><g mask="url(#viewboxMask)"><g transform="translate(8)"><path d="M132 36a56 56 0 0 0-56 56v6.17A12 12 0 0 0 66 110v14a12 12 0 0 0 10.3 11.88 56.04 56.04 0 0 0 31.7 44.73v18.4h-4a72 72 0 0 0-72 72v9h200v-9a72 72 0 0 0-72-72h-4v-18.39a56.04 56.04 0 0 0 31.7-44.73A12 12 0 0 0 198 124v-14a12 12 0 0 0-10-11.83V92a56 56 0 0 0-56-56Z" fill="#614335"/><path d="M108 180.61v8a55.79 55.79 0 0 0 24 5.39c8.59 0 16.73-1.93 24-5.39v-8a55.79 55.79 0 0 1-24 5.39 55.79 55.79 0 0 1-24-5.39Z" fill="#000" fill-opacity=".1"/><g transform="translate(0 170)"><path d="M132.5 54C151 54 166 44.37 166 32.5c0-1.1-.13-2.18-.38-3.23A72 72 0 0 1 232 101.05V110H32v-8.95A72 72 0 0 1 99.4 29.2a14.1 14.1 0 0 0-.4 3.3C99 44.37 114 54 132.5 54Z" fill="#ff488e"/><g transform="translate(77 58)"><path fill-rule="evenodd" clip-rule="evenodd" d="M65.28 19.93c-.3 2.78-5.7 4.27-7.67 2.45-.91-.84-.93-2.58-1.13-3.7a48.65 48.65 0 0 1-.75-6.43c-.06-1.32-.4-2.38 1.04-2.58.89-.12 1.8.47 2.52.93 2.44 1.58 6.32 6.14 5.98 9.33Zm-12.4-5.85c.29 2.82 1.32 7.73-.93 10.1-2.02 2.12-6.16.02-6.79-2.47-.77-3.1 2.28-6.78 4.15-8.87.58-.64 1.85-2.41 2.84-1.82.39.23.7 2.61.74 3.06Zm1.44 11.03c.65-1.53 6.91 3.01 3.95 5.18-.48.35-4.16 1.46-4.86.94-1.48-1.1.43-4.97.91-6.12Zm19-7.58C72.89 2.05 53.08-2.31 42.49 6.5 38.43 9.88 36.1 14 36 19.28c-.1 4.47.62 8.7 4.03 11.77 1.48 1.33 2.46 2.15 3.25 3.97.82 1.9 1.2 4.33 2.74 5.83.85.83 2.09 1.5 3.26.96 2.17-.98 1.47-3.98 2.13-5.65 2.04 4.97 7.21 6.55 8.15.25 1.03 1.82 3.72 4.2 5.7 2.2.81-.8.93-2.14 1.07-3.22.25-1.9-.18-2.66 1.36-3.97 4.03-3.45 5.77-8.67 5.63-13.9Z" fill="#fff"/></g></g><g transform="translate(78 134)"><path fill-rule="evenodd" clip-rule="evenodd" d="M40 15a14 14 0 1 0 28 0" fill="#000" fill-opacity=".7"/></g><g transform="translate(104 122)"><path fill-rule="evenodd" clip-rule="evenodd" d="M16 8c0 4.42 5.37 8 12 8s12-3.58 12-8" fill="#000" fill-opacity=".16"/></g><g transform="translate(76 90)"><path d="M44 22a14 14 0 1 1-28 0 14 14 0 0 1 28 0ZM96 22a14 14 0 1 1-28 0 14 14 0 0 1 28 0Z" fill="#fff"/><path d="M36 22a6 6 0 1 1-12 0 6 6 0 0 1 12 0ZM88 22a6 6 0 1 1-12 0 6 6 0 0 1 12 0Z" fill="#000" fill-opacity=".7"/></g><g transform="translate(76 82)"><path d="M44.1 17.12ZM19.27 5.01a7.16 7.16 0 0 0-6.42 2.43c-.6.73-1.56 2.48-1.51 3.42.02.35.22.37 1.12.59 1.65.39 4.5-1.12 6.36-.98 2.58.2 5.04 1.4 7.28 2.68 3.84 2.2 8.35 6.84 13.1 6.6.35-.02 5.41-1.74 4.4-2.72-.31-.49-3.03-1.13-3.5-1.36-2.17-1.09-4.37-2.45-6.44-3.72C29.14 9.18 24.72 5.6 19.28 5ZM68.03 17.12ZM92.91 5.01c2.36-.27 4.85.5 6.42 2.43.6.73 1.56 2.48 1.51 3.42-.02.35-.22.37-1.12.59-1.65.39-4.5-1.12-6.36-.98-2.58.2-5.04 1.4-7.28 2.68-3.84 2.2-8.35 6.84-13.1 6.6-.35-.02-5.41-1.74-4.4-2.72.31-.49 3.03-1.13 3.5-1.36 2.17-1.09 4.36-2.45 6.44-3.72C83.05 9.18 87.46 5.6 92.91 5Z" fill-rule="evenodd" clip-rule="evenodd" fill="#000" fill-opacity=".6"/></g><g transform="translate(-1)"><path fill-rule="evenodd" clip-rule="evenodd" d="M69.03 76.21C81.97 43.13 95.65 26.6 110.06 26.6c.54 0 29.25-.24 48.05-.36C178.77 35.59 193 55.3 193 78.1V93h-82.94l-2.8-23.18L103.36 93H69V78.11c0-.63.01-1.27.03-1.9Z" fill="#000" fill-opacity=".16"/><path d="M40 145c-.09-18.98 30.32-97.2 41-110 7.92-9.5 27.7-15.45 52-15 24.3.45 44.86 3.81 53 14 12.32 15.43 40.09 92.02 40 111-.1 21.27-9.62 33.59-18.6 45.22A293.1 293.1 0 0 0 203 196c-10.28-2.66-27.85-5.18-46-6.68v-8.7A56 56 0 0 0 189 130V92c0-1.34-.05-2.68-.14-4h-76.8l-2.8-21.44L105.36 88H77.14c-.1 1.32-.14 2.66-.14 4v38a56 56 0 0 0 32 50.61v8.7c-18.15 1.5-35.72 4.03-46 6.69-1.42-1.93-2.9-3.84-4.39-5.78C49.62 178.6 40.1 166.27 40 145Z" fill="#a55728"/></g><g transform="translate(49 72)"></g><g transform="translate(62 42)"></g></g></g></svg>