<svg xmlns="http://www.w3.org/2000/svg" viewBox="0 0 280 280" fill="none" shape-rendering="auto"><metadata xmlns:rdf="http://www.w3.org/1999/02/22-rdf-syntax-ns#" xmlns:xsi="http://www.w3.org/2001/XMLSchema-instance" xmlns:dc="http://purl.org/dc/elements/1.1/" xmlns:dcterms="http://purl.org/dc/terms/"><rdf:RDF><rdf:Description><dc:title>Avataaars</dc:title><dc:creator>Pablo Stanley</dc:creator><dc:source xsi:type="dcterms:URI">https://avataaars.com/</dc:source><dcterms:license xsi:type="dcterms:URI">https://avataaars.com/</dcterms:license><dc:rights>Remix of „Avataaars” (https://avataaars.com/) by „Pablo Stanley”, licensed under „Free for personal and commercial use” (https://avataaars.com/)</dc:rights></rdf:Description></rdf:RDF></metadata><mask id="viewboxMask"><rect width="280" height="280" rx="0" ry="0" x="0" y="0" fill="#fff" /></mask><g mask="url(#viewboxMask)"><g transform="translate(8)"><path d="M132 36a56 56 0 0 0-56 56v6.17A12 12 0 0 0 66 110v14a12 12 0 0 0 10.3 11.88 56.04 56.04 0 0 0 31.7 44.73v18.4h-4a72 72 0 0 0-72 72v9h200v-9a72 72 0 0 0-72-72h-4v-18.39a56.04 56.04 0 0 0 31.7-44.73A12 12 0 0 0 198 124v-14a12 12 0 0 0-10-11.83V92a56 56 0 0 0-56-56Z" fill="#ffdbb4"/><path d="M108 180.61v8a55.79 55.79 0 0 0 24 5.39c8.59 0 16.73-1.93 24-5.39v-8a55.79 55.79 0 0 1-24 5.39 55.79 55.79 0 0 1-24-5.39Z" fill="#000" fill-opacity=".1"/><g transform="translate(0 170)"><path d="M92.68 29.94A72.02 72.02 0 0 0 32 101.05V110h200v-8.95a72.02 72.02 0 0 0-60.68-71.11 23.87 23.87 0 0 1-7.56 13.6l-29.08 26.23a4 4 0 0 1-5.36 0l-29.08-26.23a23.87 23.87 0 0 1-7.56-13.6Z" fill="#ffffff"/></g><g transform="translate(78 134)"><path d="M28 26.24c1.36.5 2.84.76 4.4.76 5.31 0 9.81-3.15 11.29-7.49 2.47 2.17 6.17 3.54 10.31 3.54 4.14 0 7.84-1.37 10.31-3.53 1.48 4.35 5.98 7.5 11.3 7.5 1.55 0 3.03-.27 4.4-.76h-.19c-6.33 0-11.8-4.9-11.8-10.56 0-4.18 2.32-7.72 5.69-9.68-5.5.8-9.73 5-9.9 10.1a17.61 17.61 0 0 1-9.8 2.8c-3.8 0-7.25-1.06-9.8-2.8-.18-5.1-4.4-9.3-9.9-10.1a11.18 11.18 0 0 1 5.68 9.68c0 5.66-5.47 10.57-11.8 10.57H28Z" fill="#000" fill-opacity=".6" opacity=".6"/><path d="M17 24a9 9 0 1 0 0-18 9 9 0 0 0 0 18ZM91 24a9 9 0 1 0 0-18 9 9 0 0 0 0 18Z" fill="#FF4646" fill-opacity=".2"/></g><g transform="translate(104 122)"><path fill-rule="evenodd" clip-rule="evenodd" d="M16 8c0 4.42 5.37 8 12 8s12-3.58 12-8" fill="#000" fill-opacity=".16"/></g><g transform="translate(76 90)"><g fill="#000" fill-opacity=".6"><path d="M36 22a6 6 0 1 1-12 0 6 6 0 0 1 12 0Z"/><path fill-rule="evenodd" clip-rule="evenodd" d="M70.6 24.96c1.59-3.92 5.55-6.86 10.37-7.2 4.8-.33 9.12 2 11.24 5.64.63 1.09-.1 2.06-.93 1.43-2.6-1.93-6.15-3-10-2.73A15.13 15.13 0 0 0 71.95 26c-.84.78-1.81.1-1.35-1.04Z"/></g></g><g transform="translate(76 82)"><path d="m22.77 1.58.9-.4C28.93-.91 36.88-.03 41.73 2.3c.57.27.18 1.15-.4 1.1-14.92-1.14-24.96 8.15-28.37 14.45-.1.18-.41.2-.49.03-2.3-5.32 4.45-13.98 10.3-16.3ZM87 12.07c5.75.77 14.74 5.8 13.99 11.6-.03.2-.31.26-.44.1-2.49-3.2-21.71-7.87-28.71-6.9-.64.1-1.07-.57-.63-.98 3.75-3.54 10.62-4.52 15.78-3.82Z" fill-rule="evenodd" clip-rule="evenodd" fill="#000" fill-opacity=".6"/></g><g transform="translate(-1)"><path d="m175.83 55.92-.03.02c.76.88 1.49 1.78 2.19 2.7a55.74 55.74 0 0 1 11 33.36v5.5c0-15.77-6.69-29.98-17.4-39.93-11.58 3.77-49.58 14.27-77.63.42A54.35 54.35 0 0 0 77 97.5V92c0-12.5 4.1-24.04 11.01-33.35.71-.94 1.45-1.86 2.22-2.75l-.02-.02A55.88 55.88 0 0 1 133 36a55.88 55.88 0 0 1 42.82 19.92Z" fill="#000" fill-opacity=".16"/><path d="M92.54 53.29A55.81 55.81 0 0 0 77 91.99v6.17a11.97 11.97 0 0 0-6.49 3.34l.7-17.37a45.92 45.92 0 0 1 17.37-34.17c-2.2-3.84-1.45-10.33 7.8-13.1 5.07-1.5 7.57-5.08 10.24-8.88 3.5-5 7.27-10.37 17.48-11.92 9.87-1.5 13.23-.88 17.05-.18 3.13.57 6.58 1.2 14.2.76 9.85-.57 16.86-4 21.43-6.22 3.26-1.6 5.27-2.58 6.17-1.47 15.42 18.9 6.97 33.8-6.2 41.96A45.9 45.9 0 0 1 193 86v13.6c-1.22-.7-2.56-1.2-4-1.43V92c0-15.26-6.1-29.09-16-39.19-7.76 2.75-50.39 16.55-80.46.48ZM223.61 226.05c3.06 5.6 4.05 11.12 3.5 16.38A72.02 72.02 0 0 0 161 199h-4v-18.39a56.03 56.03 0 0 0 31.8-45.74c1.5-.23 2.93-.74 4.2-1.47v20.7c0 20.77 11.47 39.79 22.15 57.47 2.97 4.93 5.88 9.75 8.46 14.48ZM68.7 146.5l.66-16.35a12 12 0 0 0 7.85 4.72A56.03 56.03 0 0 0 109 180.6V199h-4c-11.2 0-21.8 2.56-31.25 7.12-2.99-18.29-4.3-38.68-5.05-59.62Z" fill="#f59797"/><path fill-rule="evenodd" clip-rule="evenodd" d="M90.88 52.36c33.22 19.3 83.37 0 83.37 0 14.53-7.77 25.08-23.32 8.7-43.4-2.17-2.66-10.7 6.72-27.6 7.7-16.9.97-13.27-3.31-31.25-.59-17.97 2.73-15.99 17.3-27.72 20.8-11.73 3.5-9.8 13-5.5 15.5Z" fill="#fff" fill-opacity=".2"/></g><g transform="translate(49 72)"></g><g transform="translate(62 42)"><g fill-rule="evenodd" clip-rule="evenodd"><path d="M40 96a24 24 0 0 1-22.96-31H10.5a2.5 2.5 0 0 1 0-5h8c.23 0 .45.03.66.09a24 24 0 0 1 42.26 1.06A11.36 11.36 0 0 1 70.86 56c4.01 0 7.55 2.14 9.6 5.4a24 24 0 0 1 42.38-1.31c.2-.06.43-.1.66-.1h8a2.5 2.5 0 1 1 0 5h-6.54a24 24 0 1 1-46.6 2.83c-.08-4.37-3.45-7.83-7.5-7.83-3.73 0-6.89 2.94-7.42 6.83A24 24 0 0 1 40 96Zm0-4a20 20 0 1 0 0-40 20 20 0 0 0 0 40Zm82-20a20 20 0 1 1-40 0 20 20 0 0 1 40 0Z" fill="#000" fill-opacity=".1"/><path d="M40 94a24 24 0 0 1-22.96-31H10.5a2.5 2.5 0 0 1 0-5h8c.23 0 .45.03.66.09a24 24 0 0 1 42.26 1.06A11.36 11.36 0 0 1 70.86 54c4.01 0 7.55 2.14 9.6 5.4a24 24 0 0 1 42.38-1.31c.2-.06.43-.1.66-.1h8a2.5 2.5 0 1 1 0 5h-6.54a24 24 0 1 1-46.6 2.84c-.08-4.37-3.45-7.83-7.5-7.83-3.73 0-6.89 2.94-7.42 6.83A24 24 0 0 1 40 94Zm0-4a20 20 0 1 0 0-40 20 20 0 0 0 0 40Zm82-20a20 20 0 1 1-40 0 20 20 0 0 1 40 0Z" fill="#ffafb9"/></g></g></g></g></svg>