<svg xmlns="http://www.w3.org/2000/svg" viewBox="0 0 280 280" fill="none" shape-rendering="auto"><metadata xmlns:rdf="http://www.w3.org/1999/02/22-rdf-syntax-ns#" xmlns:xsi="http://www.w3.org/2001/XMLSchema-instance" xmlns:dc="http://purl.org/dc/elements/1.1/" xmlns:dcterms="http://purl.org/dc/terms/"><rdf:RDF><rdf:Description><dc:title>Avataaars</dc:title><dc:creator>Pablo Stanley</dc:creator><dc:source xsi:type="dcterms:URI">https://avataaars.com/</dc:source><dcterms:license xsi:type="dcterms:URI">https://avataaars.com/</dcterms:license><dc:rights>Remix of „Avataaars” (https://avataaars.com/) by „Pablo Stanley”, licensed under „Free for personal and commercial use” (https://avataaars.com/)</dc:rights></rdf:Description></rdf:RDF></metadata><mask id="viewboxMask"><rect width="280" height="280" rx="0" ry="0" x="0" y="0" fill="#fff" /></mask><g mask="url(#viewboxMask)"><g transform="translate(8)"><path d="M132 36a56 56 0 0 0-56 56v6.17A12 12 0 0 0 66 110v14a12 12 0 0 0 10.3 11.88 56.04 56.04 0 0 0 31.7 44.73v18.4h-4a72 72 0 0 0-72 72v9h200v-9a72 72 0 0 0-72-72h-4v-18.39a56.04 56.04 0 0 0 31.7-44.73A12 12 0 0 0 198 124v-14a12 12 0 0 0-10-11.83V92a56 56 0 0 0-56-56Z" fill="#d08b5b"/><path d="M108 180.61v8a55.79 55.79 0 0 0 24 5.39c8.59 0 16.73-1.93 24-5.39v-8a55.79 55.79 0 0 1-24 5.39 55.79 55.79 0 0 1-24-5.39Z" fill="#000" fill-opacity=".1"/><g transform="translate(0 170)"><path d="M132.5 65.83c27.34 0 49.5-13.2 49.5-29.48 0-1.37-.16-2.7-.46-4.02A72.03 72.03 0 0 1 232 101.05V110H32v-8.95A72.03 72.03 0 0 1 83.53 32a18 18 0 0 0-.53 4.35c0 16.28 22.16 29.48 49.5 29.48Z" fill="#ff488e"/></g><g transform="translate(78 134)"><path fill-rule="evenodd" clip-rule="evenodd" d="M29 15.6C30.41 25.24 41.06 33 54 33c12.97 0 23.65-7.82 25-18.26.1-.4-.22-1.74-2.17-1.74H31.17c-1.79 0-2.3 1.24-2.17 2.6Z" fill="#000" fill-opacity=".7"/><path d="M70 13H39a5 5 0 0 0 5 5h21a5 5 0 0 0 5-5Z" fill="#fff"/><path d="M43 23.5a1.88 1.88 0 0 0 0 .13v8.87a11.5 11.5 0 1 0 23 0v-8.87a1.62 1.62 0 0 0 0-.13c0-1.93-2.91-3.5-6.5-3.5-2.01 0-3.8.5-5 1.26a9.45 9.45 0 0 0-5-1.26c-3.59 0-6.5 1.57-6.5 3.5Z" fill="#FF4F6D"/></g><g transform="translate(104 122)"><path fill-rule="evenodd" clip-rule="evenodd" d="M16 8c0 4.42 5.37 8 12 8s12-3.58 12-8" fill="#000" fill-opacity=".16"/></g><g transform="translate(76 90)"><path d="M25 27s-6 7.27-6 11.27a6 6 0 1 0 12 0c0-4-6-11.27-6-11.27Z" fill="#92D9FF"/><path d="M36 22a6 6 0 1 1-12 0 6 6 0 0 1 12 0ZM88 22a6 6 0 1 1-12 0 6 6 0 0 1 12 0Z" fill="#000" fill-opacity=".6"/></g><g transform="translate(76 82)"><path d="m22.77 1.58.9-.4C28.93-.91 36.88-.03 41.73 2.3c.57.27.18 1.15-.4 1.1-14.92-1.14-24.96 8.15-28.37 14.45-.1.18-.41.2-.49.03-2.3-5.32 4.45-13.98 10.3-16.3ZM89.23 1.58l-.9-.4C83.07-.91 75.12-.03 70.27 2.3c-.57.27-.18 1.15.4 1.1 14.92-1.14 24.96 8.15 28.37 14.45.1.18.41.2.49.03 2.3-5.32-4.45-13.98-10.3-16.3Z" fill-rule="evenodd" clip-rule="evenodd" fill="#000" fill-opacity=".6"/></g><g transform="translate(-1)"><path fill-rule="evenodd" clip-rule="evenodd" d="M90.91 55.36h84.18c18.24-10.53 21.67-29.2 8.76-45.43-3.21-4.04-8.76 11.75-25.82 12.72-17.06.98-15.42-6.3-33.57-3.58-18.15 2.73-16.15 17.3-28 20.8-11.84 3.5-5.55 15.5-5.55 15.5Z" fill="#b58143"/></g><g transform="translate(49 72)"></g><g transform="translate(62 42)"></g></g></g></svg>