<svg xmlns="http://www.w3.org/2000/svg" viewBox="0 0 280 280" fill="none" shape-rendering="auto"><metadata xmlns:rdf="http://www.w3.org/1999/02/22-rdf-syntax-ns#" xmlns:xsi="http://www.w3.org/2001/XMLSchema-instance" xmlns:dc="http://purl.org/dc/elements/1.1/" xmlns:dcterms="http://purl.org/dc/terms/"><rdf:RDF><rdf:Description><dc:title>Avataaars</dc:title><dc:creator>Pablo Stanley</dc:creator><dc:source xsi:type="dcterms:URI">https://avataaars.com/</dc:source><dcterms:license xsi:type="dcterms:URI">https://avataaars.com/</dcterms:license><dc:rights>Remix of „Avataaars” (https://avataaars.com/) by „Pablo Stanley”, licensed under „Free for personal and commercial use” (https://avataaars.com/)</dc:rights></rdf:Description></rdf:RDF></metadata><mask id="viewboxMask"><rect width="280" height="280" rx="0" ry="0" x="0" y="0" fill="#fff" /></mask><g mask="url(#viewboxMask)"><g transform="translate(8)"><path d="M132 36a56 56 0 0 0-56 56v6.17A12 12 0 0 0 66 110v14a12 12 0 0 0 10.3 11.88 56.04 56.04 0 0 0 31.7 44.73v18.4h-4a72 72 0 0 0-72 72v9h200v-9a72 72 0 0 0-72-72h-4v-18.39a56.04 56.04 0 0 0 31.7-44.73A12 12 0 0 0 198 124v-14a12 12 0 0 0-10-11.83V92a56 56 0 0 0-56-56Z" fill="#ae5d29"/><path d="M108 180.61v8a55.79 55.79 0 0 0 24 5.39c8.59 0 16.73-1.93 24-5.39v-8a55.79 55.79 0 0 1-24 5.39 55.79 55.79 0 0 1-24-5.39Z" fill="#000" fill-opacity=".1"/><g transform="translate(0 170)"><path d="M132.5 65.83c27.34 0 49.5-13.2 49.5-29.48 0-1.37-.16-2.7-.46-4.02A72.03 72.03 0 0 1 232 101.05V110H32v-8.95A72.03 72.03 0 0 1 83.53 32a18 18 0 0 0-.53 4.35c0 16.28 22.16 29.48 49.5 29.48Z" fill="#b1e2ff"/></g><g transform="translate(78 134)"><path fill-rule="evenodd" clip-rule="evenodd" d="M29 15.6C30.41 25.24 41.06 33 54 33c12.97 0 23.65-7.82 25-18.26.1-.4-.22-1.74-2.17-1.74H31.17c-1.79 0-2.3 1.24-2.17 2.6Z" fill="#000" fill-opacity=".7"/><path d="M70 13H39a5 5 0 0 0 5 5h21a5 5 0 0 0 5-5Z" fill="#fff"/><path d="M43 23.5a1.88 1.88 0 0 0 0 .13v8.87a11.5 11.5 0 1 0 23 0v-8.87a1.62 1.62 0 0 0 0-.13c0-1.93-2.91-3.5-6.5-3.5-2.01 0-3.8.5-5 1.26a9.45 9.45 0 0 0-5-1.26c-3.59 0-6.5 1.57-6.5 3.5Z" fill="#FF4F6D"/></g><g transform="translate(104 122)"><path fill-rule="evenodd" clip-rule="evenodd" d="M16 8c0 4.42 5.37 8 12 8s12-3.58 12-8" fill="#000" fill-opacity=".16"/></g><g transform="translate(76 90)"><path d="M35.96 10c-2.55 0-5.08 1.98-6.46 3.82-1.39-1.84-3.9-3.82-6.46-3.82-5.49 0-9.04 3.33-9.04 7.64 0 5.73 4.41 9.13 9.04 12.74 1.66 1.23 4.78 4.4 5.17 5.1.38.68 2.1.7 2.58 0 .48-.73 3.51-3.87 5.17-5.1 4.63-3.6 9.04-7 9.04-12.74 0-4.3-3.55-7.64-9.04-7.64ZM88.96 10c-2.55 0-5.08 1.98-6.46 3.82-1.39-1.84-3.9-3.82-6.46-3.82-5.49 0-9.04 3.33-9.04 7.64 0 5.73 4.41 9.13 9.04 12.74 1.65 1.23 4.78 4.4 5.17 5.1.38.68 2.1.7 2.58 0 .48-.73 3.51-3.87 5.17-5.1 4.63-3.6 9.04-7 9.04-12.74 0-4.3-3.55-7.64-9.04-7.64Z" fill="#FF5353" fill-opacity=".8"/></g><g transform="translate(76 82)"><path d="M44.1 17.12ZM19.27 5.01a7.16 7.16 0 0 0-6.42 2.43c-.6.73-1.56 2.48-1.51 3.42.02.35.22.37 1.12.59 1.65.39 4.5-1.12 6.36-.98 2.58.2 5.04 1.4 7.28 2.68 3.84 2.2 8.35 6.84 13.1 6.6.35-.02 5.41-1.74 4.4-2.72-.31-.49-3.03-1.13-3.5-1.36-2.17-1.09-4.37-2.45-6.44-3.72C29.14 9.18 24.72 5.6 19.28 5ZM68.03 17.12ZM92.91 5.01c2.36-.27 4.85.5 6.42 2.43.6.73 1.56 2.48 1.51 3.42-.02.35-.22.37-1.12.59-1.65.39-4.5-1.12-6.36-.98-2.58.2-5.04 1.4-7.28 2.68-3.84 2.2-8.35 6.84-13.1 6.6-.35-.02-5.41-1.74-4.4-2.72.31-.49 3.03-1.13 3.5-1.36 2.17-1.09 4.36-2.45 6.44-3.72C83.05 9.18 87.46 5.6 92.91 5Z" fill-rule="evenodd" clip-rule="evenodd" fill="#000" fill-opacity=".6"/></g><g transform="translate(-1)"><path fill-rule="evenodd" clip-rule="evenodd" d="M88.18 37.86c5.14-3.84 11.22-7.12 17.56-8.38 6.45-1.28 10.36-1.6 16.7-.07 1.64.39 2.2.78 3.63-.15 1.2-.79 9.66-9.5 35.42-4.66 26.03 4.88 33.77 44.08 43.42 45.57 3.49.53 7.79-.39 7.92-2.53 3.96 6.03 5 14 3.33 21.07-1.45 6.09-4.5 11.8-10 15.14-4.72 2.87-11.25 4.12-16.71 3.59a22.36 22.36 0 0 1-7.03-1.77c-2.76-1.2-4.96-3.4-7.67-4.54a53.9 53.9 0 0 0 9.18 6.42c1.64.9 3.3 1.53 5.11 2.02 1.24.34 3.76 1.48 4.96 1.18-7.81 1.4-15.16.18-22.32-3.16a51.67 51.67 0 0 1-9.2-5.48c-2.83-2.13-6.09-4.3-8.3-7.1.93 1.2-.7-.6-.92-.81a74.07 74.07 0 0 1-4.72-5.29c-1.99-2.48-3.84-5.08-5.5-7.8-1.68-2.76-8.36-13.87-10.38-16.5a195.3 195.3 0 0 0 6.41 16.93c-4.71-1.47-9.28-5.54-12.3-9.34a29.46 29.46 0 0 1-6.1-14.66c-3.83 10.41-12.79 18.63-22.03 24.3 2-3.74 5.05-6.9 7.05-10.69-9.2 9.33-24.57 13.9-28.6 27.58-1.03-4.76-4.35-8.58-5.34-13.43-1.1-5.4-1.9-11.11-1.73-16.62.4-12.24 8.64-23.72 18.16-30.82Z" fill="#d6b370"/></g><g transform="translate(49 72)"></g><g transform="translate(62 42)"></g></g></g></svg>