<svg xmlns="http://www.w3.org/2000/svg" viewBox="0 0 280 280" fill="none" shape-rendering="auto"><metadata xmlns:rdf="http://www.w3.org/1999/02/22-rdf-syntax-ns#" xmlns:xsi="http://www.w3.org/2001/XMLSchema-instance" xmlns:dc="http://purl.org/dc/elements/1.1/" xmlns:dcterms="http://purl.org/dc/terms/"><rdf:RDF><rdf:Description><dc:title>Avataaars</dc:title><dc:creator>Pablo Stanley</dc:creator><dc:source xsi:type="dcterms:URI">https://avataaars.com/</dc:source><dcterms:license xsi:type="dcterms:URI">https://avataaars.com/</dcterms:license><dc:rights>Remix of „Avataaars” (https://avataaars.com/) by „Pablo Stanley”, licensed under „Free for personal and commercial use” (https://avataaars.com/)</dc:rights></rdf:Description></rdf:RDF></metadata><mask id="viewboxMask"><rect width="280" height="280" rx="0" ry="0" x="0" y="0" fill="#fff" /></mask><g mask="url(#viewboxMask)"><g transform="translate(8)"><path d="M132 36a56 56 0 0 0-56 56v6.17A12 12 0 0 0 66 110v14a12 12 0 0 0 10.3 11.88 56.04 56.04 0 0 0 31.7 44.73v18.4h-4a72 72 0 0 0-72 72v9h200v-9a72 72 0 0 0-72-72h-4v-18.39a56.04 56.04 0 0 0 31.7-44.73A12 12 0 0 0 198 124v-14a12 12 0 0 0-10-11.83V92a56 56 0 0 0-56-56Z" fill="#ae5d29"/><path d="M108 180.61v8a55.79 55.79 0 0 0 24 5.39c8.59 0 16.73-1.93 24-5.39v-8a55.79 55.79 0 0 1-24 5.39 55.79 55.79 0 0 1-24-5.39Z" fill="#000" fill-opacity=".1"/><g transform="translate(0 170)"><path d="M108 14.7c-15.52 3.68-27.1 10.83-30.77 19.44A72.02 72.02 0 0 0 32 101v9h200v-9a72.02 72.02 0 0 0-45.23-66.86C183.1 25.53 171.52 18.38 156 14.7V32a24 24 0 1 1-48 0V14.7Z" fill="#5199e4"/><path d="M102 63.34a67.1 67.1 0 0 1-7-2.82V110h7V63.34ZM162 63.34a67.04 67.04 0 0 0 7-2.82V98.5a3.5 3.5 0 1 1-7 0V63.34Z" fill="#F4F4F4"/><path d="M187.62 34.49a71.79 71.79 0 0 1 10.83 5.63C197.11 55.62 167.87 68 132 68c30.93 0 56-13.43 56-30 0-1.19-.13-2.36-.38-3.51ZM76.38 34.49a16.48 16.48 0 0 0-.38 3.5c0 16.58 25.07 30 56 30-35.87 0-65.1-12.38-66.45-27.88a71.79 71.79 0 0 1 10.83-5.63Z" fill="#000" fill-opacity=".16"/></g><g transform="translate(78 134)"><path fill-rule="evenodd" clip-rule="evenodd" d="M40 29a14 14 0 1 1 28 0" fill="#000" fill-opacity=".7"/></g><g transform="translate(104 122)"><path fill-rule="evenodd" clip-rule="evenodd" d="M16 8c0 4.42 5.37 8 12 8s12-3.58 12-8" fill="#000" fill-opacity=".16"/></g><g transform="translate(76 90)"><g fill="#000" fill-opacity=".6"><path d="M36 22a6 6 0 1 1-12 0 6 6 0 0 1 12 0Z"/><path fill-rule="evenodd" clip-rule="evenodd" d="M70.6 24.96c1.59-3.92 5.55-6.86 10.37-7.2 4.8-.33 9.12 2 11.24 5.64.63 1.09-.1 2.06-.93 1.43-2.6-1.93-6.15-3-10-2.73A15.13 15.13 0 0 0 71.95 26c-.84.78-1.81.1-1.35-1.04Z"/></g></g><g transform="translate(76 82)"><path d="m22.77 1.58.9-.4C28.93-.91 36.88-.03 41.73 2.3c.57.27.18 1.15-.4 1.1-14.92-1.14-24.96 8.15-28.37 14.45-.1.18-.41.2-.49.03-2.3-5.32 4.45-13.98 10.3-16.3ZM87 12.07c5.75.77 14.74 5.8 13.99 11.6-.03.2-.31.26-.44.1-2.49-3.2-21.71-7.87-28.71-6.9-.64.1-1.07-.57-.63-.98 3.75-3.54 10.62-4.52 15.78-3.82Z" fill-rule="evenodd" clip-rule="evenodd" fill="#000" fill-opacity=".6"/></g><g transform="translate(-1)"><path d="M86.67 68H64v112.91a4.09 4.09 0 0 0 4.09 4.1 18.58 18.58 0 0 0 18.58-18.6V68ZM202 68h-22.67v112.91a4.09 4.09 0 0 0 4.09 4.1A18.58 18.58 0 0 0 202 166.4V68Z" fill="#F4F4F4"/><path d="M63 64a44 44 0 0 1 44-44h52a44 44 0 0 1 44 44v104.6a16.4 16.4 0 0 1-16.4 16.4c-1.98 0-3.6-1.62-3.6-3.6V74H83v94.6A16.4 16.4 0 0 1 66.6 185c-1.99 0-3.6-1.62-3.6-3.6V64Z" fill="#ffafb9"/><rect x="74" y="52" width="118" height="36" rx="8" fill="#000" fill-opacity=".1"/><rect x="74" y="50" width="118" height="36" rx="8" fill="#F4F4F4"/></g><g transform="translate(49 72)"></g><g transform="translate(62 42)"><path fill-rule="evenodd" clip-rule="evenodd" d="M94.4 4.78c-3.08-3.09-6.28 3.86-7.78 5.65-3.6 4.32-7.08 8.75-10.75 13.02-7.25 8.43-14.43 16.92-21.64 25.4-1.09 1.28-.96 1.41-2.4 1.54-.94.08-2.27-.4-3.26-.46-2.75-.16-5.46.3-8.13.9-5.35 1.17-11.01 3.1-15.65 6.07-1.22.78-2 1.7-3.32 1.94-1.15.21-2.68-.21-3.85-.32-2.08-.2-5.08-1.05-7.12-.6-2.6.55-3.58 3.7-.94 5.08 2.01 1.06 6.01.48 8.26.64 2.58.2 1.8.06 1.43 2.52-.53 3.54.35 7.49 1.84 10.72 3.46 7.5 13.03 15.46 21.77 14.72 7.28-.6 13.67-7.19 16.66-13.5a30.75 30.75 0 0 0 2.73-10.47c.19-2.27.08-4.67-.57-6.87a16.5 16.5 0 0 0-1.37-3.2c-.44-.79-2.4-2.64-2.52-3.44-.23-1.56 4.18-5.73 5.03-6.78 3.97-4.91 7.96-9.8 11.9-14.75 3.88-4.87 7.79-9.73 11.77-14.51 1.8-2.17 10.83-10.37 7.9-13.3" fill="#28354B"/></g></g></g></svg>