<svg xmlns="http://www.w3.org/2000/svg" viewBox="0 0 280 280" fill="none" shape-rendering="auto"><metadata xmlns:rdf="http://www.w3.org/1999/02/22-rdf-syntax-ns#" xmlns:xsi="http://www.w3.org/2001/XMLSchema-instance" xmlns:dc="http://purl.org/dc/elements/1.1/" xmlns:dcterms="http://purl.org/dc/terms/"><rdf:RDF><rdf:Description><dc:title>Avataaars</dc:title><dc:creator>Pablo Stanley</dc:creator><dc:source xsi:type="dcterms:URI">https://avataaars.com/</dc:source><dcterms:license xsi:type="dcterms:URI">https://avataaars.com/</dcterms:license><dc:rights>Remix of „Avataaars” (https://avataaars.com/) by „Pablo Stanley”, licensed under „Free for personal and commercial use” (https://avataaars.com/)</dc:rights></rdf:Description></rdf:RDF></metadata><mask id="viewboxMask"><rect width="280" height="280" rx="0" ry="0" x="0" y="0" fill="#fff" /></mask><g mask="url(#viewboxMask)"><g transform="translate(8)"><path d="M132 36a56 56 0 0 0-56 56v6.17A12 12 0 0 0 66 110v14a12 12 0 0 0 10.3 11.88 56.04 56.04 0 0 0 31.7 44.73v18.4h-4a72 72 0 0 0-72 72v9h200v-9a72 72 0 0 0-72-72h-4v-18.39a56.04 56.04 0 0 0 31.7-44.73A12 12 0 0 0 198 124v-14a12 12 0 0 0-10-11.83V92a56 56 0 0 0-56-56Z" fill="#614335"/><path d="M108 180.61v8a55.79 55.79 0 0 0 24 5.39c8.59 0 16.73-1.93 24-5.39v-8a55.79 55.79 0 0 1-24 5.39 55.79 55.79 0 0 1-24-5.39Z" fill="#000" fill-opacity=".1"/><g transform="translate(0 170)"><path d="M108 14.7c-15.52 3.68-27.1 10.83-30.77 19.44A72.02 72.02 0 0 0 32 101v9h200v-9a72.02 72.02 0 0 0-45.23-66.86C183.1 25.53 171.52 18.38 156 14.7V32a24 24 0 1 1-48 0V14.7Z" fill="#a7ffc4"/><path d="M102 63.34a67.1 67.1 0 0 1-7-2.82V110h7V63.34ZM162 63.34a67.04 67.04 0 0 0 7-2.82V98.5a3.5 3.5 0 1 1-7 0V63.34Z" fill="#F4F4F4"/><path d="M187.62 34.49a71.79 71.79 0 0 1 10.83 5.63C197.11 55.62 167.87 68 132 68c30.93 0 56-13.43 56-30 0-1.19-.13-2.36-.38-3.51ZM76.38 34.49a16.48 16.48 0 0 0-.38 3.5c0 16.58 25.07 30 56 30-35.87 0-65.1-12.38-66.45-27.88a71.79 71.79 0 0 1 10.83-5.63Z" fill="#000" fill-opacity=".16"/></g><g transform="translate(78 134)"><path fill-rule="evenodd" clip-rule="evenodd" d="M40 29a14 14 0 1 1 28 0" fill="#000" fill-opacity=".7"/></g><g transform="translate(104 122)"><path fill-rule="evenodd" clip-rule="evenodd" d="M16 8c0 4.42 5.37 8 12 8s12-3.58 12-8" fill="#000" fill-opacity=".16"/></g><g transform="translate(76 90)"><path d="M34.5 30.7 29 25.2l-5.5 5.5c-.4.4-1.1.4-1.6 0l-1.6-1.6c-.4-.4-.4-1.1 0-1.6l5.5-5.5-5.5-5.5c-.4-.5-.4-1.2 0-1.6l1.6-1.6c.4-.4 1.1-.4 1.6 0l5.5 5.5 5.5-5.5c.4-.4 1.1-.4 1.6 0l1.6 1.6c.4.4.4 1.1 0 1.6L32.2 22l5.5 5.5c.4.4.4 1.1 0 1.6l-1.6 1.6c-.4.4-1.1.4-1.6 0ZM88.5 30.7 83 25.2l-5.5 5.5c-.4.4-1.1.4-1.6 0l-1.6-1.6c-.4-.4-.4-1.1 0-1.6l5.5-5.5-5.5-5.5c-.4-.5-.4-1.2 0-1.6l1.6-1.6c.4-.4 1.1-.4 1.6 0l5.5 5.5 5.5-5.5c.4-.4 1.1-.4 1.6 0l1.6 1.6c.4.4.4 1.1 0 1.6L86.2 22l5.5 5.5c.4.4.4 1.1 0 1.6l-1.6 1.6c-.4.4-1.1.4-1.6 0Z" fill="#000" fill-opacity=".6"/></g><g transform="translate(76 82)"><path d="M38.66 11.1c-5 .35-9.92.08-14.92-.13-3.83-.16-7.72-.68-11.37 1.01-.7.32-4.53 2.28-4.44 3.35.07.85 3.93 2.2 4.63 2.44 3.67 1.29 7.18.9 10.95.66 4.64-.27 9.25-.07 13.87-.2 3.12-.1 7.92-.63 9.46-4.4.46-1.14.1-3.42-.36-4.66-.19-.5-.72-.69-1.13-.4a15.04 15.04 0 0 1-6.68 2.32ZM73.34 11.1c5 .35 9.92.08 14.92-.13 3.83-.16 7.72-.68 11.37 1.01.7.32 4.53 2.28 4.44 3.35-.07.85-3.93 2.2-4.63 2.44-3.67 1.29-7.18.9-10.95.66-4.63-.27-9.24-.07-13.86-.2-3.12-.1-7.92-.63-9.46-4.4-.46-1.14-.1-3.42.36-4.66.18-.5.72-.69 1.13-.4a15.04 15.04 0 0 0 6.68 2.32Z" fill-rule="evenodd" clip-rule="evenodd" fill="#000" fill-opacity=".6"/></g><g transform="translate(-1)"><path d="M157 180.61V199h4a71.7 71.7 0 0 1 46 16.6V92a74 74 0 0 0-148 0v183.72A28 28 0 0 0 83 248v-45.58a71.95 71.95 0 0 1 22-3.42h4v-18.39a56.24 56.24 0 0 1-26-25.36V93.27a150 150 0 0 0 28.34-12.77c15.4-8.9 28.1-19.56 36.73-30.1 1.76 5.2 4.1 10.4 7.04 15.48 8.78 15.2 21.12 26.35 33.9 32.04v.25c.4.06.8.15 1.18.26.77.32 1.55.62 2.33.9A12 12 0 0 1 199 110v13a12 12 0 0 1-10.22 11.87A56.03 56.03 0 0 1 157 180.6Z" fill="#ecdcbf"/><path d="M157 199v-18.39a56.03 56.03 0 0 0 31.8-45.74A12 12 0 0 0 199 123v-13a12 12 0 0 0-6.5-10.66 44.57 44.57 0 0 0 14.5 2.8v113.47A71.7 71.7 0 0 0 161 199h-4ZM83 202.42v-47.17a56.24 56.24 0 0 0 26 25.36V199h-4c-7.67 0-15.07 1.2-22 3.42ZM189 97.92v.25c.4.06.8.15 1.18.26l-1.18-.51Z" fill="#000" fill-opacity=".27"/></g><g transform="translate(49 72)"></g><g transform="translate(62 42)"></g></g></g></svg>