<svg xmlns="http://www.w3.org/2000/svg" viewBox="0 0 280 280" fill="none" shape-rendering="auto"><metadata xmlns:rdf="http://www.w3.org/1999/02/22-rdf-syntax-ns#" xmlns:xsi="http://www.w3.org/2001/XMLSchema-instance" xmlns:dc="http://purl.org/dc/elements/1.1/" xmlns:dcterms="http://purl.org/dc/terms/"><rdf:RDF><rdf:Description><dc:title>Avataaars</dc:title><dc:creator>Pablo Stanley</dc:creator><dc:source xsi:type="dcterms:URI">https://avataaars.com/</dc:source><dcterms:license xsi:type="dcterms:URI">https://avataaars.com/</dcterms:license><dc:rights>Remix of „Avataaars” (https://avataaars.com/) by „Pablo Stanley”, licensed under „Free for personal and commercial use” (https://avataaars.com/)</dc:rights></rdf:Description></rdf:RDF></metadata><mask id="viewboxMask"><rect width="280" height="280" rx="0" ry="0" x="0" y="0" fill="#fff" /></mask><g mask="url(#viewboxMask)"><g transform="translate(8)"><path d="M132 36a56 56 0 0 0-56 56v6.17A12 12 0 0 0 66 110v14a12 12 0 0 0 10.3 11.88 56.04 56.04 0 0 0 31.7 44.73v18.4h-4a72 72 0 0 0-72 72v9h200v-9a72 72 0 0 0-72-72h-4v-18.39a56.04 56.04 0 0 0 31.7-44.73A12 12 0 0 0 198 124v-14a12 12 0 0 0-10-11.83V92a56 56 0 0 0-56-56Z" fill="#fd9841"/><path d="M108 180.61v8a55.79 55.79 0 0 0 24 5.39c8.59 0 16.73-1.93 24-5.39v-8a55.79 55.79 0 0 1-24 5.39 55.79 55.79 0 0 1-24-5.39Z" fill="#000" fill-opacity=".1"/><g transform="translate(0 170)"><path d="M132.5 51.83c18.5 0 33.5-9.62 33.5-21.48 0-.36-.01-.7-.04-1.06A72 72 0 0 1 232 101.04V110H32v-8.95a72 72 0 0 1 67.05-71.83c-.03.37-.05.75-.05 1.13 0 11.86 15 21.48 33.5 21.48Z" fill="#E6E6E6"/><path d="M132.5 58.76c21.89 0 39.63-12.05 39.63-26.91 0-.6-.02-1.2-.08-1.8-2-.33-4.03-.59-6.1-.76.04.35.05.7.05 1.06 0 11.86-15 21.48-33.5 21.48S99 42.2 99 30.35c0-.38.02-.76.05-1.13-2.06.14-4.08.36-6.08.67-.07.65-.1 1.3-.1 1.96 0 14.86 17.74 26.91 39.63 26.91Z" fill="#000" fill-opacity=".16"/><path d="M100.78 29.12 101 28c-2.96.05-6 1-6 1l-.42.66A72.01 72.01 0 0 0 32 101.06V110h74s-10.7-51.56-5.24-80.8l.02-.08ZM158 110s11-53 5-82c2.96.05 6 1 6 1l.42.66a72.01 72.01 0 0 1 62.58 71.4V110h-74Z" fill="#b1e2ff"/><path d="M101 28c-6 29 5 82 5 82H90L76 74l6-9-6-6 19-30s3.04-.95 6-1ZM163 28c6 29-5 82-5 82h16l14-36-6-9 6-6-19-30s-3.04-.95-6-1Z" fill-rule="evenodd" clip-rule="evenodd" fill="#000" fill-opacity=".15"/><path d="m183.42 85.77.87-2.24 6.27-4.7a4 4 0 0 1 4.85.05l6.6 5.12-18.59 1.77Z" fill="#E6E6E6"/></g><g transform="translate(78 134)"><path fill-rule="evenodd" clip-rule="evenodd" d="M35.12 15.13a19 19 0 0 0 37.77-.09c.08-.77-.77-2.04-1.85-2.04H37.1C36 13 35 14.18 35.12 15.13Z" fill="#000" fill-opacity=".7"/><path d="M70 13H39a5 5 0 0 0 5 5h21a5 5 0 0 0 5-5Z" fill="#fff"/><path d="M66.7 27.14A10.96 10.96 0 0 0 54 25.2a10.95 10.95 0 0 0-12.7 1.94A18.93 18.93 0 0 0 54 32c4.88 0 9.33-1.84 12.7-4.86Z" fill="#FF4F6D"/></g><g transform="translate(104 122)"><path fill-rule="evenodd" clip-rule="evenodd" d="M16 8c0 4.42 5.37 8 12 8s12-3.58 12-8" fill="#000" fill-opacity=".16"/></g><g transform="translate(76 90)"><circle cx="82" cy="22" r="12" fill="#fff"/><circle cx="82" cy="22" r="6" fill="#000" fill-opacity=".7"/><path fill-rule="evenodd" clip-rule="evenodd" d="M16.16 25.45c1.85-3.8 6-6.45 10.84-6.45 4.81 0 8.96 2.63 10.82 6.4.55 1.13-.24 2.05-1.03 1.37a15.05 15.05 0 0 0-9.8-3.43c-3.73 0-7.12 1.24-9.55 3.23-.9.73-1.82-.01-1.28-1.12Z" fill="#000" fill-opacity=".6"/></g><g transform="translate(76 82)"><path d="m22.77 1.58.9-.4C28.93-.91 36.88-.03 41.73 2.3c.57.27.18 1.15-.4 1.1-14.92-1.14-24.96 8.15-28.37 14.45-.1.18-.41.2-.49.03-2.3-5.32 4.45-13.98 10.3-16.3ZM89.23 1.58l-.9-.4C83.07-.91 75.12-.03 70.27 2.3c-.57.27-.18 1.15.4 1.1 14.92-1.14 24.96 8.15 28.37 14.45.1.18.41.2.49.03 2.3-5.32-4.45-13.98-10.3-16.3Z" fill-rule="evenodd" clip-rule="evenodd" fill="#000" fill-opacity=".6"/></g><g transform="translate(-1)"><path d="M190.47 97.5c1-2.4 1.53-4.92 1.53-7.5 0-18.23-26.41-33-59-33-32.58 0-59 14.77-59 33 0 2.58.53 5.1 1.53 7.5C81.6 82.89 105.03 72 133 72s51.4 10.89 57.47 25.5Z" fill="#EDECE3"/><path d="M49 94.32C48.93 133.5 78 141 78 141c-5.44-49.55 23.54-65.15 46.53-77.53 2.94-1.58 5.78-3.11 8.44-4.65a309.5 309.5 0 0 0 8.48 4.68C164.43 75.87 193.42 91.48 188 141c0 0 29.07-8.46 29-46.68C216.92 47.15 164.85 3 135 3c-.67 0-1.34.03-2 .09-.67-.06-1.33-.09-2-.09-29.93 0-81.92 44.15-82 91.32Z" fill="#65c9ff"/><path d="M49.01 95.9c.7 37.8 29 45.1 29 45.1s-29.07-7.07-29-43.97l.01-1.13ZM77.33 129.68c.15-37.86 26.18-51.05 47.2-61.71 11-5.58 20.64-10.47 24.47-17.83 4.13-7.25 5.39-13.94 4.65-19.67-.5 4.37-1.98 9.1-4.65 14.07-3.83 7.82-13.47 13-24.47 18.93-21.14 11.38-47.35 25.49-47.2 66.21Z" fill="#000" fill-opacity=".16"/></g><g transform="translate(49 72)"></g><g transform="translate(62 42)"></g></g></g></svg>