<svg xmlns="http://www.w3.org/2000/svg" viewBox="0 0 280 280" fill="none" shape-rendering="auto"><metadata xmlns:rdf="http://www.w3.org/1999/02/22-rdf-syntax-ns#" xmlns:xsi="http://www.w3.org/2001/XMLSchema-instance" xmlns:dc="http://purl.org/dc/elements/1.1/" xmlns:dcterms="http://purl.org/dc/terms/"><rdf:RDF><rdf:Description><dc:title>Avataaars</dc:title><dc:creator>Pablo Stanley</dc:creator><dc:source xsi:type="dcterms:URI">https://avataaars.com/</dc:source><dcterms:license xsi:type="dcterms:URI">https://avataaars.com/</dcterms:license><dc:rights>Remix of „Avataaars” (https://avataaars.com/) by „Pablo Stanley”, licensed under „Free for personal and commercial use” (https://avataaars.com/)</dc:rights></rdf:Description></rdf:RDF></metadata><mask id="viewboxMask"><rect width="280" height="280" rx="0" ry="0" x="0" y="0" fill="#fff" /></mask><g mask="url(#viewboxMask)"><g transform="translate(8)"><path d="M132 36a56 56 0 0 0-56 56v6.17A12 12 0 0 0 66 110v14a12 12 0 0 0 10.3 11.88 56.04 56.04 0 0 0 31.7 44.73v18.4h-4a72 72 0 0 0-72 72v9h200v-9a72 72 0 0 0-72-72h-4v-18.39a56.04 56.04 0 0 0 31.7-44.73A12 12 0 0 0 198 124v-14a12 12 0 0 0-10-11.83V92a56 56 0 0 0-56-56Z" fill="#ffdbb4"/><path d="M108 180.61v8a55.79 55.79 0 0 0 24 5.39c8.59 0 16.73-1.93 24-5.39v-8a55.79 55.79 0 0 1-24 5.39 55.79 55.79 0 0 1-24-5.39Z" fill="#000" fill-opacity=".1"/><g transform="translate(0 170)"><path d="M132.5 54C151 54 166 44.37 166 32.5c0-1.1-.13-2.18-.38-3.23A72 72 0 0 1 232 101.05V110H32v-8.95A72 72 0 0 1 99.4 29.2a14.1 14.1 0 0 0-.4 3.3C99 44.37 114 54 132.5 54Z" fill="#ffffff"/><g transform="translate(77 58)"><g fill-rule="evenodd" clip-rule="evenodd" fill="#fff"><path d="M72.34 18.04a8.66 8.66 0 0 1-1 2.99c-.71 1.21-2.02 1.7-2.78 2.82-1.19 1.75.4 4.27-.78 5.83-1.27 1.68-4.14.67-5.26 2.9-1.18 2.35.53 5.49-.95 7.83-1.47-.37-1.92-5.9-4.19-2.37-1.45 2.25-.47 3.47-2.64.23-.76-1.12-1.62-2.13-3.1-1.39-1.04.52-1.26 2.84-2.21 3.09-2.33.6-2.42-5.62-3.21-6.8a2.8 2.8 0 0 0-1.62-1.28c-.67-.2-1.87.22-2.43-.1-1.04-.59-1.18-2.55-1.22-3.6-.07-1.93.58-3.91.04-5.83-.45-1.61-1.89-2.6-2.36-4.18C36.1 9.64 47.68 4.89 54.3 4.63c7.74-.3 19.04 4.22 18.04 13.4Zm1.83-5.32c-1.45-3.44-4.65-6.17-7.91-8-1.59-.9-3.3-1.56-5.09-1.95-1.64-.36-3.55-.12-5.12-.58C54.73 1.81 53.9.95 52.35 1c-2.11.07-4.31 1.17-6.16 2.09-3.66 1.8-6.77 4.15-8.73 7.74-2.1 3.86-1.9 7.36.35 10.95 2.15 3.44-.97 8.27 2.17 11.53 1.32 1.37 2.62.37 3.87 1.03.96.5.92 3.46 1.19 4.33 1.2 3.9 5.51 5.4 7.5 1.2.94 2.34 4.66 4.75 6.39 1.68 1.08 1.4 2.95 2 4.38.8 1.35-1.14 1.5-3.76 1.56-5.35.06-1.24-.5-2.77.46-3.66 1.04-.98 3.2-.57 4.37-1.84 1.34-1.45.78-3.14.89-4.87.1-1.75.41-1.3 1.7-2.56 2.9-2.81 3.38-7.8 1.88-11.35Z"/><path d="M50.42 29.12c2.02-1.82 1.6-7.4 1.42-9.96-.31-4.86-3.35-3.4-5.2-.38-1.4 2.3-4.77 6-3.26 8.88 1.2 2.3 5.18 3.13 7.04 1.46ZM63.8 20.27c-1.04-1.92-1.43-2.2-2.66-3.78-.8-1.01-1.9-2.8-3.4-2.44-2.59.62-1.53 6.6-1.5 8.4.02 1.36-.28 2.76.85 3.73 1.15.98 3.05.9 4.44.69 4.26-.64 4.06-3.26 2.26-6.6ZM55.24 32.83c-.28-.04.08-.36.12-.59.19.62.33.65-.12.59Zm1.04-4.31c-2.61-2.77-7.57 6.4-4.08 7.43.8.23 1.4-.37 2.16-.47 1.1-.16 2.02.48 2.97-.53 1.5-1.58.2-5.1-1.05-6.43Z"/></g></g></g><g transform="translate(78 134)"><path fill-rule="evenodd" clip-rule="evenodd" d="M40 15a14 14 0 1 0 28 0" fill="#000" fill-opacity=".7"/></g><g transform="translate(104 122)"><path fill-rule="evenodd" clip-rule="evenodd" d="M16 8c0 4.42 5.37 8 12 8s12-3.58 12-8" fill="#000" fill-opacity=".16"/></g><g transform="translate(76 90)"><path d="M25 27s-6 7.27-6 11.27a6 6 0 1 0 12 0c0-4-6-11.27-6-11.27Z" fill="#92D9FF"/><path d="M36 22a6 6 0 1 1-12 0 6 6 0 0 1 12 0ZM88 22a6 6 0 1 1-12 0 6 6 0 0 1 12 0Z" fill="#000" fill-opacity=".6"/></g><g transform="translate(76 82)"><path d="m22.77 1.58.9-.4C28.93-.91 36.88-.03 41.73 2.3c.57.27.18 1.15-.4 1.1-14.92-1.14-24.96 8.15-28.37 14.45-.1.18-.41.2-.49.03-2.3-5.32 4.45-13.98 10.3-16.3ZM89.23 1.58l-.9-.4C83.07-.91 75.12-.03 70.27 2.3c-.57.27-.18 1.15.4 1.1 14.92-1.14 24.96 8.15 28.37 14.45.1.18.41.2.49.03 2.3-5.32-4.45-13.98-10.3-16.3Z" fill-rule="evenodd" clip-rule="evenodd" fill="#000" fill-opacity=".6"/></g><g transform="translate(-1)"><path d="M242.13 168.86c4.84 6.8 11.1 14 12.25 22.06.45 3.2.7 16.23-7.54 11.43-.27 4.36-.97 4.98.34 9.2.88 2.86 2.08 8.62-3.87 8.1 2.26 6.17 5.88 14.76 2.48 21.16-5.58 10.51-11.89-2.74-13.57-7.49.1 3.28-3.42 9.2-7.84 4.63.35 5.42 2.52 13.78-.66 18.86-6.16 9.85-12.97-2.62-13.2-7.9-1.11 3.56-.28 12.14-7.6 10.15-6.32-1.71-4.03-10.09-2.8-13.87-2.02 3.56-4.5 8.85-4.88 12.87-.34 3.45 2.94 11.57-5.55 10.05-6.52-1.17-6.76-10.9-6.65-15.18.1-3.48 3.46-11.43 1.18-14.25-12.73 5.34.6 23.3-10.95 27.3-3.84 1.32-7.04-1.18-8.32-4.64.4-1.7-.36-2.56-2.28-2.6-1.21-1.49-2.01-1.44-2.8-3.66-2.31-6.52 2.2-15.19 5.43-21-3.35 3.05-6.05 7.25-9.7 9.91-2.45 1.8-6.08 2.31-8.38-.17-2.51-2.73-.13-5.34 1.22-7.82 3-5.49 7.73-8.68 12.67-13.08 4.33-3.85 8.18-8.18 12.01-12.37 2.57-2.8 5.01-5.8 7.06-8.97A72.1 72.1 0 0 0 161 199h-4v-18.39a56.24 56.24 0 0 0 25.8-24.98c.1-3.28.28-7.11.47-11.2.54-12.09 1.19-26.4.48-35.34l-.2-2.58c-1.12-14.36-1.8-23.03-12-36.06-4.56-5.83-13.18-7.67-21.72-9.5-8.09-1.73-16.1-3.45-20.51-8.51-4.13 4.78-10.14 7.32-16.74 8.99-1.45.37-2.9.67-4.34.96-4.98 1.03-9.7 2-13.08 5.6-7.8 8.32-11.23 13.88-13.62 24.26A116.55 116.55 0 0 0 79 126.83c.13 1.88.22 3.78.32 5.69.35 7.1.71 14.32 2.9 21.1a56.23 56.23 0 0 0 26.78 27V199h-4c-1.1 0-2.2.03-3.28.07.67 3.44 1.09 6.93.81 10.34-.4 5-1.34 9.66-.85 14.7 1.04 10.52 5.41 20.5 9.02 30.52 1.73 4.82 9.36 10.49 6.23 14.46-3.13 3.98-13.81-5.47-16.2-10.05-2.44-4.66-4.65-9.4-7.18-14.03 1.48 6.46 2.77 13.1 4.8 19.41 1.36 4.27 3.43 10.72-2.28 11.94-8.95 1.91-9.3-12.58-10.18-16.9-1.47-7.19-3.1-9.98-5.5-16.97-.49 5.34.34 10.9-.81 16.2-.7 3.19-4.36 5.83-6.56 8.53-7.53 9.28-9.32-6.28-11.23-10.55-3.3 2.4-10.5 7.16-14.9 4.14-3.26-2.23-1.2-6.27-.44-9.03 1.22-4.45 1.94-8.85-1.31-12.87-3.1 3-9.92 4.75-13.88 1.88-5-3.63-.62-8.94 1.63-12.7 4.33-7.26 4.07-15.87 5.44-23.94.46-2.7 1.06-6.26.3-8.12-1.1-2.68-2.3-2.7-4.74-2.1-3.45.87-6.29 2.8-6.87 5.58-.84 4.03 3.57 5.62 3.93 9.12.77 7.55-8.7 4-11.53.62-6.95-8.36-1.26-18.23 4.21-25.56 1.87-2.5 2.4-3.22 2.02-6.48-.77-6.41-2.5-12.18-1.88-18.72.86-8.97 4.3-17.44 9.35-24.82 3.46-5.06 5.29-9.45 5.79-15.57 1.41-17.39 7.32-35.28 15.05-50.74 3.97-7.93 7.96-16.5 14.83-22.4 2.23-1.91 6.24-2.8 8.17-4.65 3.56-3.43.44-9.5 4.95-13.39 3.78-3.25 8.17-2.17 12.28-3.93 4.21-1.81 5.11-7.42 10.21-8.61 5.16-1.2 9.29 2.18 13.66 3.8 6.43 2.38 10.45 1.69 16.76-.3l.08-.03c4.2-1.33 6.95-2.2 10.89.1 2.55 1.5 4.52 5.95 7.65 6.37 3.8.52 9.14-3.04 13.35-2.9 6.45.2 9.59 4.24 12.25 8.55 1.55 2.5 4.4 3.67 6.1 6.15.62.9 1.24 1.8 2.13 2.61 6.31 5.77 14.58 10.25 21.37 15.68 12.66 10.15 15.66 23.88 16.48 37.83.66 11.18-.37 24.31 6.74 34.31 3.71 5.22 7.82 9.73 10.02 15.85.78 2.19 1.85 5.2.51 7.12-1.8 2.58-6.36 2.6-8.31.14-1.9 5.87 4.57 14.35 8.03 19.22Z" fill="#ecdcbf"/><path d="M182.5 156.2c-.07 3 0 5.98.38 8.86.33 2.5.84 4.91 1.34 7.31 1.13 5.33 2.23 10.56 1.3 16.27-.75 4.53-2.73 8.87-5.36 12.94A72.09 72.09 0 0 0 161 199h-4v-18.39a56.24 56.24 0 0 0 25.5-24.4ZM101.72 199.07a125 125 0 0 0-1.23-5.48c-2.14-8.82-6.42-16.63-10.77-24.55-1.9-3.46-3.8-6.94-5.56-10.53a37.08 37.08 0 0 1-1.95-4.89 56.23 56.23 0 0 0 26.8 27V199h-4c-1.1 0-2.2.03-3.28.07Z" fill="#000" fill-opacity=".24"/><path d="M102.48 33.5c-1.67 0-12.16 4.75-8.24 6.16 2.4.86 12.5-6.15 8.24-6.15ZM171.05 47.36c-.85.38-.83.73.04 1.07.85-.38.83-.74-.04-1.07ZM195.51 65.6a26.84 26.84 0 0 0-1.37-2.76c-.89-1.27-6.24-8.4-2.47-7.5 2.08.48 4.89 6.17 6.15 8.74.78 1.57 4.28 7.12.72 6.75-.63-.07-1.95-2.92-3.03-5.23ZM204.02 110.75c-.15-1.17.25-4.76-2.46-3.42-1.8.9.67 11.72.82 13.13l.46 3.95v.03c.6 6.07 1.42 12.1 1.33 18.23-.01.76-1.2 6.66 1.55 5.4 1.46-.66.78-8.74.57-11.2-.74-8.72-1.11-17.46-2.27-26.12ZM65.36 122.25c.08 1.58-.7 9.75 1.43 9.8 1.83.04 1.24-8.4 1-11.83-.08-1.08-.08-11.14-2.1-9.91-2.32 1.4-.46 9.52-.34 11.94ZM73.8 180c0-1.43.82-14.45-1.9-11.38-1.37 1.54-.48 7.02-.35 8.88.05.7-.52 2.86.41 3.19.76.26 1.83.32 1.84-.7ZM48.12 193.16c1.93-.05.14-37.83-2.82-37.79-2.08.03 1.36 37.83 2.82 37.8ZM50.35 212.52c-2.4 0-1.95 8.46-.54 9.13 2.14 1.03 3.23-9.13.54-9.13ZM65.59 216.06c.02 1.05-1.18 1.07-1.98.74-.72-.3-.63-2.31-.58-3.49.05-1.1-.15-2.2-.31-3.29-.5-3.38-1.26-8.48.04-9.65 1.98-1.78 2.02.17 2.55 1.5 1.56 3.9.2 10.03.28 14.19ZM203.02 169.59c-2.53-.5-3.85 8.1-2.7 9.01 1.92 1.53 5.35-8.49 2.7-9.01ZM202.75 207.38c-1.13-.22-9.43 15.74-8.75 16.64 1.3 1.72 12.83-15.82 8.75-16.64ZM182.33 214.76c-1.78-.8-9.33 10.75-7.4 11.62 1.75.78 9.56-10.65 7.4-11.62ZM224.43 171.45c-2.16 0-2.06 11.82-.4 12.56 1.7.78 2.94-12.56.4-12.56ZM83.51 54.2c1.26-.65 5.45-.87 3.1 1.29-2 1.84-9.53 12.51-12.12 12.62-4.22.18 2.59-7.24 4.76-9.6 1.33-1.45 2.49-3.41 4.26-4.32ZM59.25 83.98c-2.18-.43-5.83 10.27-4.56 11.56 1.93 1.95 7.01-11.07 4.56-11.56ZM81.4 201.85c.48-2.6 2.38-.2 2.8 1.14.4 1.34 4.62 11.08 3.56 12.36-1.63 1.97-2.34-1.37-2.9-2.57-1.31-2.83-3.92-8.43-3.46-10.93ZM75.99 225.82c-2.3 0-2.03 9.8-.67 10.38 2.12.9 3.48-10.38.67-10.38ZM232.81 203.88a58.4 58.4 0 0 1 4.98 13.57c.14.6 2.06 5.56-.66 4.84-1.56-.41-1.8-4.78-2.2-6.1a32.5 32.5 0 0 0-2.58-5.56c-1.41-2.63-2.85-5.31-3.06-7.64-.33-3.9 1.84-2.42 3.52.89ZM218.09 216.95c-2.13 0-2.24 10.77-.9 11.4 1.86.88 3.62-11.4.9-11.4ZM224.25 128.65c1.58-.4-3.4-13.32-5.18-13.18-2.7.22 2.78 13.8 5.18 13.18ZM197.43 184.75c-.84.38-.83.74.05 1.07.84-.38.83-.74-.05-1.07ZM173.22 239.99c.79 0 1.12-1.23-.06-1.25-.77 0-1.18 1.25.06 1.25ZM74.68 184.63c.03-1.9-2.46-.5-2.45 1.1.03 3.21 2.4 1.75 2.45-1.1ZM68.52 136.88c-.8 0-1.13 1.24.05 1.27.78 0 1.2-1.27-.05-1.27ZM47.78 199.44c-.1 0 1.53-1.99 1.6-.05.07 1.47-1.31.06-1.6.05ZM53.6 98.06c-2.37 0-2.02 5.76-.51 6.13 2.52.61 2.86-6.13.5-6.13ZM66.21 222.33c-2.28 0-2.44 7.8-.86 8.3 2.45.75 3.24-8.3.86-8.3ZM47.46 227.93c-.88.4-.86.76.04 1.1.87-.39.86-.75-.04-1.1ZM217.46 231.28c-2.32 0-2.23 9.56-.8 10.2 1.98.9 3.48-10.2.8-10.2ZM193.95 240.16c-2.41-.48-3.68 7.4-2.55 8.3 1.85 1.45 5.02-7.8 2.55-8.3ZM173.47 247.45c-2 0-1.51 3.58-.36 4.1 2 .93 2.6-4.1.37-4.1Z" fill="#fff" fill-opacity=".3"/></g><g transform="translate(49 72)"></g><g transform="translate(62 42)"></g></g></g></svg>