<svg xmlns="http://www.w3.org/2000/svg" viewBox="0 0 280 280" fill="none" shape-rendering="auto"><metadata xmlns:rdf="http://www.w3.org/1999/02/22-rdf-syntax-ns#" xmlns:xsi="http://www.w3.org/2001/XMLSchema-instance" xmlns:dc="http://purl.org/dc/elements/1.1/" xmlns:dcterms="http://purl.org/dc/terms/"><rdf:RDF><rdf:Description><dc:title>Avataaars</dc:title><dc:creator>Pablo Stanley</dc:creator><dc:source xsi:type="dcterms:URI">https://avataaars.com/</dc:source><dcterms:license xsi:type="dcterms:URI">https://avataaars.com/</dcterms:license><dc:rights>Remix of „Avataaars” (https://avataaars.com/) by „Pablo Stanley”, licensed under „Free for personal and commercial use” (https://avataaars.com/)</dc:rights></rdf:Description></rdf:RDF></metadata><mask id="viewboxMask"><rect width="280" height="280" rx="0" ry="0" x="0" y="0" fill="#fff" /></mask><g mask="url(#viewboxMask)"><g transform="translate(8)"><path d="M132 36a56 56 0 0 0-56 56v6.17A12 12 0 0 0 66 110v14a12 12 0 0 0 10.3 11.88 56.04 56.04 0 0 0 31.7 44.73v18.4h-4a72 72 0 0 0-72 72v9h200v-9a72 72 0 0 0-72-72h-4v-18.39a56.04 56.04 0 0 0 31.7-44.73A12 12 0 0 0 198 124v-14a12 12 0 0 0-10-11.83V92a56 56 0 0 0-56-56Z" fill="#614335"/><path d="M108 180.61v8a55.79 55.79 0 0 0 24 5.39c8.59 0 16.73-1.93 24-5.39v-8a55.79 55.79 0 0 1-24 5.39 55.79 55.79 0 0 1-24-5.39Z" fill="#000" fill-opacity=".1"/><g transform="translate(0 170)"><path d="M92.68 29.94A72.02 72.02 0 0 0 32 101.05V110h200v-8.95a72.02 72.02 0 0 0-60.68-71.11 23.87 23.87 0 0 1-7.56 13.6l-29.08 26.23a4 4 0 0 1-5.36 0l-29.08-26.23a23.87 23.87 0 0 1-7.56-13.6Z" fill="#e6e6e6"/></g><g transform="translate(78 134)"><path fill-rule="evenodd" clip-rule="evenodd" d="M35.12 29.87a19 19 0 0 1 37.77.09c.08.77-.77 2.04-1.85 2.04H37.1C36 32 35 30.82 35.12 29.87Z" fill="#000" fill-opacity=".7"/><path d="M69.59 32H38.4a11 11 0 0 1 15.6-6.8A11 11 0 0 1 69.59 32Z" fill="#FF4F6D"/><path d="M66.57 17.75A5 5 0 0 1 65 18H44c-.8 0-1.57-.2-2.24-.53A18.92 18.92 0 0 1 54 13c4.82 0 9.22 1.8 12.57 4.75Z" fill="#fff"/></g><g transform="translate(104 122)"><path fill-rule="evenodd" clip-rule="evenodd" d="M16 8c0 4.42 5.37 8 12 8s12-3.58 12-8" fill="#000" fill-opacity=".16"/></g><g transform="translate(76 90)"><path d="M25 27s-6 7.27-6 11.27a6 6 0 1 0 12 0c0-4-6-11.27-6-11.27Z" fill="#92D9FF"/><path d="M36 22a6 6 0 1 1-12 0 6 6 0 0 1 12 0ZM88 22a6 6 0 1 1-12 0 6 6 0 0 1 12 0Z" fill="#000" fill-opacity=".6"/></g><g transform="translate(76 82)"><g fill-rule="evenodd" clip-rule="evenodd" fill="#DADADA"><path d="M57 12.82ZM96.12 7.6c1.46.56 9.19 6.43 7.86 9.16a.8.8 0 0 1-1.29.22 10.63 10.63 0 0 0-1.7-1.19c-5.1-2.84-11.3-1.93-16.73-.91-6.12 1.14-12.11 3.48-18.39 2.67-2.04-.26-6.08-1.22-7.63-2.96-.47-.53-.06-1.38.64-1.43 1.44-.11 2.86-.86 4.33-1.28 3.65-1.03 7.4-1.56 11.11-2.29 6.62-1.3 15.17-4.53 21.8-2Z"/><path d="M58.76 12.76c-1.17.04-2.8 3.56-.56 3.68 2.23.11 1.73-3.72.56-3.68ZM55 12.8c0-.01 0-.01 0 0ZM15.88 7.56c-1.46.56-9.19 6.43-7.86 9.16.24.5.89.6 1.29.22.55-.52 1.58-1.11 1.71-1.18 5.1-2.84 11.3-1.93 16.73-.91 6.12 1.14 12.11 3.48 18.39 2.67 2.04-.26 6.08-1.22 7.63-2.96.47-.53.06-1.38-.64-1.43-1.44-.11-2.86-.86-4.33-1.28-3.65-1.03-7.4-1.56-11.11-2.29-6.62-1.3-15.17-4.53-21.8-2Z"/><path d="M54.97 11.79c1.17.04 2.77 4.5.53 4.67-2.24.18-1.7-4.71-.53-4.67Z"/></g></g><g transform="translate(-1)"><path d="M44.83 105.6c-.39-1.61-.77-3.24-1.13-4.92-1.95-9.23-2.95-20.22 2.89-39.67-6.9 22.99-4.25 34.15-1.76 44.58 1.23 5.2 2.43 10.2 2.37 16.4a15.44 15.44 0 0 0 0 0c.06-6.2-1.14-11.21-2.37-16.4ZM218.38 114.23c-.13.4-.16.8-.18 1.23l.18-1.23ZM218.05 116.81c-.11 1.09-.2 2.2-.23 3.35-29.04-10.76-54.94-29.62-70.32-51.55-12.1 15.62-31.96 23.04-51.63 30.4-17.38 6.5-34.62 12.94-46.2 24.94l1.09-1.5c11-14.6 28.76-21.88 46.7-29.24 18.82-7.71 37.82-15.5 49.39-31.9 15.4 24.1 41.81 44.65 71.16 55.63l.04-.12Z" fill="#000" fill-opacity=".16"/><path d="M32 280h1v-9a72 72 0 0 1 72-72h4v-18.39a56.03 56.03 0 0 1-31.8-45.74A12 12 0 0 1 67 123v-13c0-.8.08-1.57.22-2.32 9.12-5.82 19.65-10.13 30.24-14.48 18.81-7.71 37.82-15.5 49.39-31.9C158.8 80 177.4 96.6 198.87 108.2c.08.59.13 1.19.13 1.8v13a12 12 0 0 1-10.2 11.87A56.03 56.03 0 0 1 157 180.6V199h4a72 72 0 0 1 72 72v9c24.41-13.94 15.86-33.21 6.28-48.46a303.17 303.17 0 0 0-4.07-6.27c-3.48-5.25-6.45-9.74-7.2-12.97-.1-.46-.17-.9-.18-1.3-.14-4.62 3.14-7.84 7.16-11.78 6.22-6.08 14.18-13.89 14.01-31.22-.51-15.83-9.8-22.25-18.1-28-6.93-4.78-13.17-9.1-13.1-18-.01-1.82.08-3.54.25-5.19.11-.4.13-.83.15-1.25v-.1c.45-3.44 1.2-6.62 1.98-9.87 2.55-10.72 5.3-22.23-2.38-46.59-2.9-9.12-6.97-16.5-12.1-22.46-14.12-16.42-36.35-22.04-64.9-23.29-2.55-.11-5.15-.19-7.8-.23V13h-1c-43.08.77-73.16 9.54-84.8 46-7.67 24.36-4.93 35.87-2.37 46.6 1.23 5.19 2.43 10.2 2.37 16.4.03 3.75-1.06 6.7-2.85 9.2-2.46 3.43-6.23 6.04-10.24 8.8-8.3 5.75-17.6 12.17-18.1 28-.17 17.33 7.8 25.14 14.01 31.22 4.03 3.94 7.32 7.16 7.17 11.78-.08 3.26-3.4 8.27-7.38 14.27-10.54 15.9-25.7 38.8 2.2 54.73Z" fill="#2c1b18"/><path fill-rule="evenodd" clip-rule="evenodd" d="M50.58 122.45c22.54-29.92 73.49-29.13 96.09-61.15 15.4 24.1 41.82 44.65 71.16 55.63.3-.86.08-1.85.37-2.7 2.15-14.14 9.14-24.37-.58-55.23-11.63-36.46-41.71-45.23-84.8-45.98l-1-.02c-43.08.77-73.16 9.54-84.8 46-11.38 36.16.17 44 0 63 .04 3.75-1.05 6.7-2.85 9.2.19.4 4.16-5.76 6.41-8.75Z" fill="#fff" fill-opacity=".2"/></g><g transform="translate(49 72)"><path d="M57.55 69.68a31.8 31.8 0 0 1 4.84-2.55C67.58 65.15 77.2 65.71 84 69.3c6.8-3.59 16.42-4.15 21.61-2.17 1.64.63 3.22 1.57 4.84 2.55 4.13 2.47 8.55 5.12 14.91 3.15.37-.12.73.22.62.58-1.37 4.5-9 7.6-11.6 7.7-6.2.24-11.75-2.26-17.13-4.69-4.44-2-8.77-3.96-13.25-4.26-4.48.3-8.8 2.26-13.25 4.26-5.38 2.43-10.92 4.93-17.13 4.69-2.6-.1-10.23-3.2-11.6-7.7-.11-.36.25-.7.62-.58 6.36 1.97 10.78-.68 14.9-3.15Z" fill="#c93305"/></g><g transform="translate(62 42)"></g></g></g></svg>