<svg xmlns="http://www.w3.org/2000/svg" viewBox="0 0 280 280" fill="none" shape-rendering="auto"><metadata xmlns:rdf="http://www.w3.org/1999/02/22-rdf-syntax-ns#" xmlns:xsi="http://www.w3.org/2001/XMLSchema-instance" xmlns:dc="http://purl.org/dc/elements/1.1/" xmlns:dcterms="http://purl.org/dc/terms/"><rdf:RDF><rdf:Description><dc:title>Avataaars</dc:title><dc:creator>Pablo Stanley</dc:creator><dc:source xsi:type="dcterms:URI">https://avataaars.com/</dc:source><dcterms:license xsi:type="dcterms:URI">https://avataaars.com/</dcterms:license><dc:rights>Remix of „Avataaars” (https://avataaars.com/) by „Pablo Stanley”, licensed under „Free for personal and commercial use” (https://avataaars.com/)</dc:rights></rdf:Description></rdf:RDF></metadata><mask id="viewboxMask"><rect width="280" height="280" rx="0" ry="0" x="0" y="0" fill="#fff" /></mask><g mask="url(#viewboxMask)"><g transform="translate(8)"><path d="M132 36a56 56 0 0 0-56 56v6.17A12 12 0 0 0 66 110v14a12 12 0 0 0 10.3 11.88 56.04 56.04 0 0 0 31.7 44.73v18.4h-4a72 72 0 0 0-72 72v9h200v-9a72 72 0 0 0-72-72h-4v-18.39a56.04 56.04 0 0 0 31.7-44.73A12 12 0 0 0 198 124v-14a12 12 0 0 0-10-11.83V92a56 56 0 0 0-56-56Z" fill="#ae5d29"/><path d="M108 180.61v8a55.79 55.79 0 0 0 24 5.39c8.59 0 16.73-1.93 24-5.39v-8a55.79 55.79 0 0 1-24 5.39 55.79 55.79 0 0 1-24-5.39Z" fill="#000" fill-opacity=".1"/><g transform="translate(0 170)"><path d="M132.5 54C151 54 166 44.37 166 32.5c0-1.1-.13-2.18-.38-3.23A72 72 0 0 1 232 101.05V110H32v-8.95A72 72 0 0 1 99.4 29.2a14.1 14.1 0 0 0-.4 3.3C99 44.37 114 54 132.5 54Z" fill="#ffffb1"/><g transform="translate(77 58)"><g fill="#fff"><path d="M63.84 17c-.29.65-.56 1.3-.82 1.95L63 19l2-.16A18.7 18.7 0 0 0 63.84 17ZM53.22 17.3c.2-.06.42-.13.7-.3.15.42.26 3.29-1.35 2.98-.92-.18-.5-1.77-.25-2.1.34-.41.59-.49.9-.58Z"/><path fill-rule="evenodd" clip-rule="evenodd" d="M74.64 16.95C73.46 11.68 70.6 7.97 66.18 5c-3.35-2.25-6.5-2.23-10.46-1.75-3.25.4-6.35 1.3-9.2 2.94-5.04 2.89-7.92 6.74-8.6 12.54-.28 2.33-.33 5.1.5 7.32.48 1.3 1.34 2.34 2.25 3.36.15.17.5.47.86.79.6.52 1.26 1.1 1.28 1.29.12.86-2.2 3.4-2.89 4.15-.05.06-.1.1-.12.14-.23.25-.73.6-1.3.99-1.02.7-2.25 1.55-2.43 2.2-.83 2.93 5.83 1.89 7.45 1.63 1.55-.24 3.11-.54 4.62-.98.7-.2 1.4-.44 2.07-.72.56-.23 1.17-.7 1.78-1.16.7-.52 1.38-1.03 1.97-1.2a5.9 5.9 0 0 1 2.1.02c.6.07 1.2.14 1.7.09 1.5-.15 3.03-.45 4.5-.87a19 19 0 0 0 7.05-3.84c4.42-3.76 6.6-9.24 5.33-15Zm-5.13 6.99c-.62.16-1.36-1.24-1.08-1.72.77-1.34 2.16 1.42 1.08 1.72Zm-2.22-9.38c-.27 1.1.12 2.95.4 4.05.07.36.42.47.73.43.55-.08.45-.56.36-.97-.03-.16-.06-.3-.06-.4.04-.75.11-2.64-.17-3.32-.51-1.26-.97-1.02-1.27.21Zm-.65 8.33c-.58.34-.86-.29-1.05-.74-.06-.13-.1-.24-.16-.32a1.39 1.39 0 0 1-.29-.72c-.01-.18-.02-.22-.58-.39-1.77-.52-1.8.7-1.84 1.94-.02.72-.04 1.45-.4 1.84-1.78 1.91-.58-3.68-.37-4.68l.03-.1.12-.7c.34-1.96 1.02-5.86 2.67-3.11.49.8 2.7 6.49 1.87 6.98Zm-10.37-.95c.6.6 3.7.22 4.02-.34.68-1.18-1.85-.85-2.78-.73l-.29.03c.04-.75.13-1.5.21-2.27.12-1.05.24-2.1.23-3.15v-.17c.02-.62.06-1.94-.96-1.21-.34.25-.33 1.19-.33 1.82v.46c-.02.23-.08.6-.15 1.02-.24 1.51-.61 3.87.04 4.54Zm-.77-2.78c-1.43 5.73-6.98 2.64-4.5-1.71.46-.8.83-.98 1.41-1.26.22-.1.46-.22.75-.4.05-.03.06-.14.06-.28 0-.27.02-.65.43-.64 1.76.03 2.18 2.93 1.85 4.28Zm-7 .83c-.04.87-.14 3.3.97 3 .76-.21.54-9.98-.33-9.98-.92 0-.75 1.78-.6 3.33.1 1 .19 1.91-.04 2.17-.1.12-.51.1-.84.06a2.1 2.1 0 0 0-.4 0c-1.15.2-1.9.08-2.25-.61-.1-.2-.1-.7-.1-1.29-.01-1.33-.02-2.96-1.15-1.5l.03 2.2c.34.72.21 1.16-.38 1.32-.02.3.16.58.28.77.07.1.12.19.12.24.02.14 0 .38-.01.66-.08 1.26-.2 3.54.92 3.4.71-.08.49-2.28.37-3.42l-.05-.6.91.03c.86.04 1.73.08 2.56-.03V20Z"/></g></g></g><g transform="translate(78 134)"><rect x="22" y="7" width="64" height="26" rx="13" fill="#000" fill-opacity=".6"/><rect x="24" y="9" width="60" height="22" rx="11" fill="#fff"/><path d="M24.18 18H32V9.41A11 11 0 0 1 35 9h1v9h9V9h4v9h9V9h4v9h9V9h2c.68 0 1.35.06 2 .18V18h8.82l.05.28v3.44l-.05.28H75v8.82c-.65.12-1.32.18-2 .18h-2v-9h-9v9h-4v-9h-9v9h-4v-9h-9v9h-1a11 11 0 0 1-3-.41V22h-7.82a11.06 11.06 0 0 1 0-4Z" fill="#E6E6E6"/></g><g transform="translate(104 122)"><path fill-rule="evenodd" clip-rule="evenodd" d="M16 8c0 4.42 5.37 8 12 8s12-3.58 12-8" fill="#000" fill-opacity=".16"/></g><g transform="translate(76 90)"><circle cx="82" cy="22" r="12" fill="#fff"/><circle cx="82" cy="22" r="6" fill="#000" fill-opacity=".7"/><path fill-rule="evenodd" clip-rule="evenodd" d="M16.16 25.45c1.85-3.8 6-6.45 10.84-6.45 4.81 0 8.96 2.63 10.82 6.4.55 1.13-.24 2.05-1.03 1.37a15.05 15.05 0 0 0-9.8-3.43c-3.73 0-7.12 1.24-9.55 3.23-.9.73-1.82-.01-1.28-1.12Z" fill="#000" fill-opacity=".6"/></g><g transform="translate(76 82)"><path d="M44.1 17.12ZM19.27 5.01a7.16 7.16 0 0 0-6.42 2.43c-.6.73-1.56 2.48-1.51 3.42.02.35.22.37 1.12.59 1.65.39 4.5-1.12 6.36-.98 2.58.2 5.04 1.4 7.28 2.68 3.84 2.2 8.35 6.84 13.1 6.6.35-.02 5.41-1.74 4.4-2.72-.31-.49-3.03-1.13-3.5-1.36-2.17-1.09-4.37-2.45-6.44-3.72C29.14 9.18 24.72 5.6 19.28 5ZM68.03 17.12ZM92.91 5.01c2.36-.27 4.85.5 6.42 2.43.6.73 1.56 2.48 1.51 3.42-.02.35-.22.37-1.12.59-1.65.39-4.5-1.12-6.36-.98-2.58.2-5.04 1.4-7.28 2.68-3.84 2.2-8.35 6.84-13.1 6.6-.35-.02-5.41-1.74-4.4-2.72.31-.49 3.03-1.13 3.5-1.36 2.17-1.09 4.36-2.45 6.44-3.72C83.05 9.18 87.46 5.6 92.91 5Z" fill-rule="evenodd" clip-rule="evenodd" fill="#000" fill-opacity=".6"/></g><g transform="translate(-1)"><path d="M188.32 138.76C227.9 129.26 255 109.87 255 87.5c0-23.5-29.92-43.72-72.8-52.63l-.31-1.43A40 40 0 0 0 142.82 2h-18.64a40 40 0 0 0-39.07 31.44l-.27 1.21C41.41 43.45 11 63.8 11 87.5c0 22.37 27.1 41.76 66.68 51.26-.2-1.28-.36-2.58-.47-3.9A12 12 0 0 1 67 123v-13a12 12 0 0 1 10-11.83V92c0-8 1.68-15.62 4.7-22.51 8.61-15.69 92.73-16.49 102.66.16A55.82 55.82 0 0 1 189 92v6.17A12 12 0 0 1 199 110v13a12 12 0 0 1-10.2 11.87 56.06 56.06 0 0 1-.48 3.9Z" fill="#929598"/><path d="M189 92.74c3.85-3.25 6-6.9 6-10.74 0-6.08-5.38-11.65-14.32-15.98 1.64 1.1 2.9 2.3 3.68 3.63A55.82 55.82 0 0 1 189 92v.74ZM157.26 58.99a144.36 144.36 0 0 0-24.26-2c-8.98 0-17.52.78-25.22 2.17 15.16-2.2 34.11-2.3 49.48-.17ZM84.69 66.33C76.12 70.62 71 76.07 71 82c0 3.85 2.15 7.49 6 10.74V92c0-8 1.68-15.62 4.7-22.51a9.94 9.94 0 0 1 2.99-3.16Z" fill="#000" fill-opacity=".5"/></g><g transform="translate(49 72)"></g><g transform="translate(62 42)"></g></g></g></svg>