<svg xmlns="http://www.w3.org/2000/svg" viewBox="0 0 280 280" fill="none" shape-rendering="auto"><metadata xmlns:rdf="http://www.w3.org/1999/02/22-rdf-syntax-ns#" xmlns:xsi="http://www.w3.org/2001/XMLSchema-instance" xmlns:dc="http://purl.org/dc/elements/1.1/" xmlns:dcterms="http://purl.org/dc/terms/"><rdf:RDF><rdf:Description><dc:title>Avataaars</dc:title><dc:creator>Pablo Stanley</dc:creator><dc:source xsi:type="dcterms:URI">https://avataaars.com/</dc:source><dcterms:license xsi:type="dcterms:URI">https://avataaars.com/</dcterms:license><dc:rights>Remix of „Avataaars” (https://avataaars.com/) by „Pablo Stanley”, licensed under „Free for personal and commercial use” (https://avataaars.com/)</dc:rights></rdf:Description></rdf:RDF></metadata><mask id="viewboxMask"><rect width="280" height="280" rx="0" ry="0" x="0" y="0" fill="#fff" /></mask><g mask="url(#viewboxMask)"><g transform="translate(8)"><path d="M132 36a56 56 0 0 0-56 56v6.17A12 12 0 0 0 66 110v14a12 12 0 0 0 10.3 11.88 56.04 56.04 0 0 0 31.7 44.73v18.4h-4a72 72 0 0 0-72 72v9h200v-9a72 72 0 0 0-72-72h-4v-18.39a56.04 56.04 0 0 0 31.7-44.73A12 12 0 0 0 198 124v-14a12 12 0 0 0-10-11.83V92a56 56 0 0 0-56-56Z" fill="#f8d25c"/><path d="M108 180.61v8a55.79 55.79 0 0 0 24 5.39c8.59 0 16.73-1.93 24-5.39v-8a55.79 55.79 0 0 1-24 5.39 55.79 55.79 0 0 1-24-5.39Z" fill="#000" fill-opacity=".1"/><g transform="translate(0 170)"><path d="M100.37 29.14a27.6 27.6 0 0 1 7.63-7.57v15.3c0 5.83 3.98 10.98 10.08 14.13l-.08.06.9 2.86c3.89 2 8.35 3.13 13.1 3.13s9.21-1.13 13.1-3.13l.9-2.86-.08-.06c6.1-3.15 10.08-8.3 10.08-14.12v-14.6a27.1 27.1 0 0 1 6.6 6.82 72 72 0 0 1 69.4 71.95V110H32v-8.95a72 72 0 0 1 68.37-71.9Z" fill="#65c9ff"/><path d="M108 21.57c-6.77 4.6-11 11.17-11 18.46 0 7.4 4.36 14.05 11.3 18.66l6.12-4.81 4.58.33-1-3.15.08-.06c-6.1-3.15-10.08-8.3-10.08-14.12v-15.3ZM156 36.88c0 5.82-3.98 10.97-10.08 14.12l.08.06-1 3.15 4.58-.33 5.65 4.45c6.63-4.6 10.77-11.1 10.77-18.3 0-6.92-3.82-13.2-10-17.75v14.6Z" fill="#fff" fill-opacity=".75"/></g><g transform="translate(78 134)"><rect x="42" y="18" width="24" height="6" rx="3" fill="#000" fill-opacity=".7"/></g><g transform="translate(104 122)"><path fill-rule="evenodd" clip-rule="evenodd" d="M16 8c0 4.42 5.37 8 12 8s12-3.58 12-8" fill="#000" fill-opacity=".16"/></g><g transform="translate(76 90)"><path d="M16.16 22.45c1.85-3.8 6-6.45 10.84-6.45 4.81 0 8.96 2.63 10.82 6.4.55 1.13-.24 2.05-1.03 1.37a15.05 15.05 0 0 0-9.8-3.43c-3.73 0-7.12 1.24-9.55 3.23-.9.73-1.82-.01-1.28-1.12ZM74.16 22.45c1.85-3.8 6-6.45 10.84-6.45 4.81 0 8.96 2.63 10.82 6.4.55 1.13-.24 2.05-1.03 1.37a15.05 15.05 0 0 0-9.8-3.43c-3.74 0-7.13 1.24-9.56 3.23-.9.73-1.82-.01-1.28-1.12Z" fill-rule="evenodd" clip-rule="evenodd" fill="#000" fill-opacity=".6"/></g><g transform="translate(76 82)"><path d="m22.77 1.58.9-.4C28.93-.91 36.88-.03 41.73 2.3c.57.27.18 1.15-.4 1.1-14.92-1.14-24.96 8.15-28.37 14.45-.1.18-.41.2-.49.03-2.3-5.32 4.45-13.98 10.3-16.3ZM87 12.07c5.75.77 14.74 5.8 13.99 11.6-.03.2-.31.26-.44.1-2.49-3.2-21.71-7.87-28.71-6.9-.64.1-1.07-.57-.63-.98 3.75-3.54 10.62-4.52 15.78-3.82Z" fill-rule="evenodd" clip-rule="evenodd" fill="#000" fill-opacity=".6"/></g><g transform="translate(-1)"><path d="M67 65c0-8.16 1.6-15.95 4.5-23.06-3.86-8.95-8.33-22.96-3.86-32.82 8-2.43 17.8 1.33 25.63 5.73A60.72 60.72 0 0 1 128 4h10c12.91 0 24.9 4.01 34.75 10.86 7.84-4.4 17.66-8.17 25.67-5.74 4.47 9.88-.03 23.94-3.9 32.88A60.83 60.83 0 0 1 199 65v8H67v-8Z" fill="#ff5c5c"/><path d="M194.52 42c3.87-8.94 8.37-23 3.9-32.88-8.01-2.43-17.83 1.34-25.66 5.74A61.21 61.21 0 0 1 194.51 42ZM93.27 14.85c-7.83-4.4-17.63-8.16-25.63-5.73-4.47 9.86 0 23.87 3.87 32.82 4.5-11 12.12-20.4 21.76-27.1Z" fill="#000" fill-opacity=".24"/><path d="M190.2 33.42c1.99-6 3.5-12.86 1.49-16.1-2.67-1.16-7.59.47-12.4 2.77a61.28 61.28 0 0 1 10.9 13.33ZM86.66 20.14c-4.92-2.38-10-4.11-12.73-2.93-2.06 3.33-.42 10.47 1.64 16.59a61.28 61.28 0 0 1 11.1-13.66Z" fill="#fff" fill-opacity=".3"/><path fill-rule="evenodd" clip-rule="evenodd" d="M64 69.77a7.05 7.05 0 0 1 3.05-5.96c7.8-5.18 30.42-17.8 66.02-17.8 35.6 0 58.14 12.62 65.9 17.81a7.04 7.04 0 0 1 3.03 5.95v30.2c0 3.3-3.9 5.38-6.78 3.75C184.84 97.83 163.1 88 133.8 88a133.57 133.57 0 0 0-63.17 15.98c-2.85 1.56-6.63-.5-6.63-3.75V69.77Z" fill="#000" fill-opacity=".1"/><path fill-rule="evenodd" clip-rule="evenodd" d="M64 67.77a7.05 7.05 0 0 1 3.05-5.96c7.8-5.18 30.42-17.8 66.02-17.8 35.6 0 58.14 12.62 65.9 17.81a7.04 7.04 0 0 1 3.03 5.95v30.2c0 3.3-3.9 5.38-6.78 3.75C184.84 95.83 163.1 86 133.8 86a133.57 133.57 0 0 0-63.17 15.98c-2.85 1.56-6.63-.5-6.63-3.75V67.77Z" fill="#F4F4F4"/></g><g transform="translate(49 72)"><path fill-rule="evenodd" clip-rule="evenodd" d="M101.43 98.17c-2.52 2.3-5.2 3.32-8.58 2.6-.58-.12-2.95-4.54-8.85-4.54-5.9 0-8.27 4.42-8.85 4.54-3.39.72-6.07-.3-8.58-2.6-4.72-4.31-8.65-10.26-6.3-16.75 1.24-3.38 3.24-7.1 6.88-8.17 3.89-1.15 9.35 0 13.26-.8A8.6 8.6 0 0 0 84 71a8.6 8.6 0 0 0 3.58 1.46c3.92.78 9.38-.36 13.27.79 3.64 1.07 5.64 4.79 6.87 8.17 2.36 6.49-1.57 12.44-6.3 16.75ZM140.08 26c-3.4 8.4-2.1 18.86-2.72 27.68-.52 7.16-2.02 17.9-8.39 22.53-3.25 2.37-9.18 6.35-13.43 5.24-2.93-.76-3.24-9.16-7.09-12.3a22.42 22.42 0 0 0-15.3-4.9c-2.37.11-7.17.09-9.15 1.91-1.98-1.82-6.78-1.8-9.15-1.9a22.42 22.42 0 0 0-15.3 4.89c-3.85 3.14-4.16 11.54-7.1 12.3-4.24 1.1-10.17-2.87-13.42-5.24-6.37-4.62-7.87-15.37-8.39-22.53-.63-8.82.69-19.28-2.72-27.68-1.66 0-.57 16.13-.57 16.13v20.36c.04 15.28 9.59 38.16 30.76 46.9C63.29 111.53 75 115 84 115c8.98.01 20.71-3.13 25.9-5.27 21.16-8.73 30.71-31.95 30.75-47.23V42.13s1.1-16.13-.57-16.13Z" fill="#724133"/></g><g transform="translate(62 42)"></g></g></g></svg>