<svg xmlns="http://www.w3.org/2000/svg" viewBox="0 0 280 280" fill="none" shape-rendering="auto"><metadata xmlns:rdf="http://www.w3.org/1999/02/22-rdf-syntax-ns#" xmlns:xsi="http://www.w3.org/2001/XMLSchema-instance" xmlns:dc="http://purl.org/dc/elements/1.1/" xmlns:dcterms="http://purl.org/dc/terms/"><rdf:RDF><rdf:Description><dc:title>Avataaars</dc:title><dc:creator>Pablo Stanley</dc:creator><dc:source xsi:type="dcterms:URI">https://avataaars.com/</dc:source><dcterms:license xsi:type="dcterms:URI">https://avataaars.com/</dcterms:license><dc:rights>Remix of „Avataaars” (https://avataaars.com/) by „Pablo Stanley”, licensed under „Free for personal and commercial use” (https://avataaars.com/)</dc:rights></rdf:Description></rdf:RDF></metadata><mask id="viewboxMask"><rect width="280" height="280" rx="0" ry="0" x="0" y="0" fill="#fff" /></mask><g mask="url(#viewboxMask)"><g transform="translate(8)"><path d="M132 36a56 56 0 0 0-56 56v6.17A12 12 0 0 0 66 110v14a12 12 0 0 0 10.3 11.88 56.04 56.04 0 0 0 31.7 44.73v18.4h-4a72 72 0 0 0-72 72v9h200v-9a72 72 0 0 0-72-72h-4v-18.39a56.04 56.04 0 0 0 31.7-44.73A12 12 0 0 0 198 124v-14a12 12 0 0 0-10-11.83V92a56 56 0 0 0-56-56Z" fill="#fd9841"/><path d="M108 180.61v8a55.79 55.79 0 0 0 24 5.39c8.59 0 16.73-1.93 24-5.39v-8a55.79 55.79 0 0 1-24 5.39 55.79 55.79 0 0 1-24-5.39Z" fill="#000" fill-opacity=".1"/><g transform="translate(0 170)"><path d="M132.5 51.83c18.5 0 33.5-9.62 33.5-21.48 0-.36-.01-.7-.04-1.06A72 72 0 0 1 232 101.04V110H32v-8.95a72 72 0 0 1 67.05-71.83c-.03.37-.05.75-.05 1.13 0 11.86 15 21.48 33.5 21.48Z" fill="#5199e4"/><path d="M132.5 58.76c21.89 0 39.63-12.05 39.63-26.91 0-.6-.02-1.2-.08-1.8-2-.33-4.03-.59-6.1-.76.04.35.05.7.05 1.06 0 11.86-15 21.48-33.5 21.48S99 42.2 99 30.35c0-.38.02-.76.05-1.13-2.06.14-4.08.36-6.08.67-.07.65-.1 1.3-.1 1.96 0 14.86 17.74 26.91 39.63 26.91Z" fill="#000" fill-opacity=".08"/></g><g transform="translate(78 134)"><path fill-rule="evenodd" clip-rule="evenodd" d="M29 15.6C30.41 25.24 41.06 33 54 33c12.97 0 23.65-7.82 25-18.26.1-.4-.22-1.74-2.17-1.74H31.17c-1.79 0-2.3 1.24-2.17 2.6Z" fill="#000" fill-opacity=".7"/><path d="M70 13H39a5 5 0 0 0 5 5h21a5 5 0 0 0 5-5Z" fill="#fff"/><path d="M43 23.5a1.88 1.88 0 0 0 0 .13v8.87a11.5 11.5 0 1 0 23 0v-8.87a1.62 1.62 0 0 0 0-.13c0-1.93-2.91-3.5-6.5-3.5-2.01 0-3.8.5-5 1.26a9.45 9.45 0 0 0-5-1.26c-3.59 0-6.5 1.57-6.5 3.5Z" fill="#FF4F6D"/></g><g transform="translate(104 122)"><path fill-rule="evenodd" clip-rule="evenodd" d="M16 8c0 4.42 5.37 8 12 8s12-3.58 12-8" fill="#000" fill-opacity=".16"/></g><g transform="translate(76 90)"><path d="M25 27s-6 7.27-6 11.27a6 6 0 1 0 12 0c0-4-6-11.27-6-11.27Z" fill="#92D9FF"/><path d="M36 22a6 6 0 1 1-12 0 6 6 0 0 1 12 0ZM88 22a6 6 0 1 1-12 0 6 6 0 0 1 12 0Z" fill="#000" fill-opacity=".6"/></g><g transform="translate(76 82)"><path d="M15.63 17.16c3.92-5.51 14.65-8.6 23.9-6.33a2 2 0 1 0 .95-3.88c-10.74-2.64-23.17.94-28.11 7.9a2 2 0 0 0 3.26 2.3ZM96.37 17.16c-3.91-5.51-14.65-8.6-23.9-6.33a2 2 0 1 1-.95-3.88c10.74-2.64 23.17.94 28.11 7.9a2 2 0 0 1-3.26 2.3Z" fill="#000" fill-opacity=".6"/></g><g transform="translate(-1)"><path d="M151.12 28.28c3.06-2.97 4.88-6.71 4.88-10.78C156 7.84 145.7 0 133 0s-23 7.84-23 17.5c0 4.1 1.85 7.86 4.94 10.84-.99.22-1.95.45-2.9.69-15.1 3.8-24.02 14.62-31.68 30.62a67.68 67.68 0 0 0-6.34 25.83c-.13 3.41.33 6.94 1.25 10.22.33 1.2 2.15 5.39 2.65 2 .1-.66-.07-1.47-.24-2.27-.12-.55-.23-1.1-.26-1.6-.08-1.56 0-3.15.11-4.72.2-2.92.73-5.8 1.65-8.59 1.33-3.98 3.02-8.3 5.6-11.67.97-1.25 1.88-2.7 2.88-4.27 5.63-8.9 13.68-21.6 45.34-22.9 34.3-1.42 46.78 21.66 51.21 29.87.38.7.7 1.3.97 1.75 2.67 4.53 2.78 9.75 2.9 14.91.05 2.71.11 5.41.54 8 .47 2.84 1.54 2.78 2.13.23 1-4.33 1.47-8.83 1.15-13.28-.72-10.05-4.4-36.45-24.6-48.15a65.52 65.52 0 0 0-16.18-6.73Z" fill="#c93305"/></g><g transform="translate(49 72)"></g><g transform="translate(62 42)"><g fill-rule="evenodd" clip-rule="evenodd"><path d="M38.5 52c-21.3 0-28.85 5.1-29.55 5.77A2.92 2.92 0 0 0 6 60.66v2.88c0 1.6 1.32 2.89 2.95 2.89 0 0 5.91 0 5.91 2.88 0 .44.07.65.19.68-.04.82-.05 1.66-.05 2.5C15 85.34 23.31 93 37.24 93H40c14.72 0 25-8.43 25-20.5 0-1.5-.04-3-.17-4.46l1.58-.77c.58-.29 1.21-.5 1.9-.64 1.85-.38 3.95-.22 5.99.28.73.18 1.26.35 1.5.45l1.38.55c-.14 1.5-.18 3.04-.18 4.6C77 85.34 85.31 93 99.24 93H102c14.72 0 25-8.43 25-20.5 0-1.54-.04-3.07-.18-4.56 1.74-1.51 6.22-1.51 6.22-1.51a2.92 2.92 0 0 0 2.96-2.89v-2.88c0-1.6-1.32-2.89-2.96-2.89-.69-.67-8.25-5.77-29.54-5.77H100.53c-1.8 0-3.44.07-4.97.2-9.54.54-14.68 2.15-19.92 4.7a17 17 0 0 1-4.56.87 17.01 17.01 0 0 1-4.81-.91l-.42-.2v-.01c-4.94-2.42-8.43-4.13-20.78-4.55a61.2 61.2 0 0 0-3.6-.1H38.5ZM19 73.5C19 64.84 19 58 38.39 58h3.22C61 58 61 64.84 61 73.5 61 82.63 52.36 89 40 89h-3.03C22.12 89 19 80.57 19 73.5Zm62 0c0-8.66 0-15.5 19.39-15.5h3.22C123 58 123 64.84 123 73.5c0 9.13-8.64 15.5-21 15.5h-3.03C84.12 89 81 80.57 81 73.5Z" fill="#000" fill-opacity=".1"/><path d="M38.5 50c-21.3 0-28.85 5.1-29.55 5.77A2.92 2.92 0 0 0 6 58.66v2.88c0 1.6 1.32 2.89 2.95 2.89 0 0 5.91 0 5.91 2.88 0 .44.07.65.19.68-.04.82-.05 1.66-.05 2.5C15 83.34 23.31 91 37.24 91H40c14.72 0 25-8.43 25-20.5 0-1.5-.04-3-.17-4.46l1.58-.77c.58-.29 1.21-.5 1.9-.64 1.85-.38 3.95-.22 5.99.28.73.18 1.26.35 1.5.45l1.38.55c-.14 1.5-.18 3.04-.18 4.6C77 83.34 85.31 91 99.24 91H102c14.72 0 25-8.43 25-20.5 0-1.54-.04-3.07-.18-4.56 1.74-1.51 6.22-1.51 6.22-1.51a2.92 2.92 0 0 0 2.96-2.89v-2.88c0-1.6-1.32-2.89-2.96-2.89-.69-.67-8.25-5.77-29.54-5.77H100.53c-1.8 0-3.44.07-4.97.2-9.54.54-14.68 2.15-19.92 4.7a17 17 0 0 1-4.56.87 17.01 17.01 0 0 1-4.81-.91l-.42-.2v-.01c-4.94-2.42-8.43-4.13-20.78-4.55a61.2 61.2 0 0 0-3.6-.1H38.5ZM19 71.5C19 62.84 19 56 38.39 56h3.22C61 56 61 62.84 61 71.5 61 80.63 52.36 87 40 87h-3.03C22.12 87 19 78.57 19 71.5Zm62 0c0-8.66 0-15.5 19.39-15.5h3.22C123 56 123 62.84 123 71.5c0 9.13-8.64 15.5-21 15.5h-3.03C84.12 87 81 78.57 81 71.5Z" fill="#5199e4"/></g></g></g></g></svg>