<svg xmlns="http://www.w3.org/2000/svg" viewBox="0 0 280 280" fill="none" shape-rendering="auto"><metadata xmlns:rdf="http://www.w3.org/1999/02/22-rdf-syntax-ns#" xmlns:xsi="http://www.w3.org/2001/XMLSchema-instance" xmlns:dc="http://purl.org/dc/elements/1.1/" xmlns:dcterms="http://purl.org/dc/terms/"><rdf:RDF><rdf:Description><dc:title>Avataaars</dc:title><dc:creator>Pablo Stanley</dc:creator><dc:source xsi:type="dcterms:URI">https://avataaars.com/</dc:source><dcterms:license xsi:type="dcterms:URI">https://avataaars.com/</dcterms:license><dc:rights>Remix of „Avataaars” (https://avataaars.com/) by „Pablo Stanley”, licensed under „Free for personal and commercial use” (https://avataaars.com/)</dc:rights></rdf:Description></rdf:RDF></metadata><mask id="viewboxMask"><rect width="280" height="280" rx="0" ry="0" x="0" y="0" fill="#fff" /></mask><g mask="url(#viewboxMask)"><g transform="translate(8)"><path d="M132 36a56 56 0 0 0-56 56v6.17A12 12 0 0 0 66 110v14a12 12 0 0 0 10.3 11.88 56.04 56.04 0 0 0 31.7 44.73v18.4h-4a72 72 0 0 0-72 72v9h200v-9a72 72 0 0 0-72-72h-4v-18.39a56.04 56.04 0 0 0 31.7-44.73A12 12 0 0 0 198 124v-14a12 12 0 0 0-10-11.83V92a56 56 0 0 0-56-56Z" fill="#ffdbb4"/><path d="M108 180.61v8a55.79 55.79 0 0 0 24 5.39c8.59 0 16.73-1.93 24-5.39v-8a55.79 55.79 0 0 1-24 5.39 55.79 55.79 0 0 1-24-5.39Z" fill="#000" fill-opacity=".1"/><g transform="translate(0 170)"><path d="M132.5 51.83c18.5 0 33.5-9.62 33.5-21.48 0-.36-.01-.7-.04-1.06A72 72 0 0 1 232 101.04V110H32v-8.95a72 72 0 0 1 67.05-71.83c-.03.37-.05.75-.05 1.13 0 11.86 15 21.48 33.5 21.48Z" fill="#ffffb1"/><path d="M132.5 58.76c21.89 0 39.63-12.05 39.63-26.91 0-.6-.02-1.2-.08-1.8-2-.33-4.03-.59-6.1-.76.04.35.05.7.05 1.06 0 11.86-15 21.48-33.5 21.48S99 42.2 99 30.35c0-.38.02-.76.05-1.13-2.06.14-4.08.36-6.08.67-.07.65-.1 1.3-.1 1.96 0 14.86 17.74 26.91 39.63 26.91Z" fill="#000" fill-opacity=".08"/></g><g transform="translate(78 134)"><rect x="22" y="7" width="64" height="26" rx="13" fill="#000" fill-opacity=".6"/><rect x="24" y="9" width="60" height="22" rx="11" fill="#fff"/><path d="M24.18 18H32V9.41A11 11 0 0 1 35 9h1v9h9V9h4v9h9V9h4v9h9V9h2c.68 0 1.35.06 2 .18V18h8.82l.05.28v3.44l-.05.28H75v8.82c-.65.12-1.32.18-2 .18h-2v-9h-9v9h-4v-9h-9v9h-4v-9h-9v9h-1a11 11 0 0 1-3-.41V22h-7.82a11.06 11.06 0 0 1 0-4Z" fill="#E6E6E6"/></g><g transform="translate(104 122)"><path fill-rule="evenodd" clip-rule="evenodd" d="M16 8c0 4.42 5.37 8 12 8s12-3.58 12-8" fill="#000" fill-opacity=".16"/></g><g transform="translate(76 90)"><path d="M35.96 10c-2.55 0-5.08 1.98-6.46 3.82-1.39-1.84-3.9-3.82-6.46-3.82-5.49 0-9.04 3.33-9.04 7.64 0 5.73 4.41 9.13 9.04 12.74 1.66 1.23 4.78 4.4 5.17 5.1.38.68 2.1.7 2.58 0 .48-.73 3.51-3.87 5.17-5.1 4.63-3.6 9.04-7 9.04-12.74 0-4.3-3.55-7.64-9.04-7.64ZM88.96 10c-2.55 0-5.08 1.98-6.46 3.82-1.39-1.84-3.9-3.82-6.46-3.82-5.49 0-9.04 3.33-9.04 7.64 0 5.73 4.41 9.13 9.04 12.74 1.65 1.23 4.78 4.4 5.17 5.1.38.68 2.1.7 2.58 0 .48-.73 3.51-3.87 5.17-5.1 4.63-3.6 9.04-7 9.04-12.74 0-4.3-3.55-7.64-9.04-7.64Z" fill="#FF5353" fill-opacity=".8"/></g><g transform="translate(76 82)"><path d="M15.6 14.16c4.49-6.32 14-9.5 23.75-6.36a2 2 0 1 0 1.23-3.81c-11.41-3.68-22.74.1-28.25 7.85a2 2 0 1 0 3.26 2.32ZM96.38 21.16c-3.92-5.51-14.65-8.6-23.9-6.33a2 2 0 0 1-.95-3.88c10.74-2.64 23.17.94 28.1 7.9a2 2 0 1 1-3.25 2.3Z" fill="#000" fill-opacity=".6"/></g><g transform="translate(-1)"><circle cx="133" cy="20" r="20" fill="#F4F4F4"/><path fill-rule="evenodd" clip-rule="evenodd" d="M67 78a66 66 0 1 1 132 0v5H67v-5Z" fill="#ff5c5c"/><path fill-rule="evenodd" clip-rule="evenodd" d="M64 69.77a7.05 7.05 0 0 1 3.05-5.96c7.8-5.18 30.42-17.8 66.02-17.8 35.6 0 58.14 12.62 65.9 17.81a7.04 7.04 0 0 1 3.03 5.95v30.2c0 3.3-3.9 5.38-6.78 3.75C184.84 97.83 163.1 88 133.8 88a133.57 133.57 0 0 0-63.17 15.98c-2.85 1.56-6.63-.5-6.63-3.75V69.77Z" fill="#000" fill-opacity=".1"/><path fill-rule="evenodd" clip-rule="evenodd" d="M64 67.77a7.05 7.05 0 0 1 3.05-5.96c7.8-5.18 30.42-17.8 66.02-17.8 35.6 0 58.14 12.62 65.9 17.81a7.04 7.04 0 0 1 3.03 5.95v30.2c0 3.3-3.9 5.38-6.78 3.75C184.84 95.83 163.1 86 133.8 86a133.57 133.57 0 0 0-63.17 15.98c-2.85 1.56-6.63-.5-6.63-3.75V67.77Z" fill="#F4F4F4"/></g><g transform="translate(49 72)"></g><g transform="translate(62 42)"></g></g></g></svg>