<svg xmlns="http://www.w3.org/2000/svg" viewBox="0 0 280 280" fill="none" shape-rendering="auto"><metadata xmlns:rdf="http://www.w3.org/1999/02/22-rdf-syntax-ns#" xmlns:xsi="http://www.w3.org/2001/XMLSchema-instance" xmlns:dc="http://purl.org/dc/elements/1.1/" xmlns:dcterms="http://purl.org/dc/terms/"><rdf:RDF><rdf:Description><dc:title>Avataaars</dc:title><dc:creator>Pablo Stanley</dc:creator><dc:source xsi:type="dcterms:URI">https://avataaars.com/</dc:source><dcterms:license xsi:type="dcterms:URI">https://avataaars.com/</dcterms:license><dc:rights>Remix of „Avataaars” (https://avataaars.com/) by „Pablo Stanley”, licensed under „Free for personal and commercial use” (https://avataaars.com/)</dc:rights></rdf:Description></rdf:RDF></metadata><mask id="viewboxMask"><rect width="280" height="280" rx="0" ry="0" x="0" y="0" fill="#fff" /></mask><g mask="url(#viewboxMask)"><g transform="translate(8)"><path d="M132 36a56 56 0 0 0-56 56v6.17A12 12 0 0 0 66 110v14a12 12 0 0 0 10.3 11.88 56.04 56.04 0 0 0 31.7 44.73v18.4h-4a72 72 0 0 0-72 72v9h200v-9a72 72 0 0 0-72-72h-4v-18.39a56.04 56.04 0 0 0 31.7-44.73A12 12 0 0 0 198 124v-14a12 12 0 0 0-10-11.83V92a56 56 0 0 0-56-56Z" fill="#ffdbb4"/><path d="M108 180.61v8a55.79 55.79 0 0 0 24 5.39c8.59 0 16.73-1.93 24-5.39v-8a55.79 55.79 0 0 1-24 5.39 55.79 55.79 0 0 1-24-5.39Z" fill="#000" fill-opacity=".1"/><g transform="translate(0 170)"><path d="M100.37 29.14a27.6 27.6 0 0 1 7.63-7.57v15.3c0 5.83 3.98 10.98 10.08 14.13l-.08.06.9 2.86c3.89 2 8.35 3.13 13.1 3.13s9.21-1.13 13.1-3.13l.9-2.86-.08-.06c6.1-3.15 10.08-8.3 10.08-14.12v-14.6a27.1 27.1 0 0 1 6.6 6.82 72 72 0 0 1 69.4 71.95V110H32v-8.95a72 72 0 0 1 68.37-71.9Z" fill="#ffffb1"/><path d="M108 21.57c-6.77 4.6-11 11.17-11 18.46 0 7.4 4.36 14.05 11.3 18.66l6.12-4.81 4.58.33-1-3.15.08-.06c-6.1-3.15-10.08-8.3-10.08-14.12v-15.3ZM156 36.88c0 5.82-3.98 10.97-10.08 14.12l.08.06-1 3.15 4.58-.33 5.65 4.45c6.63-4.6 10.77-11.1 10.77-18.3 0-6.92-3.82-13.2-10-17.75v14.6Z" fill="#fff" fill-opacity=".75"/></g><g transform="translate(78 134)"><path d="M40 16c0 5.37 6.16 9 14 9s14-3.63 14-9c0-1.1-.95-2-2-2-1.3 0-1.87.9-2 2-1.24 2.94-4.32 4.72-10 5-5.68-.28-8.76-2.06-10-5-.13-1.1-.7-2-2-2-1.05 0-2 .9-2 2Z" fill="#000" fill-opacity=".6"/></g><g transform="translate(104 122)"><path fill-rule="evenodd" clip-rule="evenodd" d="M16 8c0 4.42 5.37 8 12 8s12-3.58 12-8" fill="#000" fill-opacity=".16"/></g><g transform="translate(76 90)"><path d="M44 22a14 14 0 1 1-28 0 14 14 0 0 1 28 0ZM96 22a14 14 0 1 1-28 0 14 14 0 0 1 28 0Z" fill="#fff"/><path d="M36 22a6 6 0 1 1-12 0 6 6 0 0 1 12 0ZM88 22a6 6 0 1 1-12 0 6 6 0 0 1 12 0Z" fill="#000" fill-opacity=".7"/></g><g transform="translate(76 82)"><path d="M38.66 11.1c-5 .35-9.92.08-14.92-.13-3.83-.16-7.72-.68-11.37 1.01-.7.32-4.53 2.28-4.44 3.35.07.85 3.93 2.2 4.63 2.44 3.67 1.29 7.18.9 10.95.66 4.64-.27 9.25-.07 13.87-.2 3.12-.1 7.92-.63 9.46-4.4.46-1.14.1-3.42-.36-4.66-.19-.5-.72-.69-1.13-.4a15.04 15.04 0 0 1-6.68 2.32ZM73.34 11.1c5 .35 9.92.08 14.92-.13 3.83-.16 7.72-.68 11.37 1.01.7.32 4.53 2.28 4.44 3.35-.07.85-3.93 2.2-4.63 2.44-3.67 1.29-7.18.9-10.95.66-4.63-.27-9.24-.07-13.86-.2-3.12-.1-7.92-.63-9.46-4.4-.46-1.14-.1-3.42.36-4.66.18-.5.72-.69 1.13-.4a15.04 15.04 0 0 0 6.68 2.32Z" fill-rule="evenodd" clip-rule="evenodd" fill="#000" fill-opacity=".6"/></g><g transform="translate(-1)"><path d="M94.7 69.39c-4.62 24.47-16 42.72-25.74 41a7.49 7.49 0 0 1-1.96-.63V89a65.93 65.93 0 0 1 28.4-54.24c.48 2.39.83 4.99 1.05 7.77a262.85 262.85 0 0 1 36.9-2.44c13.27 0 25.67.85 36.22 2.34.22-2.74.57-5.3 1.05-7.67A65.92 65.92 0 0 1 199 89v20.76c-.62.3-1.28.52-1.95.63-9.72 1.72-21.09-16.48-25.73-40.9a260.5 260.5 0 0 1-37.97 2.59c-14.3 0-27.6-1-38.65-2.7Z" fill="#000" fill-opacity=".16"/><path d="M133 0c-11.21 0-21.9 2.2-31.69 6.18-.92-.12-1.86-.18-2.81-.18-6.7 0-12.77 3.07-17.2 8.06-18.04.93-33.46 13.3-40.77 30.9C32.5 49.56 27 59.04 27 70c0 .58.02 1.15.05 1.73A62.11 62.11 0 0 0 17 106c0 7.33 1.21 14.34 3.43 20.78-.28 1.69-.43 3.44-.43 5.22 0 9.45 4.1 17.81 10.38 22.88C37.74 172.68 53.6 185 72 185c1.5 0 2.98-.08 4.44-.24C81.9 189.9 88.88 193 96.5 193c4.44 0 8.67-1.05 12.5-2.95v-9.44a56.03 56.03 0 0 1-31.8-45.74A12 12 0 0 1 67 123v-13c0-1.72.36-3.36 1.02-4.84.3.1.62.18.94.23 9.73 1.72 21.12-16.53 25.74-41 11.05 1.7 24.35 2.7 38.65 2.7 14.02 0 27.06-.96 37.97-2.6 4.64 24.41 16.01 42.6 25.73 40.9.32-.06.63-.14.94-.23a11.96 11.96 0 0 1 1 4.83v13a12 12 0 0 1-10.2 11.87A56.03 56.03 0 0 1 157 180.6v9.44a28.06 28.06 0 0 0 12.5 2.95c7.62 0 14.61-3.1 20.06-8.24 1.46.16 2.94.24 4.44.24 18.39 0 34.26-12.32 41.62-30.12C241.9 149.81 246 141.45 246 132c0-1.78-.15-3.53-.43-5.22A63.91 63.91 0 0 0 249 106a62.11 62.11 0 0 0-10.05-34.27c.04-.58.05-1.15.05-1.73 0-10.96-5.5-20.44-13.53-25.04-7.31-17.6-22.73-29.97-40.77-30.9C180.27 9.07 174.2 6 167.5 6c-.95 0-1.89.06-2.81.18A83.76 83.76 0 0 0 133 0Z" fill="#ecdcbf"/></g><g transform="translate(49 72)"></g><g transform="translate(62 42)"></g></g></g></svg>